<?xml version="1.0" encoding="UTF-8"?>
<!DOCTYPE svg PUBLIC "-//W3C//DTD SVG 1.1//EN" "http://www.w3.org/Graphics/SVG/1.1/DTD/svg11.dtd">
<!-- Creator: CorelDRAW X6 -->
<svg xmlns="http://www.w3.org/2000/svg" xml:space="preserve" width="118.292mm" height="109.009mm" version="1.1" style="shape-rendering:geometricPrecision; text-rendering:geometricPrecision; image-rendering:optimizeQuality; fill-rule:evenodd; clip-rule:evenodd"
viewBox="0 0 11830 10902"
 xmlns:xlink="http://www.w3.org/1999/xlink">
 <defs>
  <style type="text/css">
   <![CDATA[
    .fil1 {fill:#87796F}
    .fil3 {fill:#89C4DB}
    .fil2 {fill:#D4DA55}
    .fil5 {fill:#DECAAD}
    .fil0 {fill:#E96C7A}
    .fil4 {fill:#FAE6CA}
   ]]>
  </style>
 </defs>
 <g id="Layer_x0020_1">
  <metadata id="CorelCorpID_0Corel-Layer"/>
  <path class="fil0" d="M7297 6402l-5657 -1639c-251,-73 -513,72 -586,323l-1035 3571c-73,251 72,514 323,587l1590 460 716 208 3350 971c251,73 514,-72 586,-323l1036 -3571c72,-251 -72,-514 -323,-587l0 0z"/>
  <path class="fil1" d="M5707 7614l-1037 255c118,-103 210,-240 257,-402 130,-451 -129,-923 -581,-1053 -392,-114 -799,67 -985,413 -54,-30 -112,-55 -174,-73 -451,-131 -923,129 -1054,580 -130,451 129,923 581,1054 61,18 124,28 186,32 -28,391 219,762 611,876 451,130 923,-129 1054,-580 47,-162 43,-327 -2,-477l740 770 404 -1395z"/>
  <path class="fil2" d="M8637 6328l-3845 -4662c-140,-169 -389,-193 -558,-54l-2987 2465c-169,139 -193,388 -54,557l3846 4662c139,169 389,193 557,54l2988 -2465c169,-139 193,-389 53,-557l0 0z"/>
  <path class="fil1" d="M5625 6011c791,-226 862,-983 461,-1468 -413,-501 -1456,-586 -2194,-459 -70,12 -129,60 -154,127 -264,700 -380,1740 34,2242 400,485 1157,559 1529,-174l171 1018 1121 -924 -968 -362z"/>
  <path class="fil3" d="M10015 6316l-1848 -5754c-67,-209 -290,-323 -499,-256l-3687 1184c-208,67 -323,290 -256,498l1848 5754c67,208 290,323 498,256l3688 -1184c208,-67 322,-290 256,-498z"/>
  <polygon class="fil1" points="6319,2481 5533,4570 7421,5823 8207,3734 "/>
  <path class="fil4" d="M11357 0l-3719 0c-261,0 -473,212 -473,473l0 5890c0,261 212,473 473,473l3719 0c261,0 473,-212 473,-473l0 -5890c0,-261 -212,-473 -473,-473z"/>
  <path class="fil1" d="M9498 2142c-959,-598 -1668,47 -1668,810 0,723 835,1533 1557,1947 68,39 153,39 222,0 722,-414 1557,-1224 1557,-1947 0,-763 -710,-1408 -1668,-810z"/>
  <path class="fil5" d="M11357 79l-847 0c217,0 394,177 394,394l0 1629c215,208 341,514 341,850 0,293 -131,604 -341,902l0 2509c0,217 -177,393 -394,393l847 0c217,0 394,-176 394,-393l0 -5890c0,-217 -177,-394 -394,-394l0 0z"/>
 </g>
</svg>
