<svg height="512pt" viewBox="0 -103 512 512" width="512pt" xmlns="http://www.w3.org/2000/svg"><path d="m444.507812 0h-63.445312v305.71875h63.445312c37.121094 0 67.492188-30.371094 67.492188-67.492188v-170.734374c0-37.121094-30.371094-67.492188-67.492188-67.492188zm0 0" fill="#60b8ff"/><path d="m381.0625 0h34.011719v305.71875h-34.011719zm0 0" fill="#22a7ff"/><path d="m130.9375 0h-63.445312c-37.121094 0-67.492188 30.371094-67.492188 67.492188v170.734374c0 37.121094 30.371094 67.492188 67.492188 67.492188h63.445312zm0 0" fill="#ff646f"/><path d="m30.949219 238.226562v-170.734374c0-37.121094 30.371093-67.492188 67.492187-67.492188h-30.949218c-37.121094 0-67.492188 30.371094-67.492188 67.492188v170.734374c0 37.121094 30.371094 67.492188 67.492188 67.492188h30.949218c-37.121094 0-67.492187-30.371094-67.492187-67.492188zm0 0" fill="#ff4755"/><path d="m127.832031 0h256.335938v305.71875h-256.335938zm0 0" fill="#6c7fd9"/><path d="m127.832031 0h31.734375v305.71875h-31.734375zm0 0" fill="#4f66d1"/><path d="m352.433594 239.046875v-200.226563c0-3.914062-3.171875-7.085937-7.085938-7.085937h-178.695312c-3.910156 0-7.085938 3.171875-7.085938 7.085937v200.226563zm0 0" fill="#b4dbff"/><path d="m197.359375 31.734375h-30.707031c-3.910156 0-7.085938 3.171875-7.085938 7.085937v200.226563h30.707032v-200.226563c0-3.914062 3.171874-7.085937 7.085937-7.085937zm0 0" fill="#8bcaff"/><path d="m476.277344 222.289062c0 15.773438-12.785156 28.5625-28.5625 28.5625-15.773438 0-28.5625-12.789062-28.5625-28.5625 0-15.777343 12.789062-28.5625 28.5625-28.5625 15.777344 0 28.5625 12.785157 28.5625 28.5625zm0 0" fill="#22a7ff"/><g fill="#0094fd"><path d="m450.105469 222.289062c0-10.070312 5.214843-18.914062 13.085937-24-4.460937-2.882812-9.769531-4.5625-15.476562-4.5625-15.773438 0-28.5625 12.789063-28.5625 28.5625 0 15.773438 12.789062 28.5625 28.5625 28.5625 5.707031 0 11.015625-1.679687 15.476562-4.5625-7.871094-5.085937-13.085937-13.929687-13.085937-24zm0 0"/><path d="m459.8125 68.300781c0 6.679688-5.417969 12.09375-12.097656 12.09375-6.679688 0-12.09375-5.414062-12.09375-12.09375 0-6.679687 5.414062-12.09375 12.09375-12.09375 6.679687 0 12.097656 5.414063 12.097656 12.09375zm0 0"/><path d="m459.8125 125.785156c0 6.683594-5.417969 12.097656-12.097656 12.097656-6.679688 0-12.09375-5.414062-12.09375-12.097656 0-6.679687 5.414062-12.09375 12.09375-12.09375 6.679687 0 12.097656 5.414063 12.097656 12.09375zm0 0"/><path d="m431.066406 97.042969c0 6.679687-5.414062 12.097656-12.09375 12.097656-6.679687 0-12.09375-5.417969-12.09375-12.097656 0-6.679688 5.414063-12.09375 12.09375-12.09375 6.679688 0 12.09375 5.414062 12.09375 12.09375zm0 0"/><path d="m488.554688 97.042969c0 6.679687-5.414063 12.097656-12.09375 12.097656-6.683594 0-12.097657-5.417969-12.097657-12.097656 0-6.679688 5.414063-12.09375 12.097657-12.09375 6.679687 0 12.09375 5.414062 12.09375 12.09375zm0 0"/></g><path d="m92.632812 84.769531c0 15.773438-12.789062 28.558594-28.5625 28.558594-15.773437 0-28.5625-12.785156-28.5625-28.558594 0-15.777343 12.789063-28.5625 28.5625-28.5625 15.773438 0 28.5625 12.785157 28.5625 28.5625zm0 0" fill="#ff4755"/><path d="m66.460938 84.769531c0-10.070312 5.214843-18.917969 13.085937-24.003906-4.460937-2.878906-9.769531-4.558594-15.476563-4.558594-15.773437 0-28.5625 12.785157-28.5625 28.5625 0 15.773438 12.789063 28.558594 28.5625 28.558594 5.707032 0 11.015626-1.675781 15.476563-4.558594-7.871094-5.085937-13.085937-13.933593-13.085937-24zm0 0" fill="#fc2b3a"/><path d="m76.164062 238.753906c0 6.679688-5.414062 12.097656-12.09375 12.097656-6.679687 0-12.09375-5.417968-12.09375-12.097656 0-6.679687 5.414063-12.09375 12.09375-12.09375 6.679688 0 12.09375 5.414063 12.09375 12.09375zm0 0" fill="#fc2b3a"/><path d="m76.164062 181.269531c0 6.679688-5.414062 12.09375-12.09375 12.09375-6.679687 0-12.09375-5.414062-12.09375-12.09375 0-6.679687 5.414063-12.09375 12.09375-12.09375 6.679688 0 12.09375 5.414063 12.09375 12.09375zm0 0" fill="#fc2b3a"/><path d="m47.421875 210.011719c0 6.679687-5.414063 12.09375-12.09375 12.09375s-12.097656-5.414063-12.097656-12.09375c0-6.679688 5.417969-12.09375 12.097656-12.09375s12.09375 5.414062 12.09375 12.09375zm0 0" fill="#fc2b3a"/><path d="m104.910156 210.011719c0 6.679687-5.417968 12.09375-12.097656 12.09375s-12.09375-5.414063-12.09375-12.09375c0-6.679688 5.414062-12.09375 12.09375-12.09375s12.097656 5.414062 12.097656 12.09375zm0 0" fill="#fc2b3a"/><path d="m159.566406 238.015625v28.882813c0 3.910156 3.171875 7.082031 7.085938 7.082031h178.695312c3.914063 0 7.085938-3.171875 7.085938-7.082031v-28.882813c-8.464844 0-184.402344 0-192.867188 0zm0 0" fill="#4f66d1"/><path d="m190.273438 266.898438v-28.882813c-16.855469 0-28.664063 0-30.707032 0v28.882813c0 3.914062 3.171875 7.085937 7.085938 7.085937h30.707031c-3.914063 0-7.085937-3.171875-7.085937-7.085937zm0 0" fill="#314dca"/></svg>