<?xml version="1.0" encoding="iso-8859-1"?>
<!-- Generator: Adobe Illustrator 19.0.0, SVG Export Plug-In . SVG Version: 6.00 Build 0)  -->
<svg version="1.1" id="Layer_1" xmlns="http://www.w3.org/2000/svg" xmlns:xlink="http://www.w3.org/1999/xlink" x="0px" y="0px"
	 viewBox="0 0 512 512" style="enable-background:new 0 0 512 512;" xml:space="preserve">
<path style="fill:#3FC8F2;" d="M471.348,84.69c-4.407-0.174-8.501-1.796-11.841-4.69c-3.433-2.976-8.606-2.701-11.703,0.628
	l-81.609,87.663c-2.883,3.097-3.027,7.85-0.339,11.115c2.873,3.488,4.39,7.724,4.39,12.253c0,9.59-7.151,17.803-16.636,19.105
	c-4.179,0.574-7.292,4.144-7.292,8.362V503.56c0,4.662,3.778,8.44,8.44,8.44h116.259c4.662,0,8.44-3.778,8.44-8.44V93.123
	C479.455,88.592,475.876,84.869,471.348,84.69z"/>
<path style="fill:#0DAACE;" d="M471.348,84.69c-4.407-0.174-8.501-1.796-11.841-4.69c-3.433-2.976-8.606-2.701-11.703,0.628
	l-10.546,11.328V512h33.758c4.662,0,8.44-3.778,8.44-8.44V93.123C479.455,88.592,475.876,84.869,471.348,84.69z"/>
<path style="fill:#894BA2;" d="M360.304,212.766c-1.838-1.602-4.273-2.336-6.693-2.002c-0.911,0.124-1.805,0.188-2.658,0.188
	c-4.019,0-7.876-1.23-11.149-3.556c-3.448-2.452-8.182-1.967-11.065,1.13l-73.08,78.503c-2.89,3.104-3.027,7.869-0.323,11.135
	c2.896,3.496,4.428,7.749,4.428,12.297c0,10.637-8.654,19.293-19.293,19.293c-0.178,0-0.354-0.008-0.532-0.015l-0.144-0.006
	c-2.272-0.073-4.507,0.775-6.154,2.366c-1.645,1.59-2.575,3.781-2.575,6.07V503.56c0,4.662,3.779,8.44,8.44,8.44h115.252
	c4.662,0,8.44-3.778,8.44-8.44V219.125C363.196,216.687,362.142,214.368,360.304,212.766z"/>
<path style="fill:#763794;" d="M363.196,503.56V219.125c0-2.438-1.053-4.758-2.891-6.359c-1.838-1.602-4.273-2.336-6.693-2.002
	c-0.911,0.124-1.805,0.188-2.658,0.188c-4.019,0-7.876-1.23-11.149-3.556c-3.448-2.452-8.182-1.967-11.065,1.13l-7.741,8.315V512
	h33.758C359.417,512,363.196,508.222,363.196,503.56z"/>
<path style="fill:#F77935;" d="M239.794,329.73c-10.438-0.357-18.615-8.823-18.615-19.273c0-3.375,0.889-6.699,2.569-9.613
	c2.014-3.493,1.277-7.923-1.76-10.574l-71.127-62.087c-3.403-2.971-8.541-2.733-11.659,0.536c-3.683,3.864-8.642,5.992-13.965,5.992
	c-0.183,0-0.365-0.008-0.546-0.015l-0.146-0.006c-2.273-0.074-4.506,0.778-6.151,2.368c-1.645,1.59-2.574,3.78-2.574,6.069V503.56
	c0,4.662,3.779,8.44,8.44,8.44h115.247c4.661,0,8.44-3.778,8.44-8.44V338.166C247.944,333.618,244.34,329.887,239.794,329.73z"/>
<path style="fill:#D9510D;" d="M239.794,329.73c-10.438-0.357-18.615-8.823-18.615-19.273c0-3.375,0.889-6.699,2.569-9.613
	c2.014-3.493,1.277-7.923-1.76-10.574l-15.115-13.194V512h32.633c4.661,0,8.44-3.778,8.44-8.44V338.166
	C247.944,333.618,244.34,329.887,239.794,329.73z"/>
<path style="fill:#FFDB56;" d="M124.551,234.692c-4.116-0.144-7.998-1.565-11.23-4.108c-1.772-1.396-4.033-2.024-6.269-1.743
	c-2.239,0.28-4.273,1.445-5.647,3.235L2.308,361.177c-1.132,1.474-1.745,3.28-1.745,5.138V503.56c0,4.662,3.779,8.44,8.44,8.44
	h115.255c4.661,0,8.44-3.778,8.44-8.44V243.127C132.697,238.581,129.096,234.85,124.551,234.692z"/>
<path style="fill:#FBA806;" d="M89.732,512h34.526c4.661,0,8.44-3.778,8.44-8.44V243.127c0-4.546-3.602-8.276-8.146-8.434
	c-4.116-0.144-7.998-1.565-11.23-4.108c-1.772-1.396-4.033-2.024-6.269-1.743c-2.239,0.28-4.273,1.445-5.647,3.235l-10.229,13.327
	L89.732,512z"/>
<path style="fill:#808080;" d="M502.998,512H9.002c-4.661,0-8.44-3.778-8.44-8.44V8.44C0.563,3.778,4.341,0,9.002,0
	s8.44,3.778,8.44,8.44v486.681h485.556c4.662,0,8.44,3.778,8.44,8.44S507.66,512,502.998,512z"/>
<path style="fill:#00D9C0;" d="M125.235,179.247c-19.944,0-36.171,16.226-36.171,36.171s16.226,36.172,36.171,36.172
	c19.946,0,36.171-16.226,36.171-36.172S145.181,179.247,125.235,179.247z"/>
<path style="fill:#1EA29F;" d="M125.235,179.247c-3.928,0-7.708,0.638-11.253,1.802c14.451,4.743,24.918,18.353,24.918,34.37
	s-10.467,29.627-24.918,34.37c3.545,1.164,7.324,1.802,11.253,1.802c19.946,0,36.171-16.226,36.171-36.172
	S145.181,179.247,125.235,179.247z"/>
<path style="fill:#00D9C0;" d="M240.47,274.287c-19.946,0-36.172,16.226-36.172,36.172c0,19.945,16.226,36.172,36.172,36.172
	c19.945,0,36.172-16.226,36.172-36.172C276.642,290.513,260.416,274.287,240.47,274.287z"/>
<path style="fill:#1EA29F;" d="M240.47,274.287c-3.928,0-7.708,0.638-11.253,1.802c14.451,4.743,24.919,18.353,24.919,34.37
	c0,16.017-10.468,29.627-24.919,34.37c3.545,1.164,7.324,1.802,11.253,1.802c19.945,0,36.172-16.227,36.172-36.172
	C276.642,290.513,260.416,274.287,240.47,274.287z"/>
<path style="fill:#00D9C0;" d="M350.953,155.488c-19.944,0-36.17,16.226-36.17,36.172s16.226,36.172,36.17,36.172
	c19.945,0,36.172-16.226,36.172-36.172S370.897,155.488,350.953,155.488z"/>
<path style="fill:#1EA29F;" d="M350.953,155.488c-3.928,0-7.708,0.638-11.253,1.802c14.451,4.743,24.918,18.353,24.918,34.37
	s-10.467,29.626-24.918,34.37c3.543,1.164,7.324,1.802,11.253,1.802c19.945,0,36.172-16.226,36.172-36.172
	S370.897,155.488,350.953,155.488z"/>
<path style="fill:#00D9C0;" d="M472.127,29.247c-19.944,0-36.17,16.226-36.17,36.172s16.226,36.172,36.17,36.172
	c19.945,0,36.172-16.226,36.172-36.172S492.073,29.247,472.127,29.247z"/>
<path style="fill:#1EA29F;" d="M472.127,29.247c-3.928,0-7.708,0.638-11.253,1.802c14.451,4.743,24.918,18.353,24.918,34.37
	s-10.468,29.627-24.918,34.37c3.545,1.164,7.324,1.802,11.253,1.802c19.945,0,36.172-16.226,36.172-36.172
	S492.073,29.247,472.127,29.247z"/>
<g>
</g>
<g>
</g>
<g>
</g>
<g>
</g>
<g>
</g>
<g>
</g>
<g>
</g>
<g>
</g>
<g>
</g>
<g>
</g>
<g>
</g>
<g>
</g>
<g>
</g>
<g>
</g>
<g>
</g>
</svg>
