<?xml version="1.0" encoding="UTF-8"?>
<!DOCTYPE svg PUBLIC "-//W3C//DTD SVG 1.1//EN" "http://www.w3.org/Graphics/SVG/1.1/DTD/svg11.dtd">
<!-- Creator: CorelDRAW X6 -->
<svg xmlns="http://www.w3.org/2000/svg" xml:space="preserve" width="34.5017mm" height="34.5017mm" version="1.1" style="shape-rendering:geometricPrecision; text-rendering:geometricPrecision; image-rendering:optimizeQuality; fill-rule:evenodd; clip-rule:evenodd"
viewBox="0 0 5953 5953"
 xmlns:xlink="http://www.w3.org/1999/xlink">
 <defs>
  <style type="text/css">
   <![CDATA[
    .fil0 {fill:none}
    .fil3 {fill:#00B3DB}
    .fil8 {fill:#41D0E2}
    .fil13 {fill:#484B54}
    .fil11 {fill:#66686D}
    .fil10 {fill:#92949B}
    .fil15 {fill:#B5B6BA}
    .fil7 {fill:#B8E9F4}
    .fil14 {fill:#D33333}
    .fil5 {fill:#E5E7E8}
    .fil12 {fill:#EA3D3D}
    .fil4 {fill:#F0F1F1}
    .fil2 {fill:#FF8345}
    .fil1 {fill:#FFC700}
    .fil6 {fill:#FFDA73}
    .fil9 {fill:gray;fill-opacity:0.501961}
   ]]>
  </style>
 </defs>
 <g id="Layer_x0020_1">
  <metadata id="CorelCorpID_0Corel-Layer"/>
  <rect class="fil0" width="5953" height="5953"/>
  <g id="_840573584">
   <path class="fil1" d="M5323 673l-569 0 0 1028 569 0c171,0 311,-139 311,-310l0 -407c0,-172 -140,-311 -311,-311l0 0zm0 0z"/>
   <path class="fil2" d="M5323 1879l-569 0 0 1028 569 0c171,0 311,-139 311,-310l0 -408c0,-171 -140,-310 -311,-310l0 0zm0 0z"/>
   <path class="fil3" d="M5323 3117l-569 0 0 1028 569 0c171,0 311,-140 311,-311l0 -407c0,-171 -140,-310 -311,-310zm0 0z"/>
   <path class="fil4" d="M4692 206l-3759 0c-213,0 -387,173 -387,386l0 4769c0,213 174,386 387,386l3759 0c213,0 387,-173 387,-386l0 -4769c0,-213 -174,-386 -387,-386zm-3407 4634c0,90 -73,162 -162,162 -90,0 -163,-72 -163,-162l0 -391c0,-90 73,-162 163,-162 89,0 162,72 162,162l0 391zm0 -3314c0,89 -73,162 -162,162 -90,0 -163,-73 -163,-162l0 -391c0,-90 73,-162 163,-162 89,0 162,72 162,162l0 391zm0 0z"/>
   <path class="fil5" d="M5079 592l0 4769c0,213 -174,386 -387,386l-1305 0 0 -5541 1305 0c213,0 387,173 387,386zm0 0z"/>
   <path class="fil6" d="M933 206c-213,0 -387,173 -387,386l0 4769c0,213 174,386 387,386l766 0 0 -5541 -766 0zm352 4634c0,90 -73,162 -162,162 -90,0 -163,-72 -163,-162l0 -391c0,-90 73,-162 163,-162 89,0 162,72 162,162l0 391zm0 -3314c0,89 -73,162 -162,162 -90,0 -163,-73 -163,-162l0 -391c0,-90 73,-162 163,-162 89,0 162,72 162,162l0 391zm0 0z"/>
   <g>
    <path class="fil7" d="M4456 1135c0,90 -73,162 -163,162l-1812 0c-89,0 -162,-72 -162,-162 0,-90 73,-162 162,-162l1812 0c90,0 163,72 163,162l0 0zm0 0z"/>
    <path class="fil7" d="M4046 1674c0,90 -73,163 -163,163l-1402 0c-89,0 -162,-73 -162,-163 0,-89 73,-162 162,-162l1402 0c90,0 163,73 163,162zm0 0z"/>
    <path class="fil7" d="M4456 2216c0,89 -73,162 -163,162l-1812 0c-89,0 -162,-73 -162,-162 0,-90 73,-163 162,-163l1812 0c90,0 163,73 163,163l0 0zm0 0z"/>
   </g>
   <path class="fil8" d="M3883 1837l-496 0 0 -325 496 0c90,0 163,73 163,162 0,90 -73,163 -163,163l0 0zm0 0z"/>
   <path class="fil8" d="M4456 2216c0,89 -73,162 -163,162l-906 0 0 -325 906 0c90,0 163,73 163,163l0 0zm0 0z"/>
   <path class="fil8" d="M4293 1297l-906 0 0 -324 906 0c90,0 163,72 163,162 0,90 -73,162 -163,162l0 0zm0 0z"/>
  </g>
  <path class="fil9" d="M3000 1283l922 430c-12,102 44,271 165,327 118,55 248,39 319,-34 15,-14 28,-31 37,-51l448 210 -77 166 -137 293 -242 519 -448 -210c8,-18 13,-37 15,-57 11,-102 -60,-213 -180,-269 -120,-56 -285,9 -356,84l-191 -89 -67 143 -417 895 25 12c33,16 47,55 32,87l-757 1624c-89,191 -314,282 -507,197 -199,-87 -286,-321 -195,-516l760 -1630c16,-33 55,-47 87,-32l26 12 418 -896 67 -143 -203 -94 90 -193c-239,-201 -771,-419 -1183,-447 304,-368 807,-455 1214,-265l247 115 88 -188z"/>
  <g id="_840576432">
   <rect class="fil10" transform="matrix(-0.0511861 0.109769 -0.109769 -0.0511861 3709.81 2368.65)" width="12450" height="4815"/>
   <g>
    <rect class="fil11" transform="matrix(-0.0511861 0.109769 -0.109769 -0.0511861 3341.91 2197.11)" width="12450" height="1463"/>
    <rect class="fil11" transform="matrix(-0.0511861 0.109769 -0.109769 -0.0511861 3709.85 2368.62)" width="2799" height="4815"/>
   </g>
   <path class="fil12" d="M1942 5491c-198,-87 -286,-321 -195,-516l761 -1630c15,-33 54,-47 87,-32l26 12 143 67 0 0 385 179 26 12c33,16 47,55 31,87l-757 1624c-89,191 -314,282 -507,197z"/>
   <g>
    <path class="fil13" d="M3023 1287c-406,-190 -910,-103 -1213,265 411,28 943,246 1183,447l88 -189 190 -408 -1 0c-137,-64 -236,-110 -247,-115z"/>
    <path class="fil13" d="M4237 1696l-402 862 -10 64c71,-75 235,-140 356,-84 119,56 190,167 179,269l11 1 402 -862 -8 -9c-72,73 -201,89 -320,34 -121,-56 -176,-225 -164,-327l-44 52z"/>
   </g>
   <path class="fil14" d="M1942 5491c-198,-87 -286,-321 -195,-516l761 -1630c15,-33 54,-47 87,-32l26 12 143 67 0 0c0,0 -878,1594 -822,2099z"/>
   <path class="fil10" d="M4794 3074l-449 -210c8,-18 13,-37 15,-57l217 -466 137 -293 51 -111c15,-14 27,-31 36,-51l449 210 -78 166 -136 293 -242 519z"/>
   <polygon class="fil15" points="5036,2555 4577,2341 4714,2048 5172,2262 "/>
   <path class="fil10" d="M3358 1214l-87 188 -190 408 -88 189 -90 193 202 94 0 0 528 246 0 1 192 89c8,-18 448,-961 456,-978 0,0 -579,-270 -923,-430z"/>
   <g>
   </g>
   <g>
   </g>
   <g>
   </g>
   <g>
   </g>
   <g>
   </g>
   <g>
   </g>
   <g>
   </g>
   <g>
   </g>
   <g>
   </g>
   <g>
   </g>
   <g>
   </g>
   <g>
   </g>
   <g>
   </g>
   <g>
   </g>
   <g>
   </g>
  </g>
 </g>
</svg>
