<?xml version="1.0" encoding="UTF-8"?>
<!DOCTYPE svg PUBLIC "-//W3C//DTD SVG 1.1//EN" "http://www.w3.org/Graphics/SVG/1.1/DTD/svg11.dtd">
<!-- Creator: CorelDRAW X6 -->
<svg xmlns="http://www.w3.org/2000/svg" xml:space="preserve" width="34.5017mm" height="34.5017mm" version="1.1" style="shape-rendering:geometricPrecision; text-rendering:geometricPrecision; image-rendering:optimizeQuality; fill-rule:evenodd; clip-rule:evenodd"
viewBox="0 0 712 712"
 xmlns:xlink="http://www.w3.org/1999/xlink"
 enable-background="new 0 0 497 497">
 <defs>
  <style type="text/css">
   <![CDATA[
    .fil3 {fill:none}
    .fil0 {fill:#00CCFF}
    .fil2 {fill:#40A6C0}
    .fil5 {fill:#83A3AB}
    .fil6 {fill:#93B7C0}
    .fil4 {fill:#ACD5DF}
    .fil1 {fill:#BFBFBF}
   ]]>
  </style>
    <clipPath id="id0">
     <path d="M651 543l0 -57c0,-3 -2,-5 -5,-6l-35 -6c-3,-12 -8,-23 -14,-34l21 -29c1,-2 1,-5 -1,-7l-41 -41c-1,-2 -4,-2 -7,0l-29 20c-10,-6 -22,-11 -34,-14l-6 -35c0,-3 -3,-5 -5,-5l-58 0c-3,0 -5,2 -5,5l-6 35c-12,3 -24,8 -35,14l-29 -20c-2,-2 -5,-2 -7,0l-41 41c-1,2 -2,5 0,7l21 29c-7,11 -11,22 -15,34l-35 6c-2,1 -4,3 -4,6l0 57c0,3 2,5 4,6l35 6c4,12 8,23 15,34l-21 29c-2,2 -1,5 0,7l41 41c2,2 5,2 7,1l29 -21c11,6 23,11 35,14l6 35c0,3 2,5 5,5l58 0c2,0 5,-2 5,-5l6 -35c12,-3 24,-8 34,-14l29 21c3,1 6,1 8,-1l40 -41c2,-2 2,-5 1,-7l-21 -29c6,-11 11,-22 14,-34l35 -6c3,-1 5,-3 5,-6l0 0zm-185 44c-40,0 -73,-32 -73,-72 0,-41 33,-73 73,-73 40,0 73,32 73,73 0,40 -33,72 -73,72z"/>
    </clipPath>
 </defs>
 <g id="Layer_x0020_1">
  <metadata id="CorelCorpID_0Corel-Layer"/>
  <path class="fil0" d="M593 88l-7 496c-1,42 -35,76 -77,75l-262 -4 -52 0c-43,-1 -76,-36 -76,-78l7 -495c1,-42 36,-76 78,-75l314 4c3,0 5,0 8,1 38,4 68,37 67,76z"/>
  <g id="_1064660560">
   <g style="clip-path:url(#id0)">
    <polygon class="fil1" points="-244,-195 1176,-195 1176,1224 -244,1224 "/>
    <g id="Layer_x0020_1_0">
     <metadata id="CorelCorpID_1Corel-Layer"/>
     <path id="1" class="fil2" d="M593 88l-7 496c-1,42 -35,76 -77,75l-262 -4 -52 0c-43,-1 -76,-36 -76,-78l7 -495c1,-42 36,-76 78,-75l314 4c3,0 5,0 8,1 38,4 68,37 67,76z"/>
     <g>
     </g>
    </g>
   </g>
   <path class="fil3" d="M651 543l0 -57c0,-3 -2,-5 -5,-6l-35 -6c-3,-12 -8,-23 -14,-34l21 -29c1,-2 1,-5 -1,-7l-41 -41c-1,-2 -4,-2 -7,0l-29 20c-10,-6 -22,-11 -34,-14l-6 -35c0,-3 -3,-5 -5,-5l-58 0c-3,0 -5,2 -5,5l-6 35c-12,3 -24,8 -35,14l-29 -20c-2,-2 -5,-2 -7,0l-41 41c-1,2 -2,5 0,7l21 29c-7,11 -11,22 -15,34l-35 6c-2,1 -4,3 -4,6l0 57c0,3 2,5 4,6l35 6c4,12 8,23 15,34l-21 29c-2,2 -1,5 0,7l41 41c2,2 5,2 7,1l29 -21c11,6 23,11 35,14l6 35c0,3 2,5 5,5l58 0c2,0 5,-2 5,-5l6 -35c12,-3 24,-8 34,-14l29 21c3,1 6,1 8,-1l40 -41c2,-2 2,-5 1,-7l-21 -29c6,-11 11,-22 14,-34l35 -6c3,-1 5,-3 5,-6l0 0zm-185 44c-40,0 -73,-32 -73,-72 0,-41 33,-73 73,-73 40,0 73,32 73,73 0,40 -33,72 -73,72z"/>
  </g>
  <g id="_1064660208">
   <path class="fil4" d="M683 541l0 -58c0,-3 -1,-5 -4,-5l-35 -6c-4,-12 -8,-24 -14,-34l20 -29c2,-3 2,-6 0,-8l-41 -40c-2,-2 -5,-3 -7,-1l-29 21c-11,-6 -22,-11 -35,-15l-5 -35c-1,-2 -3,-4 -6,-4l-58 0c-2,0 -5,2 -5,4l-6 35c-12,4 -24,9 -34,15l-29 -21c-2,-2 -6,-1 -7,1l-41 40c-2,2 -2,5 -1,8l21 29c-6,10 -11,22 -14,34l-35 6c-3,0 -5,2 -5,5l0 58c0,3 2,5 5,5l35 6c3,12 8,24 14,35l-21 28c-1,3 -1,6 1,8l41 40c1,2 5,3 7,1l29 -21c10,6 22,11 34,15l6 35c0,2 3,4 5,4l58 0c3,0 5,-2 6,-4l5 -35c13,-4 24,-9 35,-15l29 21c2,2 5,1 7,-1l41 -40c2,-2 2,-5 0,-8l-20 -28c6,-11 10,-23 14,-35l35 -6c3,0 4,-2 4,-5l0 0zm-185 44c-40,0 -72,-33 -72,-73 0,-40 32,-73 72,-73 40,0 73,33 73,73 0,40 -33,73 -73,73z"/>
   <path class="fil5" d="M500 383c70,1 127,58 127,129 0,71 -57,128 -127,129l82 -129 -82 -129z"/>
   <path class="fil6" d="M500 383c58,1 104,59 104,129 0,71 -46,128 -104,129 -1,0 -1,0 -2,0 -71,0 -128,-58 -128,-129 0,-71 57,-129 128,-129 1,0 1,0 2,0zm60 129c0,-34 -28,-61 -62,-61 -34,0 -61,27 -61,61 0,34 27,62 61,62 34,0 62,-28 62,-62z"/>
   <path class="fil4" d="M498 439c-40,0 -72,33 -72,73 0,40 32,73 72,73 40,0 73,-33 73,-73 0,-40 -33,-73 -73,-73zm0 123c-28,0 -50,-22 -50,-50 0,-28 22,-50 50,-50 28,0 51,22 51,50 0,28 -23,50 -51,50z"/>
  </g>
  <rect class="fil3" width="712" height="712"/>
 </g>
</svg>
