<?xml version="1.0" encoding="UTF-8"?>
<!DOCTYPE svg PUBLIC "-//W3C//DTD SVG 1.1//EN" "http://www.w3.org/Graphics/SVG/1.1/DTD/svg11.dtd">
<!-- Creator: CorelDRAW X6 -->
<svg xmlns="http://www.w3.org/2000/svg" xml:space="preserve" width="32.9425mm" height="32.9425mm" version="1.1" style="shape-rendering:geometricPrecision; text-rendering:geometricPrecision; image-rendering:optimizeQuality; fill-rule:evenodd; clip-rule:evenodd"
viewBox="0 0 1163 1163"
 xmlns:xlink="http://www.w3.org/1999/xlink">
 <defs>
  <style type="text/css">
   <![CDATA[
    .fil11 {fill:none}
    .fil8 {fill:#56CAED}
    .fil7 {fill:#86DCFF}
    .fil4 {fill:#87D654}
    .fil3 {fill:#A0E557}
    .fil0 {fill:#BDCDE5}
    .fil6 {fill:#E6485D}
    .fil2 {fill:#EF7F0F}
    .fil5 {fill:#FF5876}
    .fil1 {fill:#FF9517}
    .fil10 {fill:#FFB629}
    .fil9 {fill:#FFCF4D}
   ]]>
  </style>
 </defs>
 <g id="Layer_x0020_1">
  <metadata id="CorelCorpID_0Corel-Layer"/>
  <g id="_1068169968">
   <path class="fil0" d="M909 152l-656 0c-9,0 -17,-8 -17,-17 0,-9 8,-17 17,-17l656 0c10,0 17,8 17,17 0,9 -7,17 -17,17z"/>
   <path class="fil0" d="M874 255l-585 0c-9,0 -17,-7 -17,-16 0,-9 8,-17 17,-17l585 0c9,0 17,8 17,17 0,9 -8,16 -17,16z"/>
   <path class="fil0" d="M813 359l-463 0c-10,0 -17,-7 -17,-16 0,-10 7,-17 17,-17l463 0c9,0 17,7 17,17 0,9 -8,16 -17,16z"/>
   <path class="fil0" d="M813 837l-463 0c-10,0 -17,-8 -17,-17 0,-9 7,-17 17,-17l463 0c9,0 17,8 17,17 0,9 -8,17 -17,17z"/>
   <path class="fil0" d="M716 733l-270 0c-9,0 -16,-8 -16,-17 0,-9 7,-17 16,-17l270 0c9,0 17,8 17,17 0,9 -8,17 -17,17l0 0z"/>
   <path class="fil0" d="M871 941l-579 0c-10,0 -17,-8 -17,-17 0,-9 7,-17 17,-17l579 0c9,0 17,8 17,17 0,9 -8,17 -17,17z"/>
   <path class="fil0" d="M909 1044l-656 0c-9,0 -17,-7 -17,-16 0,-10 8,-17 17,-17l656 0c10,0 17,7 17,17 0,9 -7,16 -17,16z"/>
   <path class="fil0" d="M716 463l-257 0c-10,0 -17,-7 -17,-17 0,-9 7,-16 17,-16l257 0c9,0 17,7 17,16 0,10 -8,17 -17,17l0 0z"/>
   <path class="fil1" d="M280 1095c0,-1 1,-85 41,-183 53,-130 153,-243 278,-313 79,-44 141,-94 195,-161 44,-53 73,-107 99,-172 45,-111 49,-185 49,-189 0,-16 0,-39 -14,-45 -5,-2 -10,-3 -15,-3 -1,0 -1,0 -1,0 -21,0 -39,17 -39,38 0,1 -3,80 -43,178 -52,130 -143,232 -268,302 -78,44 -145,100 -199,166 -44,53 -79,113 -105,178 -44,111 -46,199 -46,203 -1,6 1,11 3,16 6,14 57,28 65,-15l0 0z"/>
   <path class="fil2" d="M230 1114c0,0 0,0 1,0 21,0 38,-17 39,-39 0,-1 2,-80 42,-178 53,-130 143,-232 268,-302 79,-43 146,-99 200,-166 43,-53 78,-113 104,-178 45,-111 47,-199 47,-202 0,-6 -1,-12 -3,-17 14,6 23,20 23,37 0,3 -2,91 -47,202 -26,65 -61,125 -104,178 -54,67 -121,123 -200,166 -125,71 -215,172 -268,302 -40,98 -42,177 -42,178 -1,22 -18,39 -39,39 -1,0 -1,0 -1,0 -16,-1 -29,-10 -35,-24 5,2 10,4 15,4l0 0z"/>
   <path class="fil3" d="M678 115c-8,-19 -27,-32 -48,-32 -22,0 -40,13 -48,32 -3,6 0,52 48,52 48,0 50,-46 48,-52z"/>
   <path class="fil4" d="M630 147c-22,0 -40,-13 -48,-32 -3,6 -4,13 -4,20 0,29 23,52 52,52 29,0 52,-23 52,-52 0,-7 -2,-14 -4,-20 -8,19 -27,32 -48,32z"/>
   <circle class="fil3" transform="matrix(0.163401 -0.163401 0.163401 0.163401 532.594 819.979)" r="225"/>
   <path class="fil4" d="M533 832c-22,0 -40,-13 -48,-32 -3,6 -4,13 -4,20 0,29 23,52 52,52 28,0 52,-23 52,-52 0,-7 -2,-14 -4,-20 -8,19 -27,32 -48,32z"/>
   <path class="fil5" d="M524 219c-8,-19 -27,-32 -48,-32 -22,0 -40,13 -48,32 -3,6 0,52 48,52 48,0 50,-46 48,-52z"/>
   <path class="fil6" d="M476 251c-22,0 -40,-14 -48,-32 -3,6 -4,13 -4,20 0,28 23,52 52,52 28,0 52,-24 52,-52 0,-7 -2,-14 -4,-20 -8,18 -27,32 -48,32z"/>
   <path class="fil5" d="M639 904c8,-19 26,-32 48,-32 21,0 40,13 48,32 2,6 0,52 -48,52 -48,0 -51,-46 -48,-52z"/>
   <path class="fil6" d="M687 936c-22,0 -40,-14 -48,-32 -3,6 -4,13 -4,20 0,28 23,52 52,52 29,0 52,-24 52,-52 0,-7 -2,-14 -4,-20 -8,18 -27,32 -48,32z"/>
   <path class="fil7" d="M700 323c-8,-19 -27,-32 -48,-32 -22,0 -40,13 -48,31 -3,7 0,52 48,52 48,0 50,-45 48,-51z"/>
   <path class="fil8" d="M652 354c-22,0 -40,-13 -48,-31 -3,6 -4,12 -4,20 0,28 23,51 52,51 28,0 52,-23 52,-51 0,-8 -2,-14 -4,-20 -8,18 -27,31 -48,31z"/>
   <path class="fil7" d="M463 1008c8,-19 26,-32 48,-32 21,0 40,13 48,31 2,7 0,52 -48,52 -48,0 -51,-45 -48,-51z"/>
   <path class="fil8" d="M511 1039c-22,0 -40,-13 -48,-31 -3,6 -4,13 -4,20 0,28 23,52 52,52 28,0 52,-24 52,-52 0,-7 -2,-14 -4,-20 -8,18 -27,31 -48,31z"/>
   <path class="fil9" d="M883 1095c0,-1 -2,-85 -41,-183 -53,-130 -154,-243 -279,-313 -78,-44 -140,-94 -195,-161 -43,-53 -73,-107 -99,-172 -44,-111 -48,-185 -48,-189 -1,-16 0,-39 14,-45 4,-2 10,-3 15,-3 0,0 0,0 1,0 21,0 38,17 39,38 0,1 2,80 42,178 53,130 143,232 268,302 79,44 146,100 200,166 43,53 78,113 104,178 45,111 47,199 47,203 0,6 -1,11 -3,16 -6,14 -57,28 -65,-15l0 0z"/>
   <path class="fil10" d="M933 1114c-1,0 -1,0 -1,0 -21,0 -39,-17 -39,-39 0,-1 -3,-80 -42,-178 -53,-130 -143,-232 -269,-302 -78,-43 -145,-99 -199,-166 -44,-53 -79,-113 -105,-178 -44,-111 -46,-199 -46,-202 0,-6 1,-12 3,-17 -14,6 -24,20 -23,37 0,3 2,91 46,202 26,65 61,125 105,178 54,67 121,123 199,166 125,71 216,172 268,302 40,98 43,177 43,178 0,22 18,39 39,39 0,0 0,0 1,0 15,-1 29,-10 35,-24 -5,2 -10,4 -15,4z"/>
  </g>
  <rect class="fil11" width="1163" height="1163"/>
 </g>
</svg>
