<?xml version="1.0" encoding="iso-8859-1"?>
<!-- Generator: Adobe Illustrator 19.0.0, SVG Export Plug-In . SVG Version: 6.00 Build 0)  -->
<svg version="1.1" id="Capa_1" xmlns="http://www.w3.org/2000/svg" xmlns:xlink="http://www.w3.org/1999/xlink" x="0px" y="0px"
	 viewBox="0 0 512 512" style="enable-background:new 0 0 512 512;" xml:space="preserve">
<path style="fill:#3E5959;" d="M511.973,106.008v89.995h-89.995v-89.995c0-24.9,20.098-44.998,44.998-44.998
	S511.973,81.109,511.973,106.008z"/>
<path style="fill:#384949;" d="M511.973,196.003h-44.998V61.01c24.9,0,44.998,20.098,44.998,44.998V196.003z"/>
<path style="fill:#FDBF00;" d="M511.973,196.003v179.991h-89.995V196.003c0-24.9,20.098-44.998,44.998-44.998
	S511.973,171.104,511.973,196.003z"/>
<path style="fill:#FF9F00;" d="M511.973,196.003v179.991h-44.998V151.005C491.875,151.005,511.973,171.104,511.973,196.003z"/>
<path style="fill:#FFCEBF;" d="M511.973,375.994c0-14.4-18.899-36.599-44.998-36.599c-27,0-44.998,23.4-44.998,36.599
	c0,3.6-1.199-1.5,30.899,94.794c1.8,6,7.5,10.2,14.098,10.2c6.599,0,12.298-4.2,14.098-10.2
	C514.073,371.193,511.973,379.293,511.973,375.994z"/>
<path style="fill:#FFBFAB;" d="M481.074,470.789c-1.8,6-7.5,10.2-14.098,10.2V339.395c26.099,0,44.998,22.199,44.998,36.599
	C511.973,379.293,514.073,371.193,481.074,470.789z"/>
<path style="fill:#4A696F;" d="M390.979,105.008v361.981c0,24.898-20.098,44.998-44.998,44.998H44.998
	c-24.9,0-44.998-20.1-44.998-44.998V105.008c0-24.9,20.098-44.998,44.998-44.998h300.984
	C370.881,60.01,390.979,80.109,390.979,105.008z"/>
<path style="fill:#3E5959;" d="M390.979,105.008v361.981c0,24.898-20.098,44.998-44.998,44.998H195.99V60.01h149.992
	C370.881,60.01,390.979,80.109,390.979,105.008z"/>
<path style="fill:#ECECF1;" d="M360.981,105.008v361.981c0,8.399-6.599,14.999-14.999,14.999H44.998
	c-8.401,0-14.999-6.601-14.999-14.999V105.008c0-8.401,6.599-14.999,14.999-14.999h300.984
	C354.382,90.009,360.981,96.608,360.981,105.008z"/>
<path style="fill:#E2E2E7;" d="M360.981,105.008v361.981c0,8.399-6.599,14.999-14.999,14.999H195.99V90.009h149.992
	C354.382,90.009,360.981,96.608,360.981,105.008z"/>
<path style="fill:#4A696F;" d="M172.773,371.981c-3.34,0-6.694-1.113-9.492-3.398l-55.837-45.73
	c-6.401-5.244-7.354-14.691-2.095-21.107c5.229-6.401,14.677-7.354,21.107-2.095l55.837,45.73
	c6.401,5.244,7.354,14.691,2.095,21.107C181.429,370.106,177.124,371.981,172.773,371.981z"/>
<path style="fill:#3E5959;" d="M223.278,378.484c-5.684,0-11.117-3.237-13.651-8.745c-3.457-7.529-0.146-16.435,7.383-19.892
	l63.132-28.987c7.485-3.413,16.42-0.161,19.892,7.383c3.457,7.529,0.146,16.435-7.383,19.892l-63.132,28.987
	C227.497,378.044,225.373,378.484,223.278,378.484z"/>
<path style="fill:#4A696F;" d="M119.427,429.282c-5.508,0-10.795-3.032-13.432-8.291c-3.706-7.412-0.703-16.42,6.709-20.126
	l49.743-24.872c7.397-3.677,16.391-0.703,20.126,6.709c3.706,7.412,0.703,16.42-6.709,20.126L126.12,427.7
	C123.967,428.77,121.682,429.282,119.427,429.282z"/>
<g>
	<path style="fill:#00EED0;" d="M330.983,166.005c0,8.399-6.599,14.999-14.999,14.999H75.996c-8.401,0-14.999-6.601-14.999-14.999
		c0-8.401,6.599-14.999,14.999-14.999h239.987C324.384,151.005,330.983,157.605,330.983,166.005z"/>
	<path style="fill:#00EED0;" d="M270.986,226.001c0,8.399-6.599,14.999-14.999,14.999H75.996c-8.401,0-14.999-6.601-14.999-14.999
		c0-8.401,6.599-14.999,14.999-14.999h179.991C264.387,211.002,270.986,217.602,270.986,226.001z"/>
</g>
<path style="fill:#A44F3E;" d="M255.987,30.012h-17.7c-5.999-17.4-22.797-29.998-42.297-29.998s-36.299,12.598-42.297,29.998h-17.7
	c-24.9,0-44.998,20.098-44.998,44.998v29.998c0,8.399,6.599,14.999,14.999,14.999h179.991c8.401,0,14.999-6.601,14.999-14.999
	V75.009C300.984,50.111,280.886,30.012,255.987,30.012z"/>
<path style="fill:#00CCB2;" d="M270.986,226.001c0,8.399-6.599,14.999-14.999,14.999H195.99v-29.998h59.997
	C264.387,211.002,270.986,217.602,270.986,226.001z"/>
<path style="fill:#883F2E;" d="M285.985,120.007H195.99V0.013c19.5,0,36.299,12.598,42.297,29.998h17.7
	c24.9,0,44.998,20.098,44.998,44.998v29.998C300.984,113.406,294.385,120.007,285.985,120.007z"/>
<path style="fill:#00CCB2;" d="M330.983,166.005c0,8.399-6.599,14.999-14.999,14.999H195.99v-29.998h119.994
	C324.384,151.005,330.983,157.605,330.983,166.005z"/>
<g>
	<path style="fill:#00EED0;" d="M105.994,330.996c-16.537,0-29.998-13.461-29.998-29.998c0-16.537,13.461-29.998,29.998-29.998
		s29.998,13.461,29.998,29.998C135.993,317.535,122.532,330.996,105.994,330.996z"/>
	<path style="fill:#00EED0;" d="M105.994,450.99c-16.537,0-29.998-13.461-29.998-29.998c0-16.537,13.461-29.998,29.998-29.998
		s29.998,13.461,29.998,29.998C135.993,437.528,122.532,450.99,105.994,450.99z"/>
</g>
<path style="fill:#00CCB2;" d="M300.984,360.994c-16.537,0-29.998-13.461-29.998-29.998s13.461-29.998,29.998-29.998
	c16.537,0,29.998,13.461,29.998,29.998S317.521,360.994,300.984,360.994z"/>
<path style="fill:#B760EA;" d="M195.99,330.996c-24.9,0-44.998,20.098-44.998,44.998c0,24.898,20.098,44.998,44.998,44.998
	s44.998-20.1,44.998-44.998C240.987,351.095,220.889,330.996,195.99,330.996z"/>
<path style="fill:#8B3CBA;" d="M240.987,375.994c0,24.898-20.098,44.998-44.998,44.998v-89.995
	C220.889,330.996,240.987,351.095,240.987,375.994z"/>
<g>
</g>
<g>
</g>
<g>
</g>
<g>
</g>
<g>
</g>
<g>
</g>
<g>
</g>
<g>
</g>
<g>
</g>
<g>
</g>
<g>
</g>
<g>
</g>
<g>
</g>
<g>
</g>
<g>
</g>
</svg>
