<?xml version="1.0" encoding="UTF-8"?>
<!DOCTYPE svg PUBLIC "-//W3C//DTD SVG 1.1//EN" "http://www.w3.org/Graphics/SVG/1.1/DTD/svg11.dtd">
<!-- Creator: CorelDRAW X6 -->
<svg xmlns="http://www.w3.org/2000/svg" xml:space="preserve" width="84.8412mm" height="74.3463mm" version="1.1" style="shape-rendering:geometricPrecision; text-rendering:geometricPrecision; image-rendering:optimizeQuality; fill-rule:evenodd; clip-rule:evenodd"
viewBox="0 0 3629 3180"
 xmlns:xlink="http://www.w3.org/1999/xlink">
 <defs>
  <style type="text/css">
   <![CDATA[
    .fil7 {fill:none}
    .fil2 {fill:#00CCFF}
    .fil6 {fill:#40A6C0}
    .fil11 {fill:#484B54}
    .fil9 {fill:#66686D}
    .fil8 {fill:#92949B}
    .fil5 {fill:#B1954E}
    .fil13 {fill:#B5B6BA}
    .fil4 {fill:#BEA55C}
    .fil3 {fill:#BFBFBF}
    .fil12 {fill:#D33333}
    .fil1 {fill:#E2A91B}
    .fil10 {fill:#EA3D3D}
    .fil0 {fill:#FCC938}
   ]]>
  </style>
   <clipPath id="id0">
    <path d="M2580 1110l284 285c-18,36 -20,106 17,143 37,37 87,48 123,31 8,-3 15,-8 21,-14l138 139 -51 51 -90 90 -161 160 -138 -138c6,-6 10,-12 13,-19 18,-37 7,-88 -30,-125 -37,-37 -107,-35 -144,-17l-59 -59 -44 45 -276 276 8 8c10,10 10,26 0,37l-501 501c-59,59 -155,62 -215,4 -62,-59 -63,-158 -3,-218l503 -503c10,-10 27,-10 37,0l8 8 276 -276 44 -45 -62 -62 59 -60c-61,-107 -230,-260 -379,-326 163,-95 362,-60 487,66l76 76 0 0 59 -58z"/>
   </clipPath>
 </defs>
 <g id="Layer_x0020_1">
  <metadata id="CorelCorpID_0Corel-Layer"/>
  <g id="_1076289760">
   <path class="fil0" d="M2534 2414l-1316 533 -14 5c-159,66 -341,-9 -407,-168l-773 -1863c-66,-159 9,-341 168,-407l1181 -490c159,-66 341,9 407,168l93 200 550 1178 111 844z"/>
   <path class="fil1" d="M2534 2414l-1316 533 -52 -16c-165,-50 -258,-223 -208,-388l582 -1931c44,-147 187,-236 333,-220l550 1178 111 844z"/>
   <path class="fil2" d="M3616 1027l-583 1932c-49,164 -223,258 -387,208l-1022 -308 -203 -61c-164,-50 -258,-224 -208,-388l583 -1932c49,-164 223,-257 387,-208l1225 370c11,3 22,7 32,12 144,61 222,222 176,375z"/>
   <g>
   </g>
   <g>
   </g>
   <g>
   </g>
   <g>
   </g>
   <g>
   </g>
   <g>
   </g>
   <g>
   </g>
   <g>
   </g>
   <g>
   </g>
   <g>
   </g>
   <g>
   </g>
   <g>
   </g>
   <g>
   </g>
   <g>
   </g>
   <g>
   </g>
  </g>
  <g style="clip-path:url(#id0)">
   <polygon class="fil3" points="341,-115 4250,-115 4250,3636 341,3636 "/>
   <g id="Layer_x0020_1_0">
    <metadata id="CorelCorpID_1Corel-Layer"/>
    <g id="_1076289760">
     <path id="1" class="fil4" d="M2534 2414l-1316 533 -14 5c-159,66 -341,-9 -407,-168l-773 -1863c-66,-159 9,-341 168,-407l1181 -490c159,-66 341,9 407,168l93 200 550 1178 111 844z"/>
     <path class="fil5" d="M2534 2414l-1316 533 -52 -16c-165,-50 -258,-223 -208,-388l582 -1931c44,-147 187,-236 333,-220l550 1178 111 844z"/>
     <path class="fil6" d="M3616 1027l-583 1932c-49,164 -223,258 -387,208l-1022 -308 -203 -61c-164,-50 -258,-224 -208,-388l583 -1932c49,-164 223,-257 387,-208l1225 370c11,3 22,7 32,12 144,61 222,222 176,375z"/>
     <g>
     </g>
     <g>
     </g>
     <g>
     </g>
     <g>
     </g>
     <g>
     </g>
     <g>
     </g>
     <g>
     </g>
     <g>
     </g>
     <g>
     </g>
     <g>
     </g>
     <g>
     </g>
     <g>
     </g>
     <g>
     </g>
     <g>
     </g>
     <g>
     </g>
    </g>
   </g>
  </g>
  <path class="fil7" d="M2580 1110l284 285c-18,36 -20,106 17,143 37,37 87,48 123,31 8,-3 15,-8 21,-14l138 139 -51 51 -90 90 -161 160 -138 -138c6,-6 10,-12 13,-19 18,-37 7,-88 -30,-125 -37,-37 -107,-35 -144,-17l-59 -59 -44 45 -276 276 8 8c10,10 10,26 0,37l-501 501c-59,59 -155,62 -215,4 -62,-59 -63,-158 -3,-218l503 -503c10,-10 27,-10 37,0l8 8 276 -276 44 -45 -62 -62 59 -60c-61,-107 -230,-260 -379,-326 163,-95 362,-60 487,66l76 76 0 0 59 -58z"/>
  <g id="_1072525824">
   <rect class="fil8" transform="matrix(-0.136639 0.136639 -0.136639 -0.136639 2707.55 1538.39)" width="3087" height="1194"/>
   <g>
    <rect class="fil9" transform="matrix(-0.136639 0.136639 -0.136639 -0.136639 2594.01 1424.86)" width="3087" height="363"/>
    <rect class="fil9" transform="matrix(-0.136639 0.136639 -0.136639 -0.136639 2707.57 1538.38)" width="694" height="1194"/>
   </g>
   <path class="fil10" d="M1628 2460c-62,-59 -63,-158 -2,-218l503 -503c10,-11 26,-11 36,0l8 7 45 45 0 0 118 119 8 7c10,11 10,27 0,37l-501 501c-59,59 -155,62 -215,5z"/>
   <g>
    <path class="fil11" d="M2599 1043c-126,-125 -325,-161 -487,-65 149,66 317,219 379,326l58 -58 126 -126 0 0c-42,-43 -73,-73 -76,-77z"/>
    <path class="fil11" d="M2994 1360l-266 266 -12 22c36,-18 106,-20 144,17 37,37 48,88 30,124l4 2 266 -266 -2 -4c-36,17 -87,6 -123,-31 -38,-37 -36,-107 -17,-144l-24 14z"/>
   </g>
   <path class="fil12" d="M1628 2460c-62,-59 -63,-158 -2,-218l503 -503c10,-11 26,-11 36,0l8 7 45 45 0 0c0,0 -543,474 -590,669z"/>
   <path class="fil8" d="M3015 1947l-138 -138c5,-6 10,-13 13,-20l144 -144 90 -90 34 -34c8,-4 14,-8 20,-14l139 138 -51 51 -91 91 -160 160z"/>
   <polygon class="fil13" points="3175,1787 3034,1645 3124,1555 3266,1696 "/>
   <path class="fil8" d="M2733 1062l-58 58 -126 126 -58 58 -59 60 62 62 0 0 163 163 0 0 59 59c6,-5 296,-296 302,-302 0,0 -179,-178 -285,-284z"/>
   <g>
   </g>
   <g>
   </g>
   <g>
   </g>
   <g>
   </g>
   <g>
   </g>
   <g>
   </g>
   <g>
   </g>
   <g>
   </g>
   <g>
   </g>
   <g>
   </g>
   <g>
   </g>
   <g>
   </g>
   <g>
   </g>
   <g>
   </g>
   <g>
   </g>
  </g>
 </g>
</svg>
