<?xml version="1.0" encoding="UTF-8"?>
<!DOCTYPE svg PUBLIC "-//W3C//DTD SVG 1.1//EN" "http://www.w3.org/Graphics/SVG/1.1/DTD/svg11.dtd">
<!-- Creator: CorelDRAW X6 -->
<svg xmlns="http://www.w3.org/2000/svg" xml:space="preserve" width="32.9425mm" height="32.9425mm" version="1.1" style="shape-rendering:geometricPrecision; text-rendering:geometricPrecision; image-rendering:optimizeQuality; fill-rule:evenodd; clip-rule:evenodd"
viewBox="0 0 672 672"
 xmlns:xlink="http://www.w3.org/1999/xlink">
 <defs>
  <style type="text/css">
   <![CDATA[
    .fil12 {fill:none}
    .fil0 {fill:#00CCFF}
    .fil9 {fill:#56CAED}
    .fil8 {fill:#86DCFF}
    .fil5 {fill:#87D654}
    .fil4 {fill:#A0E557}
    .fil1 {fill:#BDCDE5}
    .fil7 {fill:#E6485D}
    .fil3 {fill:#EF7F0F}
    .fil6 {fill:#FF5876}
    .fil2 {fill:#FF9517}
    .fil11 {fill:#FFB629}
    .fil10 {fill:#FFCF4D}
   ]]>
  </style>
 </defs>
 <g id="Layer_x0020_1">
  <metadata id="CorelCorpID_0Corel-Layer"/>
  <path class="fil0" d="M570 95l-7 489c0,42 -35,75 -76,75l-259 -4 -52 -1c-41,0 -75,-35 -74,-76l7 -490c0,-42 35,-75 76,-74l311 4c3,0 5,0 8,1 38,4 67,37 66,76z"/>
  <g id="_1073783888">
   <path class="fil1" d="M501 120l-330 0c-4,0 -8,-3 -8,-8 0,-5 4,-9 8,-9l330 0c5,0 8,4 8,9 0,5 -3,8 -8,8z"/>
   <path class="fil1" d="M483 172l-294 0c-4,0 -8,-3 -8,-8 0,-5 4,-8 8,-8l294 0c5,0 8,3 8,8 0,5 -3,8 -8,8z"/>
   <path class="fil1" d="M452 225l-232 0c-5,0 -9,-4 -9,-9 0,-4 4,-8 9,-8l232 0c5,0 9,4 9,8 0,5 -4,9 -9,9z"/>
   <path class="fil1" d="M452 464l-232 0c-5,0 -9,-3 -9,-8 0,-5 4,-8 9,-8l232 0c5,0 9,3 9,8 0,5 -4,8 -9,8z"/>
   <path class="fil1" d="M404 412l-136 0c-4,0 -8,-4 -8,-8 0,-5 4,-9 8,-9l136 0c4,0 8,4 8,9 0,4 -4,8 -8,8l0 0z"/>
   <path class="fil1" d="M482 517l-291 0c-5,0 -9,-4 -9,-9 0,-5 4,-8 9,-8l291 0c4,0 8,3 8,8 0,5 -4,9 -8,9z"/>
   <path class="fil1" d="M501 569l-330 0c-4,0 -8,-4 -8,-9 0,-4 4,-8 8,-8l330 0c5,0 8,4 8,8 0,5 -3,9 -8,9z"/>
   <path class="fil1" d="M404 277l-130 0c-4,0 -8,-4 -8,-9 0,-4 4,-8 8,-8l130 0c4,0 8,4 8,8 0,5 -4,9 -8,9l0 0z"/>
   <path class="fil2" d="M185 594c0,0 0,-43 20,-92 27,-65 77,-122 140,-157 39,-22 71,-47 98,-81 22,-26 37,-54 50,-86 22,-56 24,-93 24,-95 0,-8 0,-20 -7,-23 -2,-1 -5,-1 -7,-1 -1,0 -1,0 -1,0 -11,0 -19,8 -20,19 0,0 -1,40 -21,89 -26,66 -72,117 -135,152 -39,22 -73,50 -100,83 -22,27 -39,57 -52,90 -22,56 -24,100 -24,102 0,2 1,5 2,8 3,7 29,14 33,-8l0 0z"/>
   <path class="fil3" d="M160 603c0,0 0,0 0,0 11,0 19,-8 20,-19 0,0 1,-40 21,-89 26,-66 72,-117 135,-152 39,-22 73,-50 100,-83 22,-27 39,-57 52,-90 23,-55 24,-100 24,-101 0,-3 -1,-6 -2,-9 7,3 12,10 12,19 0,2 -1,46 -24,101 -13,33 -30,63 -52,90 -27,33 -61,61 -100,83 -63,35 -109,86 -135,152 -20,49 -21,89 -21,89 -1,11 -9,20 -20,20 0,0 0,0 0,0 -8,-1 -15,-5 -18,-12 2,1 5,1 8,1l0 0z"/>
   <path class="fil4" d="M385 102c-4,-10 -14,-16 -25,-16 -10,0 -20,6 -24,16 -1,3 0,26 24,26 25,0 26,-23 25,-26z"/>
   <path class="fil5" d="M360 118c-10,0 -20,-7 -24,-16 -1,3 -2,6 -2,10 0,14 12,26 26,26 15,0 27,-12 27,-26 0,-4 -1,-7 -2,-10 -4,9 -14,16 -25,16z"/>
   <circle class="fil4" transform="matrix(0.141957 -0.141957 0.141957 0.141957 311.615 455.961)" r="130"/>
   <path class="fil5" d="M312 462c-11,0 -20,-7 -24,-16 -2,3 -2,6 -2,10 0,14 11,26 26,26 14,0 26,-12 26,-26 0,-4 -1,-7 -2,-10 -4,9 -13,16 -24,16z"/>
   <path class="fil6" d="M307 154c-4,-9 -13,-16 -24,-16 -11,0 -20,7 -24,16 -1,3 0,26 24,26 24,0 25,-23 24,-26z"/>
   <path class="fil7" d="M283 170c-11,0 -20,-7 -24,-16 -1,3 -2,6 -2,10 0,14 12,26 26,26 14,0 26,-12 26,-26 0,-4 -1,-7 -2,-10 -4,9 -13,16 -24,16z"/>
   <path class="fil6" d="M365 498c4,-9 13,-16 24,-16 11,0 20,7 24,16 1,3 0,26 -24,26 -24,0 -25,-23 -24,-26z"/>
   <path class="fil7" d="M389 514c-11,0 -20,-7 -24,-16 -1,3 -2,7 -2,10 0,15 12,26 26,26 15,0 26,-11 26,-26 0,-3 -1,-7 -2,-10 -4,9 -13,16 -24,16z"/>
   <path class="fil8" d="M396 206c-4,-9 -14,-16 -25,-16 -10,0 -20,7 -24,16 -1,3 0,26 24,26 25,0 26,-23 25,-26z"/>
   <path class="fil9" d="M371 222c-10,0 -20,-7 -24,-16 -1,3 -2,7 -2,10 0,15 12,26 26,26 15,0 27,-11 27,-26 0,-3 -1,-7 -2,-10 -4,9 -14,16 -25,16z"/>
   <path class="fil8" d="M277 550c4,-9 13,-16 24,-16 10,0 20,7 24,16 1,3 0,26 -24,26 -24,0 -26,-23 -24,-26z"/>
   <path class="fil9" d="M301 566c-11,0 -20,-6 -24,-16 -2,3 -2,7 -2,10 0,15 11,26 26,26 14,0 26,-11 26,-26 0,-3 -1,-7 -2,-10 -4,10 -14,16 -24,16z"/>
   <path class="fil10" d="M488 594c-1,0 -1,-43 -21,-92 -27,-65 -77,-122 -140,-157 -39,-22 -71,-47 -98,-81 -22,-26 -37,-54 -50,-86 -22,-56 -24,-93 -24,-95 0,-8 0,-20 7,-23 2,-1 5,-1 8,-1 0,0 0,0 0,0 11,0 19,8 20,19 0,0 1,40 21,89 26,66 72,117 135,152 39,22 73,50 100,83 22,27 39,57 52,90 23,56 24,100 24,102 0,2 -1,5 -2,8 -3,7 -29,14 -32,-8l0 0z"/>
   <path class="fil11" d="M513 603c-1,0 -1,0 -1,0 -10,0 -19,-8 -19,-19 0,0 -2,-40 -22,-89 -26,-66 -72,-117 -134,-152 -40,-22 -73,-50 -101,-83 -21,-27 -39,-57 -52,-90 -22,-55 -24,-100 -24,-101 0,-3 1,-6 2,-9 -7,3 -12,10 -12,19 0,1 2,46 24,101 13,33 31,63 52,90 28,33 61,61 100,83 63,35 109,86 135,152 20,49 21,89 21,89 1,11 9,20 20,20 0,0 0,0 1,0 7,-1 14,-5 17,-12 -2,1 -5,1 -7,1z"/>
  </g>
  <rect class="fil12" width="672" height="672"/>
 </g>
</svg>
