<?xml version="1.0" encoding="UTF-8"?>
<!DOCTYPE svg PUBLIC "-//W3C//DTD SVG 1.1//EN" "http://www.w3.org/Graphics/SVG/1.1/DTD/svg11.dtd">
<!-- Creator: CorelDRAW X6 -->
<svg xmlns="http://www.w3.org/2000/svg" xml:space="preserve" width="32.9425mm" height="32.9425mm" version="1.1" style="shape-rendering:geometricPrecision; text-rendering:geometricPrecision; image-rendering:optimizeQuality; fill-rule:evenodd; clip-rule:evenodd"
viewBox="0 0 11594 11594"
 xmlns:xlink="http://www.w3.org/1999/xlink">
 <defs>
  <style type="text/css">
   <![CDATA[
    .fil5 {fill:none}
    .fil6 {fill:#A9ABAE}
    .fil2 {fill:#D2D3D5}
    .fil8 {fill:#006497}
    .fil4 {fill:#0098CB}
    .fil1 {fill:#00CCFF}
    .fil7 {fill:#970097}
    .fil3 {fill:#CB00CB}
    .fil9 {fill:#FCC938}
    .fil0 {fill:fuchsia}
   ]]>
  </style>
    <clipPath id="id0">
     <path d="M5846 1951l1645 6870c140,585 -170,1160 -691,1283l-2648 625 -100 -2 -833 -13c-676,-10 -1215,-601 -1205,-1320l102 -7682 2531 -597c36,-9 72,-15 107,-18 486,-53 961,309 1092,854z"/>
    </clipPath>
    <clipPath id="id1">
     <path d="M7145 10774l-1999 -570c-212,-60 -424,-121 -636,-182 -516,-147 -802,-735 -639,-1315 638,-2266 1277,-4533 1915,-6799 163,-579 713,-930 1228,-783l2569 732 -102 7650c-10,719 -565,1294 -1240,1284l-1096 -17z"/>
    </clipPath>
    <clipPath id="id2">
     <path d="M5703 10363l-557 -159c-212,-60 -424,-121 -636,-182 -516,-147 -802,-735 -639,-1315 638,-2266 1277,-4533 1915,-6799 7,-27 15,-52 24,-78 14,39 26,80 36,121l1645 6870c140,585 -170,1160 -691,1283l-1097 259z"/>
    </clipPath>
 </defs>
 <g id="Layer_x0020_1">
  <metadata id="CorelCorpID_0Corel-Layer"/>
  <g id="_898176912">
   <path class="fil0" d="M11490 3534c-638,2267 -1276,4533 -1915,6800 -163,579 -713,930 -1228,783 -1067,-305 -2134,-609 -3201,-913 -212,-60 -424,-121 -636,-182 -516,-147 -802,-735 -639,-1315 638,-2266 1277,-4533 1915,-6799 163,-579 713,-930 1228,-783 1279,365 2559,729 3838,1094 35,10 69,22 102,37 450,190 688,738 536,1278z"/>
   <path class="fil1" d="M5846 1951l1645 6870c140,585 -170,1160 -691,1283l-3239 764 -645 152c-522,123 -1058,-251 -1198,-837l-1645 -6870c-140,-585 169,-1159 691,-1282l3883 -916c36,-9 72,-15 107,-18 486,-53 961,309 1092,854z"/>
   <g style="clip-path:url(#id0)">
    <polygon class="fil2" points="-6926,-7848 16464,-7848 16464,19668 -6926,19668 "/>
    <g id="Layer_x0020_1_0">
     <metadata id="CorelCorpID_1Corel-Layer"/>
     <g>
      <path id="1" class="fil3" d="M11490 3534c-638,2267 -1276,4533 -1915,6800 -163,579 -713,930 -1228,783 -1067,-305 -2134,-609 -3201,-913 -212,-60 -424,-121 -636,-182 -516,-147 -802,-735 -639,-1315 638,-2266 1277,-4533 1915,-6799 163,-579 713,-930 1228,-783 1279,365 2559,729 3838,1094 35,10 69,22 102,37 450,190 688,738 536,1278z"/>
      <path class="fil4" d="M5846 1951l1645 6870c140,585 -170,1160 -691,1283l-3239 764 -645 152c-522,123 -1058,-251 -1198,-837l-1645 -6870c-140,-585 169,-1159 691,-1282l3883 -916c36,-9 72,-15 107,-18 486,-53 961,309 1092,854z"/>
     </g>
    </g>
   </g>
   <path class="fil5" d="M5846 1951l1645 6870c140,585 -170,1160 -691,1283l-2648 625 -100 -2 -833 -13c-676,-10 -1215,-601 -1205,-1320l102 -7682 2531 -597c36,-9 72,-15 107,-18 486,-53 961,309 1092,854z"/>
   <g style="clip-path:url(#id1)">
    <polygon class="fil2" points="-5114,-7848 18522,-7848 18522,19730 -5114,19730 "/>
    <g id="Layer_x0020_1_1">
     <metadata id="CorelCorpID_2Corel-Layer"/>
     <g>
      <path id="1" class="fil3" d="M11490 3534c-638,2267 -1276,4533 -1915,6800 -163,579 -713,930 -1228,783 -1067,-305 -2134,-609 -3201,-913 -212,-60 -424,-121 -636,-182 -516,-147 -802,-735 -639,-1315 638,-2266 1277,-4533 1915,-6799 163,-579 713,-930 1228,-783 1279,365 2559,729 3838,1094 35,10 69,22 102,37 450,190 688,738 536,1278z"/>
      <path class="fil4" d="M5846 1951l1645 6870c140,585 -170,1160 -691,1283l-3239 764 -645 152c-522,123 -1058,-251 -1198,-837l-1645 -6870c-140,-585 169,-1159 691,-1282l3883 -916c36,-9 72,-15 107,-18 486,-53 961,309 1092,854z"/>
      <path class="fil5" d="M5846 1951l1645 6870c140,585 -170,1160 -691,1283l-2648 625 -100 -2 -833 -13c-676,-10 -1215,-601 -1205,-1320l102 -7682 2531 -597c36,-9 72,-15 107,-18 486,-53 961,309 1092,854z"/>
     </g>
    </g>
   </g>
   <path class="fil5" d="M7145 10774l-1999 -570c-212,-60 -424,-121 -636,-182 -516,-147 -802,-735 -639,-1315 638,-2266 1277,-4533 1915,-6799 163,-579 713,-930 1228,-783l2569 732 -102 7650c-10,719 -565,1294 -1240,1284l-1096 -17z"/>
   <g style="clip-path:url(#id2)">
    <polygon id="1" class="fil6" points="-5231,-7109 16570,-7109 16570,19302 -5231,19302 "/>
    <g id="Layer_x0020_1_2">
     <metadata id="CorelCorpID_3Corel-Layer"/>
     <g>
      <path id="2" class="fil7" d="M11490 3534c-638,2267 -1276,4533 -1915,6800 -163,579 -713,930 -1228,783 -1067,-305 -2134,-609 -3201,-913 -212,-60 -424,-121 -636,-182 -516,-147 -802,-735 -639,-1315 638,-2266 1277,-4533 1915,-6799 163,-579 713,-930 1228,-783 1279,365 2559,729 3838,1094 35,10 69,22 102,37 450,190 688,738 536,1278z"/>
      <path class="fil8" d="M5846 1951l1645 6870c140,585 -170,1160 -691,1283l-3239 764 -645 152c-522,123 -1058,-251 -1198,-837l-1645 -6870c-140,-585 169,-1159 691,-1282l3883 -916c36,-9 72,-15 107,-18 486,-53 961,309 1092,854z"/>
      <path class="fil5" d="M5846 1951l1645 6870c140,585 -170,1160 -691,1283l-2648 625 -100 -2 -833 -13c-676,-10 -1215,-601 -1205,-1320l102 -7682 2531 -597c36,-9 72,-15 107,-18 486,-53 961,309 1092,854z"/>
     </g>
    </g>
   </g>
   <path class="fil5" d="M7145 10774l-1999 -570c-212,-60 -424,-121 -636,-182 -516,-147 -802,-735 -639,-1315 638,-2266 1277,-4533 1915,-6799 163,-579 713,-930 1228,-783l2569 732 -102 7650c-10,719 -565,1294 -1240,1284l-1096 -17z"/>
   <path class="fil0" d="M5703 10363l-557 -159c-212,-60 -424,-121 -636,-182 -516,-147 -802,-735 -639,-1315 638,-2266 1277,-4533 1915,-6799 7,-27 15,-52 24,-78 14,39 26,80 36,121l1645 6870c140,585 -170,1160 -691,1283l-1097 259z"/>
   <rect class="fil5" width="11594" height="11594"/>
   <path class="fil9" d="M9141 1376l-99 7848c-8,669 -498,1203 -1094,1194l-3697 -59 -735 -12c-596,-9 -1072,-559 -1064,-1228l100 -7848c8,-669 498,-1203 1093,-1194l4433 71c41,1 81,4 120,10 538,75 951,595 943,1218z"/>
  </g>
 </g>
</svg>
