<?xml version="1.0" encoding="iso-8859-1"?>
<!-- Generator: Adobe Illustrator 19.0.0, SVG Export Plug-In . SVG Version: 6.00 Build 0)  -->
<svg version="1.1" id="Layer_1" xmlns="http://www.w3.org/2000/svg" xmlns:xlink="http://www.w3.org/1999/xlink" x="0px" y="0px"
	 viewBox="0 0 512 512" style="enable-background:new 0 0 512 512;" xml:space="preserve">
<path style="fill:#49C158;" d="M418.618,452.231l-251.005-71.217c-9.25-2.624-14.62-12.25-11.996-21.5l71.217-251.005
	c2.624-9.25,12.25-14.62,21.5-11.996l251.006,71.217c9.25,2.624,14.62,12.25,11.996,21.5l-71.217,251.006
	C437.492,449.485,427.866,454.856,418.618,452.231z"/>
<path style="fill:#E44F50;" d="M93.382,452.231l251.005-71.217c9.25-2.624,14.62-12.25,11.996-21.5l-71.218-251.006
	c-2.624-9.25-12.25-14.62-21.5-11.996L12.661,167.731c-9.25,2.624-14.62,12.25-11.996,21.5l71.217,251.006
	C74.507,449.485,84.132,454.856,93.382,452.231z"/>
<path style="fill:#00AF64;" d="M426.497,421.563V147.064L248.333,96.513c-9.25-2.624-18.874,2.746-21.5,11.996l-71.217,251.005
	c-2.624,9.25,2.746,18.874,11.996,21.5l213.662,60.622h25.15C417.51,441.636,426.497,432.648,426.497,421.563z"/>
<path style="fill:#DD263D;" d="M285.165,108.509c-2.624-9.25-12.25-14.62-21.5-11.996L85.502,147.064v274.499
	c0,11.086,8.987,20.073,20.073,20.073h25.15l213.662-60.622c9.25-2.624,14.62-12.25,11.996-21.5L285.165,108.509z"/>
<path style="fill:#F5BA3D;" d="M386.456,414.441H125.543c-9.614,0-17.409-7.794-17.409-17.409V76.512
	c0-9.614,7.794-17.409,17.409-17.409h260.913c9.614,0,17.409,7.794,17.409,17.409v320.521
	C403.865,406.647,396.07,414.441,386.456,414.441z"/>
<g>
</g>
<g>
</g>
<g>
</g>
<g>
</g>
<g>
</g>
<g>
</g>
<g>
</g>
<g>
</g>
<g>
</g>
<g>
</g>
<g>
</g>
<g>
</g>
<g>
</g>
<g>
</g>
<g>
</g>
</svg>
