<svg id="Layer_1" enable-background="new 0 0 512 512" height="512" viewBox="0 0 512 512" width="512" xmlns="http://www.w3.org/2000/svg"><path d="m411.785 0h-311.57c-16.649 0-30.194 13.545-30.194 30.195v451.61c0 16.649 13.545 30.195 30.195 30.195h311.569c16.649 0 30.195-13.545 30.195-30.195v-451.61c-.001-16.65-13.546-30.195-30.195-30.195z" fill="#fff5f4"/><path d="m411.785 0h-311.57c-16.676 0-30.194 13.519-30.194 30.195v451.61c0 16.676 13.519 30.195 30.195 30.195h24.805v-400.708c0-8.446 6.846-15.292 15.292-15.292h231.375c8.446 0 15.292 6.846 15.292 15.292v400.708h24.805c16.676 0 30.195-13.519 30.195-30.195v-451.61c-.001-16.676-13.519-30.195-30.195-30.195zm-136.541 63h-38.487c-8.284 0-15-6.716-15-15s6.716-15 15-15h38.487c8.284 0 15 6.716 15 15s-6.716 15-15 15z" fill="#efe2db"/><path d="m411.785 0h-155.785v512h155.785c16.649 0 30.195-13.545 30.195-30.195v-451.61c-.001-16.65-13.546-30.195-30.195-30.195z" fill="#efe2db"/><path d="m411.785 0h-155.785v33h19.244c8.284 0 15 6.716 15 15s-6.716 15-15 15h-19.244v33h115.687c8.446 0 15.292 6.846 15.292 15.292v400.708h24.805c16.676 0 30.195-13.519 30.195-30.195v-451.61c0-16.676-13.518-30.195-30.194-30.195z" fill="#ddc8c0"/><path d="m180.02 236h131.959c5.015 0 9.699-2.506 12.481-6.68l20-30c3.359-5.038 3.359-11.603 0-16.641l-20-30c-2.782-4.173-7.466-6.68-12.481-6.68h-131.959c-8.284 0-15 6.716-15 15v60c0 8.285 6.716 15.001 15 15.001z" fill="#ff9600"/><path d="m324.46 265.68c-2.782-4.173-7.466-6.68-12.481-6.68h-131.959c-8.284 0-15 6.716-15 15v60c0 8.284 6.716 15 15 15h131.959c5.015 0 9.699-2.506 12.481-6.68l20-30c3.359-5.038 3.359-11.603 0-16.641z" fill="#ffd200"/><path d="m324.46 378.68c-2.782-4.173-7.466-6.68-12.481-6.68h-131.959c-8.284 0-15 6.716-15 15v60c0 8.284 6.716 15 15 15h131.959c5.015 0 9.699-2.506 12.481-6.68l20-30c3.359-5.038 3.359-11.603 0-16.641z" fill="#77de00"/><path d="m324.46 229.32 20-30c3.359-5.038 3.359-11.603 0-16.641l-20-30c-2.782-4.173-7.466-6.68-12.481-6.68h-55.979v90h55.979c5.016.001 9.699-2.505 12.481-6.679z" fill="#ff4a00"/><path d="m324.46 342.32 20-30c3.359-5.038 3.359-11.603 0-16.641l-20-30c-2.782-4.173-7.466-6.68-12.481-6.68h-55.979v90h55.979c5.016.001 9.699-2.505 12.481-6.679z" fill="#ffa100"/><path d="m311.979 462c5.015 0 9.699-2.506 12.481-6.68l20-30c3.359-5.038 3.359-11.603 0-16.641l-20-30c-2.782-4.173-7.466-6.68-12.481-6.68h-55.979v90h55.979z" fill="#1cbf66"/></svg>