<?xml version="1.0" encoding="UTF-8"?>
<!DOCTYPE svg PUBLIC "-//W3C//DTD SVG 1.1//EN" "http://www.w3.org/Graphics/SVG/1.1/DTD/svg11.dtd">
<!-- Creator: CorelDRAW X6 -->
<svg xmlns="http://www.w3.org/2000/svg" xml:space="preserve" width="29.9988mm" height="29.9988mm" version="1.1" style="shape-rendering:geometricPrecision; text-rendering:geometricPrecision; image-rendering:optimizeQuality; fill-rule:evenodd; clip-rule:evenodd"
viewBox="0 0 7335 7335"
 xmlns:xlink="http://www.w3.org/1999/xlink">
 <defs>
  <style type="text/css">
   <![CDATA[
    .fil0 {fill:none}
    .fil3 {fill:#00B3DB}
    .fil2 {fill:#999999}
    .fil1 {fill:#CCCCCC}
    .fil5 {fill:#E5E7E8}
    .fil4 {fill:#F0F1F1}
   ]]>
  </style>
 </defs>
 <g id="Layer_x0020_1">
  <metadata id="CorelCorpID_0Corel-Layer"/>
  <rect class="fil0" width="7335" height="7335"/>
  <path class="fil1" d="M6554 691l-736 0 0 1328 736 0c221,0 401,-180 401,-401l0 -526c0,-221 -180,-401 -401,-401l0 0zm0 0z"/>
  <path class="fil2" d="M6554 2249l-736 0 0 1328 736 0c221,0 401,-179 401,-401l0 -526c0,-221 -180,-401 -401,-401l0 0zm0 0z"/>
  <path class="fil3" d="M6554 3848l-736 0 0 1329 736 0c221,0 401,-180 401,-401l0 -527c0,-221 -180,-401 -401,-401zm0 0z"/>
  <path class="fil4" d="M5738 86l-4858 0c-276,0 -500,225 -500,500l0 6163c0,275 224,499 500,499l4858 0c275,0 500,-224 500,-499l0 -6163c0,-275 -225,-500 -500,-500zm-4403 5990c0,116 -94,209 -210,209 -116,0 -210,-93 -210,-209l0 -505c0,-116 94,-210 210,-210 116,0 210,94 210,210l0 505zm0 -4284c0,116 -94,210 -210,210 -116,0 -210,-94 -210,-210l0 -505c0,-115 94,-209 210,-209 116,0 210,94 210,209l0 505zm0 0z"/>
  <path class="fil5" d="M6238 586l0 6163c0,275 -225,499 -500,499l-1686 0 0 -7162 1686 0c275,0 500,225 500,500zm0 0z"/>
  <path class="fil1" d="M880 86c-276,0 -500,225 -500,500l0 6163c0,275 224,499 500,499l990 0 0 -7162 -990 0zm455 5990c0,116 -94,209 -210,209 -116,0 -210,-93 -210,-209l0 -505c0,-116 94,-210 210,-210 116,0 210,94 210,210l0 505zm0 -4284c0,116 -94,210 -210,210 -116,0 -210,-94 -210,-210l0 -505c0,-115 94,-209 210,-209 116,0 210,94 210,209l0 505zm0 0z"/>
  <path class="fil3" d="M5432 1287c0,116 -93,210 -209,210l-2342 0c-116,0 -210,-94 -210,-210 0,-115 94,-209 210,-209l2342 0c115,0 209,94 209,209l0 0zm0 0z"/>
  <path class="fil3" d="M4903 1985c0,116 -94,209 -210,209l-1812 0c-116,0 -210,-93 -210,-209 0,-116 94,-210 210,-210l1812 0c116,0 210,94 210,210zm0 0z"/>
  <path class="fil3" d="M5432 2684c0,116 -93,210 -209,210l-2342 0c-116,0 -210,-94 -210,-210 0,-116 94,-210 210,-210l2342 0c115,0 209,94 209,210l0 0zm0 0z"/>
  <path class="fil3" d="M4693 2194l-641 0 0 -419 641 0c116,0 210,94 210,210 0,116 -94,209 -210,209l0 0zm0 0z"/>
  <path class="fil3" d="M5432 2684c0,116 -93,210 -209,210l-1171 0 0 -420 1171 0c115,0 209,94 209,210l0 0zm0 0z"/>
  <path class="fil3" d="M5223 1497l-1171 0 0 -419 1171 0c115,0 209,94 209,209 0,116 -93,210 -209,210l0 0zm0 0z"/>
 </g>
</svg>
