<svg id="Capa_1" enable-background="new 0 0 512 512" height="512" viewBox="0 0 512 512" width="512" xmlns="http://www.w3.org/2000/svg"><path d="m503.019 438.225h-115.954l-64.322-364.257c3.326.596 6.433 2.615 8.243 6.098l179.984 345.052c3.117 5.963-1.214 13.107-7.951 13.107z" fill="#22ddc6"/><path d="m387.065 438.225h-248.197l171.165-357.792c2.479-5.178 7.835-7.354 12.71-6.465z" fill="#90f1e0"/><circle cx="138.863" cy="299.362" fill="#ff80b3" r="138.863"/><path d="m138.863 160.5c-3.73 0-7.425.151-11.08.44 35.362 25.171 58.427 66.495 58.427 113.207 0 72.962-56.272 132.776-127.782 138.423 22.695 16.155 50.456 25.656 80.436 25.656 76.692 0 138.863-62.171 138.863-138.863-.002-76.692-62.172-138.863-138.864-138.863z" fill="#ff5cae"/></svg>