<svg id="Capa_1" enable-background="new 0 0 512 512" height="512" viewBox="0 0 512 512" width="512" xmlns="http://www.w3.org/2000/svg"><path d="m192.333 210.064h-158.482c-12.324 0-22.315-9.991-22.315-22.315v-158.483c0-12.324 9.991-22.315 22.315-22.315h158.483c12.324 0 22.315 9.991 22.315 22.315v158.483c-.001 12.324-9.991 22.315-22.316 22.315z" fill="#c698ff"/><path d="m391.852 216.91c-59.869 0-108.402-48.533-108.402-108.402 0-59.869 48.533-108.402 108.402-108.402 59.869 0 108.402 48.533 108.402 108.402 0 59.868-48.534 108.402-108.402 108.402z" fill="#ff92a6"/><path d="m106.507 297.825-101.888 74.026c-3.927 2.853-5.57 7.91-4.07 12.525l38.918 119.777c1.5 4.616 5.801 7.741 10.655 7.741h125.941c4.853 0 9.155-3.125 10.655-7.741l38.918-119.777c1.5-4.616-.143-9.673-4.07-12.525l-101.888-74.026c-3.927-2.853-9.244-2.853-13.171 0z" fill="#ff92a6"/><path d="m381.05 306.718-107.658 186.468c-4.801 8.315 1.2 18.708 10.801 18.708h215.316c9.601 0 15.602-10.393 10.801-18.708l-107.657-186.468c-4.801-8.315-16.802-8.315-21.603 0z" fill="#c698ff"/><path d="m192.21 6.951h-69.243c12.324 0 22.315 9.991 22.315 22.315v158.483c0 12.324-9.991 22.315-22.315 22.315h69.243c12.324 0 22.315-9.991 22.315-22.315v-158.483c0-12.324-9.991-22.315-22.315-22.315z" fill="#b983ff"/><path d="m391.728.105c-12.107 0-23.75 1.986-34.622 5.648 42.891 14.446 73.781 54.992 73.781 102.754 0 47.762-30.89 88.308-73.781 102.754 10.872 3.662 22.515 5.648 34.621 5.648 59.869 0 108.402-48.533 108.402-108.402.001-59.868-48.533-108.402-108.401-108.402z" fill="#ff758e"/><path d="m221.441 371.851-101.888-74.026c-3.927-2.853-9.243-2.853-13.17 0l-28.036 20.37 73.852 53.656c3.927 2.853 5.57 7.91 4.07 12.526l-38.919 119.777c-1.5 4.616-5.801 7.741-10.655 7.741h69.243c4.854 0 9.155-3.125 10.655-7.741l38.918-119.777c1.5-4.616-.143-9.673-4.07-12.526z" fill="#ff758e"/><path d="m510.187 493.186-107.658-186.468c-4.801-8.315-16.802-8.315-21.603 0l-23.82 41.258 83.838 145.211c4.8 8.315-1.2 18.708-10.801 18.708h69.243c9.601 0 15.601-10.394 10.801-18.709z" fill="#b983ff"/></svg>