<?xml version="1.0" encoding="iso-8859-1"?>
<!-- Generator: Adobe Illustrator 19.1.0, SVG Export Plug-In . SVG Version: 6.00 Build 0)  -->
<svg version="1.1" id="Capa_1" xmlns="http://www.w3.org/2000/svg" xmlns:xlink="http://www.w3.org/1999/xlink" x="0px" y="0px"
	 viewBox="0 0 512 512" style="enable-background:new 0 0 512 512;" xml:space="preserve">
<g>
	<g>
		<path style="fill:#D8DCE1;" d="M256,24C128.071,24,24,128.075,24,256s104.071,232,232,232s232-104.075,232-232S383.929,24,256,24z
			"/>
	</g>
	<g>
		<path style="fill:#FFFFFF;" d="M256,104c-83.816,0-152,68.187-152,152s68.184,152,152,152s152-68.187,152-152S339.816,104,256,104
			z"/>
	</g>
	<g>
		<g>
			<g>
				<path style="fill:#5C546A;" d="M256,71.109L256,71.109c-4.418,0-8-3.582-8-8V48h16v15.109C264,67.528,260.418,71.109,256,71.109
					z"/>
			</g>
		</g>
		<g>
			<g>
				<path style="fill:#5C546A;" d="M264,464h-16V448.89c0-4.418,3.582-8,8-8h0c4.418,0,8,3.582,8,8V464z"/>
			</g>
		</g>
	</g>
	<g>
		<g>
			<path style="fill:#8B8996;" d="M256,248c-4.422,0-8-3.582-8-8v-32c0-4.418,3.578-8,8-8s8,3.582,8,8v32
				C264,244.418,260.422,248,256,248z"/>
		</g>
	</g>
	<g>
		<g>
			<g>
				<path style="fill:#5C546A;" d="M464,264H448.89c-4.418,0-8-3.582-8-8v0c0-4.418,3.582-8,8-8H464V264z"/>
			</g>
		</g>
		<g>
			<g>
				<path style="fill:#5C546A;" d="M63.109,264H48v-16h15.109c4.418,0,8,3.582,8,8v0C71.109,260.418,67.528,264,63.109,264z"/>
			</g>
		</g>
	</g>
	<g>
		<g>
			<g>
				<path style="fill:#8B8996;" d="M84.954,166.484l-13.087-7.555l8-13.859l13.088,7.555c3.826,2.209,5.138,7.101,2.929,10.928
					l-0.001,0.002C93.673,167.382,88.781,168.693,84.954,166.484z"/>
			</g>
		</g>
		<g>
			<g>
				<path style="fill:#8B8996;" d="M432.133,366.93l-13.088-7.555c-3.826-2.209-5.138-7.101-2.929-10.928l0.001-0.002
					c2.209-3.827,7.102-5.138,10.928-2.929l13.087,7.555L432.133,366.93z"/>
			</g>
		</g>
	</g>
	<g>
		<g>
			<g>
				<path style="fill:#8B8996;" d="M348.447,95.884l-0.002-0.001c-3.827-2.209-5.138-7.102-2.929-10.928l7.555-13.087l13.859,8
					l-7.555,13.088C357.165,96.781,352.273,98.092,348.447,95.884z"/>
			</g>
		</g>
		<g>
			<g>
				<path style="fill:#8B8996;" d="M158.93,440.133l-13.859-8l7.555-13.088c2.209-3.826,7.101-5.138,10.928-2.929l0.002,0.001
					c3.827,2.209,5.138,7.102,2.929,10.928L158.93,440.133z"/>
			</g>
		</g>
	</g>
	<g>
		<g>
			<g>
				<path style="fill:#8B8996;" d="M416.117,163.555l-0.001-0.002c-2.209-3.826-0.897-8.719,2.929-10.928l13.088-7.555l8,13.859
					l-13.087,7.555C423.219,168.693,418.326,167.382,416.117,163.555z"/>
			</g>
		</g>
		<g>
			<g>
				<path style="fill:#8B8996;" d="M79.867,366.93l-8-13.859l13.087-7.555c3.827-2.209,8.719-0.898,10.928,2.929l0.001,0.002
					c2.209,3.826,0.897,8.719-2.929,10.928L79.867,366.93z"/>
			</g>
		</g>
	</g>
	<g>
		<g>
			<g>
				<path style="fill:#8B8996;" d="M152.625,92.955l-7.555-13.088l13.859-8l7.555,13.087c2.209,3.827,0.898,8.719-2.929,10.928
					l-0.002,0.001C159.727,98.092,154.834,96.781,152.625,92.955z"/>
			</g>
		</g>
		<g>
			<g>
				<path style="fill:#8B8996;" d="M353.07,440.133l-7.555-13.087c-2.209-3.827-0.898-8.719,2.929-10.928l0.002-0.001
					c3.826-2.209,8.719-0.897,10.928,2.929l7.555,13.088L353.07,440.133z"/>
			</g>
		</g>
	</g>
	<g>
		<g>
			<path style="fill:#8B8996;" d="M304,264h-32c-4.422,0-8-3.582-8-8s3.578-8,8-8h32c4.422,0,8,3.582,8,8S308.422,264,304,264z"/>
		</g>
	</g>
	<g>
		<g>
			<path style="fill:#FF9600;" d="M376,272h-56c-8.8,0-16-7.2-16-16v0c0-8.8,7.2-16,16-16h56c8.8,0,16,7.2,16,16v0
				C392,264.8,384.8,272,376,272z"/>
		</g>
	</g>
	<g>
		<g>
			<path style="fill:#FF9600;" d="M272,112v80c0,8.8-7.2,16-16,16h0c-8.8,0-16-7.2-16-16v-80c0-8.8,7.2-16,16-16h0
				C264.8,96,272,103.2,272,112z"/>
		</g>
	</g>
	<g>
		<g>
			<path style="fill:#FFD200;" d="M256,512C114.844,512,0,397.16,0,256S114.844,0,256,0s256,114.84,256,256S397.156,512,256,512z
				 M256,48C141.305,48,48,141.309,48,256s93.305,208,208,208s208-93.309,208-208S370.695,48,256,48z"/>
		</g>
	</g>
	<g>
		<path style="fill:#FF9600;" d="M48,256c0-114.691,93.305-208,208-208V0C114.844,0,0,114.84,0,256s114.844,256,256,256v-48
			C141.305,464,48,370.691,48,256z"/>
	</g>
	<g>
		<g>
			<circle style="fill:#5C546A;" cx="256" cy="256" r="24"/>
		</g>
	</g>
</g>
<g>
</g>
<g>
</g>
<g>
</g>
<g>
</g>
<g>
</g>
<g>
</g>
<g>
</g>
<g>
</g>
<g>
</g>
<g>
</g>
<g>
</g>
<g>
</g>
<g>
</g>
<g>
</g>
<g>
</g>
</svg>
