<?xml version="1.0" encoding="UTF-8"?>
<!DOCTYPE svg PUBLIC "-//W3C//DTD SVG 1.1//EN" "http://www.w3.org/Graphics/SVG/1.1/DTD/svg11.dtd">
<!-- Creator: CorelDRAW X6 -->
<svg xmlns="http://www.w3.org/2000/svg" xml:space="preserve" width="38.4189mm" height="38.4189mm" version="1.1" style="shape-rendering:geometricPrecision; text-rendering:geometricPrecision; image-rendering:optimizeQuality; fill-rule:evenodd; clip-rule:evenodd"
viewBox="0 0 4922 4922"
 xmlns:xlink="http://www.w3.org/1999/xlink">
 <defs>
  <style type="text/css">
   <![CDATA[
    .fil0 {fill:none}
    .fil5 {fill:#0F9390}
    .fil11 {fill:#1E99D6}
    .fil10 {fill:#52BBEF}
    .fil4 {fill:#5DC1D8}
    .fil3 {fill:#91E0E8}
    .fil2 {fill:#B0BEC5}
    .fil9 {fill:#B7092B}
    .fil1 {fill:#CFD8DC}
    .fil7 {fill:#D9EAFC}
    .fil13 {fill:#DB722C}
    .fil12 {fill:#EF8318}
    .fil8 {fill:#FE3745}
    .fil6 {fill:white}
   ]]>
  </style>
 </defs>
 <g id="Layer_x0020_1">
  <metadata id="CorelCorpID_0Corel-Layer"/>
  <rect class="fil0" width="4922" height="4922"/>
  <g id="_218098096">
   <path class="fil1" d="M4152 74l-2188 0c-55,0 -100,44 -100,99l0 1094 -1094 0c-55,0 -99,45 -99,100l0 3382c0,55 44,99 99,99l3382 0c55,0 100,-44 100,-99l0 -4576c0,-55 -45,-99 -100,-99z"/>
   <path class="fil2" d="M2002 81c-37,-15 -80,-7 -109,22l-1193 1193c-39,39 -39,102 0,141 18,19 44,29 70,29l1194 0c55,0 99,-44 99,-99l0 -1194c0,-40 -24,-76 -61,-92z"/>
   <g>
   </g>
   <g>
   </g>
   <g>
   </g>
   <g>
   </g>
   <g>
   </g>
   <g>
   </g>
   <g>
   </g>
   <g>
   </g>
   <g>
   </g>
   <g>
   </g>
   <g>
   </g>
   <g>
   </g>
   <g>
   </g>
   <g>
   </g>
   <g>
   </g>
  </g>
  <g id="_886191232">
   <path class="fil3" d="M3856 2572l-1339 0 0 518c0,15 -12,28 -28,28l-182 0 0 504c0,21 17,38 38,38l1511 0c21,0 38,-17 38,-38l0 -1013c0,-20 -17,-37 -38,-37z"/>
   <path class="fil4" d="M2418 3622l0 -504 -111 0 0 504c0,21 17,38 38,38l111 0c-21,0 -38,-17 -38,-38z"/>
   <path class="fil5" d="M3532 3163c-14,-16 -36,-16 -49,0l-196 233c-14,16 -36,16 -49,0l-371 -439c-13,-16 -35,-16 -49,0l-511 606 0 59c0,21 17,38 38,38l1511 0c21,0 38,-17 38,-38l0 -29 -362 -430z"/>
   <circle class="fil6" cx="3629" cy="2853" r="142"/>
   <path class="fil7" d="M3566 2853c0,-65 43,-119 103,-136 -13,-4 -26,-6 -40,-6 -78,0 -141,64 -141,142 0,78 63,142 141,142 14,0 27,-2 40,-6 -60,-17 -103,-71 -103,-136z"/>
   <path class="fil8" d="M2523 3095c0,16 -13,28 -28,28l-1439 0c-16,0 -28,-12 -28,-28l0 -1097c0,-15 12,-28 28,-28l1439 0c15,0 28,13 28,28l0 1097z"/>
   <path class="fil6" d="M1490 2273c0,-31 21,-43 48,-28l474 274c27,15 27,40 0,56l-474 274c-27,15 -48,2 -48,-28l0 -548z"/>
   <path class="fil7" d="M1601 2281l-63 -36c-27,-15 -48,-3 -48,28l0 548c0,30 21,43 48,28l63 -37c0,0 0,-531 0,-531z"/>
   <g>
    <path class="fil9" d="M2436 2186c0,9 -8,16 -17,16l-117 0c-10,0 -17,-7 -17,-16l0 -118c0,-9 7,-17 17,-17l117 0c9,0 17,8 17,17l0 118 0 0z"/>
    <path class="fil9" d="M2436 2396c0,9 -8,16 -17,16l-117 0c-10,0 -17,-7 -17,-16l0 -118c0,-9 7,-17 17,-17l117 0c9,0 17,8 17,17l0 118 0 0z"/>
    <path class="fil9" d="M2436 2606c0,9 -8,16 -17,16l-117 0c-10,0 -17,-7 -17,-16l0 -118c0,-9 7,-17 17,-17l117 0c9,0 17,8 17,17l0 118 0 0z"/>
    <path class="fil9" d="M2436 2815c0,10 -8,17 -17,17l-117 0c-10,0 -17,-7 -17,-17l0 -117c0,-9 7,-17 17,-17l117 0c9,0 17,8 17,17l0 117 0 0z"/>
    <path class="fil9" d="M2436 3025c0,10 -8,17 -17,17l-117 0c-10,0 -17,-7 -17,-17l0 -117c0,-9 7,-17 17,-17l117 0c9,0 17,8 17,17l0 117 0 0z"/>
    <path class="fil9" d="M1266 2186c0,9 -8,16 -17,16l-118 0c-9,0 -16,-7 -16,-16l0 -118c0,-9 7,-17 16,-17l118 0c9,0 17,8 17,17l0 118z"/>
    <path class="fil9" d="M1266 2396c0,9 -8,16 -17,16l-118 0c-9,0 -16,-7 -16,-16l0 -118c0,-9 7,-17 16,-17l118 0c9,0 17,8 17,17l0 118z"/>
    <path class="fil9" d="M1266 2606c0,9 -8,16 -17,16l-118 0c-9,0 -16,-7 -16,-16l0 -118c0,-9 7,-17 16,-17l118 0c9,0 17,8 17,17l0 118z"/>
    <path class="fil9" d="M1266 2815c0,10 -8,17 -17,17l-118 0c-9,0 -16,-7 -16,-17l0 -117c0,-9 7,-17 16,-17l118 0c9,0 17,8 17,17l0 117z"/>
    <path class="fil9" d="M1266 3025c0,10 -8,17 -17,17l-118 0c-9,0 -16,-7 -16,-17l0 -117c0,-9 7,-17 16,-17l118 0c9,0 17,8 17,17l0 117z"/>
   </g>
   <path class="fil10" d="M2181 3257l-974 0c-15,0 -28,13 -28,28l0 371c39,130 96,252 169,362l354 0 228 229c11,11 20,7 20,-8l0 -221 231 0c15,0 28,-12 28,-27l0 -706c0,-15 -13,-28 -28,-28z"/>
   <path class="fil11" d="M1290 3285c0,-15 13,-28 28,-28l-111 0c-15,0 -28,13 -28,28l0 371c28,93 65,182 111,266l0 -637z"/>
   <g>
    <path class="fil6" d="M1972 3536l-556 0c-23,0 -42,-19 -42,-42 0,-23 19,-42 42,-42l556 0c23,0 42,19 42,42 0,23 -19,42 -42,42z"/>
    <path class="fil6" d="M1972 3682l-556 0c-23,0 -42,-19 -42,-42 0,-23 19,-42 42,-42l556 0c23,0 42,19 42,42 0,23 -19,42 -42,42z"/>
    <path class="fil6" d="M1695 3828l-279 0c-23,0 -42,-19 -42,-42 0,-23 19,-42 42,-42l279 0c23,0 42,19 42,42 0,23 -19,42 -42,42z"/>
   </g>
   <path class="fil12" d="M3220 3804l-882 0c-16,0 -28,12 -28,28l0 668c0,15 12,28 28,28l688 0c78,-33 152,-73 222,-119l0 -577c0,-16 -12,-28 -28,-28z"/>
   <path class="fil13" d="M2421 4500l0 -668c0,-16 13,-28 28,-28l-111 0c-16,0 -28,12 -28,28l0 668c0,15 12,28 28,28l111 0c-15,0 -28,-13 -28,-28z"/>
   <path class="fil6" d="M2624 4015c0,-31 21,-44 48,-28l262 151c26,15 26,40 0,56l-262 151c-27,15 -48,3 -48,-28l0 -302z"/>
   <g>
   </g>
   <g>
   </g>
   <g>
   </g>
   <g>
   </g>
   <g>
   </g>
   <g>
   </g>
   <g>
   </g>
   <g>
   </g>
   <g>
   </g>
   <g>
   </g>
   <g>
   </g>
   <g>
   </g>
   <g>
   </g>
   <g>
   </g>
   <g>
   </g>
  </g>
 </g>
</svg>
