<svg height="512pt" viewBox="-25 0 512 512.001" width="512pt" xmlns="http://www.w3.org/2000/svg"><g fill-rule="evenodd"><path d="m425.097656 0h-388.671875c-20.054687 0-36.425781 16.351562-36.425781 36.386719v44.183593l218.835938 21.34375 242.6875-21.34375v-44.183593c0-20.035157-16.402344-36.386719-36.425782-36.386719zm0 0" fill="#808080"/><path d="m461.523438 80.570312h-461.523438v395.042969c0 20.003907 16.371094 36.386719 36.425781 36.386719h388.671875c20.023438 0 36.425782-16.382812 36.425782-36.386719zm0 0" fill="#eee"/><path d="m403.203125 124.808594h-85.066406c-5.757813 0-10.464844 4.703125-10.464844 10.457031v65.089844c0 5.722656 4.707031 10.425781 10.464844 10.425781h85.066406c5.757813 0 10.464844-4.703125 10.464844-10.425781v-65.089844c0-5.753906-4.707031-10.457031-10.464844-10.457031zm0 0" fill="#ffc107"/><path d="m403.203125 252.773438h-85.066406c-5.757813 0-10.464844 4.699218-10.464844 10.425781v65.089843c0 5.753907 4.707031 10.453126 10.464844 10.453126h85.066406c5.757813 0 10.464844-4.703126 10.464844-10.453126v-65.089843c0-5.722657-4.707031-10.425781-10.464844-10.425781zm0 0" fill="#ffc107"/><path d="m392.621094 377.378906h-326.027344c-11.578125 0-21.046875 9.429688-21.046875 20.996094v46.984375c0 11.566406 9.46875 20.996094 21.046875 20.996094h326.027344c11.578125 0 21.046875-9.429688 21.046875-20.996094v-46.984375c0-11.5625-9.46875-20.996094-21.046875-20.996094zm0 0" fill="#ff7b83"/><path d="m245.757812 123.117188h-174.136718c-14.355469 0-26.074219 11.707031-26.074219 26.019531v162.273437c0 14.308594 11.71875 26.019532 26.074219 26.019532h174.136718c14.324219 0 26.046876-11.710938 26.046876-26.019532v-162.273437c0-14.3125-11.722657-26.019531-26.046876-26.019531zm0 0" fill="#bbdefb"/><path d="m271.804688 149.136719c0-14.3125-11.722657-26.019531-26.046876-26.019531h-21.589843c14.351562 0 26.074219 11.707031 26.074219 26.019531v162.273437c0 14.308594-11.722657 26.019532-26.074219 26.019532h21.589843c14.324219 0 26.046876-11.710938 26.046876-26.019532zm0 0" fill="#7fbaeb"/><path d="m392.621094 377.378906h-31.863282c11.578126 0 21.019532 9.429688 21.019532 20.996094v46.984375c0 11.566406-9.441406 20.996094-21.019532 20.996094h31.863282c11.578125 0 21.046875-9.429688 21.046875-20.996094v-46.984375c0-11.5625-9.46875-20.996094-21.046875-20.996094zm0 0" fill="#e63e49"/><path d="m403.203125 252.773438h-31.863281c5.757812 0 10.4375 4.699218 10.4375 10.425781v65.089843c0 5.753907-4.679688 10.453126-10.4375 10.453126h31.863281c5.757813 0 10.464844-4.703126 10.464844-10.453126v-65.089843c0-5.722657-4.707031-10.425781-10.464844-10.425781zm0 0" fill="#ff8f07"/><path d="m403.203125 124.808594h-31.863281c5.757812 0 10.4375 4.703125 10.4375 10.457031v65.089844c0 5.722656-4.679688 10.425781-10.4375 10.425781h31.863281c5.757813 0 10.464844-4.703125 10.464844-10.425781v-65.089844c0-5.753906-4.707031-10.457031-10.464844-10.457031zm0 0" fill="#ff8f07"/></g><path d="m237.660156 48.992188h-180.570312c-4.300782 0-7.785156-3.488282-7.785156-7.789063s3.484374-7.785156 7.785156-7.785156h180.570312c4.300782 0 7.785156 3.484375 7.785156 7.785156s-3.484374 7.789063-7.785156 7.789063zm0 0" fill="#bdbdbd"/><path d="m318.019531 48.113281h-.234375c-4.300781 0-7.785156-3.484375-7.785156-7.785156s3.484375-7.789063 7.785156-7.789063h.234375c4.300781 0 7.789063 3.488282 7.789063 7.789063s-3.488282 7.785156-7.789063 7.785156zm0 0" fill="#ff7b83"/><path d="m388.714844 48.113281h-.234375c-4.300781 0-7.785157-3.484375-7.785157-7.785156s3.484376-7.789063 7.785157-7.789063h.234375c4.300781 0 7.785156 3.488282 7.785156 7.789063s-3.484375 7.785156-7.785156 7.785156zm0 0" fill="#51db61"/><path d="m234.179688 172.574219h-118.828126c-4.300781 0-7.785156-3.484375-7.785156-7.789063 0-4.300781 3.484375-7.785156 7.785156-7.785156h118.828126c4.304687 0 7.789062 3.484375 7.789062 7.785156 0 4.304688-3.484375 7.789063-7.789062 7.789063zm0 0" fill="#666"/><path d="m234.179688 216.230469h-142.652344c-4.300782 0-7.785156-3.484375-7.785156-7.785157 0-4.300781 3.484374-7.789062 7.785156-7.789062h142.652344c4.304687 0 7.789062 3.488281 7.789062 7.789062 0 4.300782-3.484375 7.785157-7.789062 7.785157zm0 0" fill="#666"/><path d="m234.179688 259.886719h-142.652344c-4.300782 0-7.785156-3.484375-7.785156-7.785157 0-4.300781 3.484374-7.789062 7.785156-7.789062h142.652344c4.304687 0 7.789062 3.488281 7.789062 7.789062 0 4.300782-3.484375 7.785157-7.789062 7.785157zm0 0" fill="#666"/><path d="m234.179688 303.546875h-142.652344c-4.300782 0-7.785156-3.488281-7.785156-7.789063 0-4.300781 3.484374-7.785156 7.785156-7.785156h142.652344c4.304687 0 7.789062 3.484375 7.789062 7.785156 0 4.300782-3.484375 7.789063-7.789062 7.789063zm0 0" fill="#666"/><path d="m380.664062 429.667969h-302.117187c-4.300781 0-7.785156-3.484375-7.785156-7.785157 0-4.300781 3.484375-7.789062 7.785156-7.789062h302.117187c4.300782 0 7.789063 3.488281 7.789063 7.789062 0 4.300782-3.488281 7.785157-7.789063 7.785157zm0 0" fill="#666"/><path d="m352.867188 48.113281h-.265626c-4.300781 0-7.785156-3.484375-7.785156-7.785156s3.484375-7.789063 7.785156-7.789063h.265626c4.300781 0 7.785156 3.488282 7.785156 7.789063s-3.488282 7.785156-7.785156 7.785156zm0 0" fill="#ffc107"/><path d="m414.3125 36.386719v44.183593h47.210938v-44.183593c0-20.035157-16.402344-36.386719-36.425782-36.386719h-47.0625c19.964844.0585938 36.277344 16.410156 36.277344 36.386719zm0 0" fill="#666" fill-rule="evenodd"/><path d="m414.3125 84.714844v390.898437c0 20.003907-16.371094 36.386719-36.425781 36.386719h47.210937c20.023438 0 36.425782-16.382812 36.425782-36.386719v-395.042969h-47.210938zm0 0" fill="#bdbdbd" fill-rule="evenodd"/></svg>