<?xml version="1.0" encoding="UTF-8"?>
<!DOCTYPE svg PUBLIC "-//W3C//DTD SVG 1.1//EN" "http://www.w3.org/Graphics/SVG/1.1/DTD/svg11.dtd">
<!-- Creator: CorelDRAW X6 -->
<svg xmlns="http://www.w3.org/2000/svg" xml:space="preserve" width="32.9425mm" height="32.9425mm" version="1.1" style="shape-rendering:geometricPrecision; text-rendering:geometricPrecision; image-rendering:optimizeQuality; fill-rule:evenodd; clip-rule:evenodd"
viewBox="0 0 1309 1309"
 xmlns:xlink="http://www.w3.org/1999/xlink">
 <defs>
  <style type="text/css">
   <![CDATA[
    .fil3 {fill:none}
    .fil0 {fill:#336699}
    .fil1 {fill:#989869}
    .fil2 {fill:#FCC938}
   ]]>
  </style>
 </defs>
 <g id="Layer_x0020_1">
  <metadata id="CorelCorpID_0Corel-Layer"/>
  <path class="fil0" d="M992 187l-14 954c-1,81 -68,146 -149,144l-504 -7 -100 -1c-81,-1 -146,-68 -145,-149l13 -953c2,-81 68,-146 149,-145l605 8c5,0 11,1 16,2 73,9 130,72 129,147z"/>
  <g id="_1068163152">
   <path class="fil1" d="M1108 187c-5,318 -9,636 -14,954 -1,81 -68,146 -149,144 -168,-2 -336,-4 -504,-7 -33,0 -67,-1 -100,-1 -81,-1 -146,-68 -145,-149 4,-318 9,-636 13,-953 1,-81 68,-146 149,-145 202,3 403,5 605,8 5,0 11,1 16,2 73,9 130,72 129,147z"/>
  </g>
  <path class="fil2" d="M1223 187l-13 954c-1,81 -68,146 -149,144l-504 -7 -100 -1c-82,-1 -146,-68 -145,-149l13 -953c1,-81 68,-146 149,-145l605 8c5,0 11,1 16,2 73,9 130,72 128,147z"/>
  <rect class="fil3" width="1309" height="1309"/>
 </g>
</svg>
