<?xml version="1.0" encoding="UTF-8"?>
<!DOCTYPE svg PUBLIC "-//W3C//DTD SVG 1.1//EN" "http://www.w3.org/Graphics/SVG/1.1/DTD/svg11.dtd">
<!-- Creator: CorelDRAW X6 -->
<svg xmlns="http://www.w3.org/2000/svg" xml:space="preserve" width="39.2009mm" height="39.2009mm" version="1.1" style="shape-rendering:geometricPrecision; text-rendering:geometricPrecision; image-rendering:optimizeQuality; fill-rule:evenodd; clip-rule:evenodd"
viewBox="0 0 849 849"
 xmlns:xlink="http://www.w3.org/1999/xlink">
 <defs>
  <style type="text/css">
   <![CDATA[
    .fil1 {fill:none}
    .fil0 {fill:#00ABD6}
    .fil6 {fill:gray}
    .fil5 {fill:#AAB2BD}
    .fil4 {fill:#CCD1D9}
    .fil3 {fill:#E6E9ED}
    .fil2 {fill:#FCC938}
   ]]>
  </style>
 </defs>
 <g id="Layer_x0020_1">
  <metadata id="CorelCorpID_0Corel-Layer"/>
  <rect class="fil0" transform="matrix(1.16576 -0.234884 0.199429 0.989789 122.471 107.815)" width="424" height="577" rx="41" ry="41"/>
  <rect class="fil1" width="849" height="849"/>
  <rect class="fil2" transform="matrix(1.16576 -0.234884 0.199429 0.989789 65.1738 98.0014)" width="424" height="577" rx="41" ry="41"/>
  <polygon class="fil3" points="54,161 547,62 671,681 179,780 "/>
  <polygon class="fil4" points="671,681 790,738 297,837 179,780 "/>
  <polygon class="fil5" points="665,119 790,738 671,681 547,62 "/>
  <g id="_890835488">
   <g>
    <g>
     <path class="fil6" d="M577 471l-30 6 -12 -61c-2,-8 -10,-13 -19,-12l-135 28 -22 -106 76 -15c8,-2 14,-10 12,-18l-18 -91c-2,-8 -10,-13 -18,-12l-181 37c-9,2 -14,10 -12,18l18 90c1,9 10,14 18,12l75 -15 22 106 -136 27c-8,2 -14,10 -12,18l12 61 -30 6c-8,1 -14,9 -12,18l18 90c2,9 10,14 18,12l91 -18c8,-2 13,-10 12,-18l-19 -91c-1,-8 -9,-13 -18,-12l-30 6 -9 -45 121 -24 9 45 -30 6c-9,2 -14,10 -12,18l18 91c1,8 10,14 18,12l90 -18c9,-2 14,-10 12,-18l-18 -91c-1,-8 -10,-14 -18,-12l-30 6 -9 -45 120 -24 10 45 -31 6c-8,2 -13,10 -12,18l19 90c1,9 9,14 18,12l90 -18c8,-1 14,-10 12,-18l-18 -90c-2,-9 -10,-14 -18,-12z"/>
    </g>
   </g>
   <g>
   </g>
   <g>
   </g>
   <g>
   </g>
   <g>
   </g>
   <g>
   </g>
   <g>
   </g>
   <g>
   </g>
   <g>
   </g>
   <g>
   </g>
   <g>
   </g>
   <g>
   </g>
   <g>
   </g>
   <g>
   </g>
   <g>
   </g>
   <g>
   </g>
  </g>
 </g>
</svg>
