<?xml version="1.0" encoding="UTF-8"?>
<!DOCTYPE svg PUBLIC "-//W3C//DTD SVG 1.1//EN" "http://www.w3.org/Graphics/SVG/1.1/DTD/svg11.dtd">
<!-- Creator: CorelDRAW X6 -->
<svg xmlns="http://www.w3.org/2000/svg" xml:space="preserve" width="37.601mm" height="37.601mm" version="1.1" style="shape-rendering:geometricPrecision; text-rendering:geometricPrecision; image-rendering:optimizeQuality; fill-rule:evenodd; clip-rule:evenodd"
viewBox="0 0 738 738"
 xmlns:xlink="http://www.w3.org/1999/xlink">
 <defs>
  <style type="text/css">
   <![CDATA[
    .fil3 {fill:none}
    .fil1 {fill:#00CCFF}
    .fil8 {fill:#484B54}
    .fil6 {fill:#66686D}
    .fil5 {fill:#92949B}
    .fil0 {fill:#999999}
    .fil10 {fill:#B5B6BA}
    .fil9 {fill:#D33333}
    .fil4 {fill:#E6E6E6}
    .fil7 {fill:#EA3D3D}
    .fil2 {fill:#FCC938}
   ]]>
  </style>
 </defs>
 <g id="Layer_x0020_1">
  <metadata id="CorelCorpID_0Corel-Layer"/>
  <path class="fil0" d="M157 3l434 0c12,0 23,10 23,23l0 570c0,12 -11,23 -23,23l-434 0c-12,0 -23,-11 -23,-23l0 -570c0,-13 11,-23 23,-23z"/>
  <path class="fil1" d="M599 93l-6 486c-1,41 -35,74 -76,74l-257 -4 -51 -1c-42,0 -75,-34 -74,-76l7 -486c0,-41 34,-74 76,-73l308 4c2,0 5,0 8,1 37,4 66,36 65,75z"/>
  <path class="fil2" d="M602 122l-7 491c0,42 -35,75 -76,75l-260 -4 -52 -1c-42,0 -75,-35 -75,-77l7 -491c1,-42 35,-75 77,-75l312 5c2,0 5,0 8,0 38,5 67,37 66,77z"/>
  <rect class="fil3" width="738" height="738"/>
  <path class="fil4" d="M148 92l452 0c13,0 24,10 24,23l0 596c0,13 -11,23 -24,23l-452 0c-13,0 -24,-10 -24,-23l0 -596c0,-13 11,-23 24,-23z"/>
  <g id="_954012512">
   <rect class="fil5" transform="matrix(-0.0477073 0.0859706 -0.0859706 -0.0477073 413.635 335.213)" width="1415" height="547"/>
   <g>
    <rect class="fil6" transform="matrix(-0.0477073 0.0859706 -0.0859706 -0.0477073 380.875 317.035)" width="1415" height="166"/>
    <rect class="fil6" transform="matrix(-0.0477073 0.0859706 -0.0859706 -0.0477073 413.638 335.21)" width="318" height="547"/>
   </g>
   <path class="fil7" d="M231 611c-18,-9 -25,-31 -15,-49l81 -145c1,-3 5,-4 8,-2l2 1 13 7 0 0 34 19 2 2c3,1 4,5 3,8l-80 144c-10,17 -31,24 -48,15z"/>
   <g>
    <path class="fil8" d="M357 231c-36,-20 -83,-15 -113,17 38,5 85,28 106,49l9 -17 20 -37 0 0c-12,-6 -21,-11 -22,-12z"/>
    <path class="fil8" d="M466 277l-42 76 -1 6c7,-6 22,-11 33,-5 11,6 16,16 15,26l1 0 42 -77 0 -1c-7,7 -20,7 -30,1 -11,-6 -15,-21 -13,-31l-5 5z"/>
   </g>
   <path class="fil9" d="M231 611c-18,-9 -25,-31 -15,-49l81 -145c1,-3 5,-4 8,-2l2 1 13 7 0 0c0,0 -91,141 -89,188z"/>
   <path class="fil5" d="M509 407l-40 -22c1,-2 1,-3 2,-5l23 -42 14 -26 6 -10c1,-1 2,-2 3,-4l40 22 -8 15 -15 26 -25 46z"/>
   <polygon class="fil10" points="534,361 494,338 508,312 549,335 "/>
   <path class="fil5" d="M389 227l-10 16 -20 37 -9 17 -10 17 18 10 0 0 48 26 0 0 17 9c0,-1 47,-85 48,-87 0,0 -52,-28 -82,-45z"/>
   <g>
   </g>
   <g>
   </g>
   <g>
   </g>
   <g>
   </g>
   <g>
   </g>
   <g>
   </g>
   <g>
   </g>
   <g>
   </g>
   <g>
   </g>
   <g>
   </g>
   <g>
   </g>
   <g>
   </g>
   <g>
   </g>
   <g>
   </g>
   <g>
   </g>
  </g>
 </g>
</svg>
