<?xml version="1.0" encoding="UTF-8"?>
<!DOCTYPE svg PUBLIC "-//W3C//DTD SVG 1.1//EN" "http://www.w3.org/Graphics/SVG/1.1/DTD/svg11.dtd">
<!-- Creator: CorelDRAW X6 -->
<svg xmlns="http://www.w3.org/2000/svg" xml:space="preserve" width="39.2009mm" height="39.2009mm" version="1.1" style="shape-rendering:geometricPrecision; text-rendering:geometricPrecision; image-rendering:optimizeQuality; fill-rule:evenodd; clip-rule:evenodd"
viewBox="0 0 3082 3082"
 xmlns:xlink="http://www.w3.org/1999/xlink">
 <defs>
  <style type="text/css">
   <![CDATA[
    .fil1 {fill:none}
    .fil0 {fill:#00ABD6}
    .fil9 {fill:#484B54}
    .fil7 {fill:#66686D}
    .fil6 {fill:#92949B}
    .fil5 {fill:#AAB2BD}
    .fil11 {fill:#B5B6BA}
    .fil4 {fill:#CCD1D9}
    .fil10 {fill:#D33333}
    .fil3 {fill:#E6E9ED}
    .fil8 {fill:#EA3D3D}
    .fil2 {fill:#FCC938}
   ]]>
  </style>
 </defs>
 <g id="Layer_x0020_1">
  <metadata id="CorelCorpID_0Corel-Layer"/>
  <rect class="fil0" transform="matrix(1.16576 -0.234884 0.199429 0.989789 476.26 391.578)" width="1539" height="2097" rx="150" ry="150"/>
  <rect class="fil1" width="3082" height="3082"/>
  <rect class="fil2" transform="matrix(1.16576 -0.234884 0.199429 0.989789 236.709 355.937)" width="1539" height="2097" rx="150" ry="150"/>
  <polygon class="fil3" points="196,586 1985,225 2438,2473 649,2833 "/>
  <polygon class="fil4" points="2438,2473 2868,2679 1079,3039 649,2833 "/>
  <polygon class="fil5" points="2415,432 2868,2679 2438,2473 1985,225 "/>
  <g id="_844051520">
   <rect class="fil6" transform="matrix(-0.0044521 0.108923 -0.108304 0.010608 1330.1 979.945)" width="5673" height="2194"/>
   <g>
    <rect class="fil7" transform="matrix(-0.0044521 0.108923 -0.108304 0.010608 1164.69 996.152)" width="5673" height="667"/>
    <rect class="fil7" transform="matrix(-0.0044521 0.108923 -0.108304 0.010608 1330.11 979.927)" width="1275" height="2194"/>
   </g>
   <path class="fil8" d="M1155 2457c-88,11 -158,-54 -154,-142l30 -737c1,-15 13,-28 28,-30l11 -1 65 -6 0 0 173 -17 11 -1c15,-2 27,9 26,24l-30 734c-4,86 -74,166 -160,176z"/>
   <g>
    <path class="fil9" d="M902 740c-183,18 -359,154 -415,348 159,-76 393,-110 515,-89l4 -85 7 -185 0 0c-62,6 -106,11 -111,11z"/>
    <path class="fil9" d="M1423 631l-16 390 6 25c15,-42 67,-99 121,-105 54,-5 98,20 110,58l4 -2 16 -390 -5 -1c-15,41 -61,74 -115,79 -54,5 -101,-43 -113,-82l-8 28z"/>
   </g>
   <path class="fil10" d="M1155 2457c-88,11 -158,-54 -154,-142l30 -737c1,-15 13,-28 28,-30l11 -1 65 -6 0 0c0,0 -80,749 20,916z"/>
   <path class="fil6" d="M1849 1003l-202 20c0,-9 -1,-16 -3,-24l8 -211 5 -132 2 -50c4,-8 6,-17 6,-26l202 -19 -3 75 -6 132 -9 235z"/>
   <polygon class="fil11" points="1858,768 1652,788 1657,656 1864,636 "/>
   <path class="fil6" d="M1016 644l-3 85 -7 185 -4 85 -3 87 90 -9 0 0 238 -23 0 0 86 -8c0,-8 18,-435 18,-443 0,0 -260,26 -415,41z"/>
   <g>
   </g>
   <g>
   </g>
   <g>
   </g>
   <g>
   </g>
   <g>
   </g>
   <g>
   </g>
   <g>
   </g>
   <g>
   </g>
   <g>
   </g>
   <g>
   </g>
   <g>
   </g>
   <g>
   </g>
   <g>
   </g>
   <g>
   </g>
   <g>
   </g>
  </g>
 </g>
</svg>
