<?xml version="1.0" encoding="UTF-8"?>
<!DOCTYPE svg PUBLIC "-//W3C//DTD SVG 1.1//EN" "http://www.w3.org/Graphics/SVG/1.1/DTD/svg11.dtd">
<!-- Creator: CorelDRAW X6 -->
<svg xmlns="http://www.w3.org/2000/svg" xml:space="preserve" width="37.2434mm" height="37.2434mm" version="1.1" style="shape-rendering:geometricPrecision; text-rendering:geometricPrecision; image-rendering:optimizeQuality; fill-rule:evenodd; clip-rule:evenodd"
viewBox="0 0 724 724"
 xmlns:xlink="http://www.w3.org/1999/xlink">
 <defs>
  <style type="text/css">
   <![CDATA[
    .fil5 {fill:none}
    .fil0 {fill:#00CCFF}
    .fil3 {fill:#40A6C0}
    .fil4 {fill:#BEA55C}
    .fil2 {fill:#BFBFBF}
    .fil7 {fill:#CCCCCC}
    .fil6 {fill:#E6E6E6}
    .fil1 {fill:#FCC938}
   ]]>
  </style>
   <clipPath id="id0">
    <path d="M594 85l-1 28 -453 0 0 -34c0,-5 1,-9 2,-14l449 0c2,7 3,13 3,20z"/>
   </clipPath>
   <clipPath id="id1">
    <path d="M146 84l448 0c13,0 24,10 24,23l0 590c0,13 -11,23 -24,23l-448 0c-13,0 -23,-10 -23,-23l0 -590c0,-13 10,-23 23,-23z"/>
   </clipPath>
 </defs>
 <g id="Layer_x0020_1">
  <metadata id="CorelCorpID_0Corel-Layer"/>
  <path class="fil0" d="M594 85l-7 481c-1,41 -34,74 -75,74l-255 -4 -50 -1c-41,0 -74,-34 -74,-75l7 -481c1,-41 34,-74 75,-74l306 5c2,0 5,0 8,0 37,5 65,37 65,75z"/>
  <path class="fil1" d="M597 113l-7 487c-1,42 -35,75 -76,74l-258 -3 -51 -1c-42,-1 -75,-35 -74,-76l7 -487c0,-42 34,-75 76,-74l309 4c2,0 5,0 8,1 37,5 66,37 66,75z"/>
  <g style="clip-path:url(#id0)">
   <polygon class="fil2" points="-354,-428 1087,-428 1087,606 -354,606 "/>
   <g id="Layer_x0020_1_0">
    <metadata id="CorelCorpID_1Corel-Layer"/>
    <path id="1" class="fil3" d="M594 85l-7 481c-1,41 -34,74 -75,74l-255 -4 -50 -1c-41,0 -74,-34 -74,-75l7 -481c1,-41 34,-74 75,-74l306 5c2,0 5,0 8,0 37,5 65,37 65,75z"/>
    <path class="fil4" d="M597 113l-7 487c-1,42 -35,75 -76,74l-258 -3 -51 -1c-42,-1 -75,-35 -74,-76l7 -487c0,-42 34,-75 76,-74l309 4c2,0 5,0 8,1 37,5 66,37 66,75z"/>
   </g>
  </g>
  <path class="fil5" d="M594 85l-1 28 -453 0 0 -34c0,-5 1,-9 2,-14l449 0c2,7 3,13 3,20z"/>
  <rect class="fil5" width="724" height="724"/>
  <path class="fil6" d="M146 84l448 0c13,0 24,10 24,23l0 590c0,13 -11,23 -24,23l-448 0c-13,0 -23,-10 -23,-23l0 -590c0,-13 10,-23 23,-23z"/>
  <g style="clip-path:url(#id1)">
   <g id="_1073803920">
    <rect class="fil7" transform="matrix(0.992546 -0.121869 0.121869 0.992546 -33.9431 300.941)" width="792" height="623"/>
   </g>
  </g>
  <path class="fil5" d="M146 84l448 0c13,0 24,10 24,23l0 590c0,13 -11,23 -24,23l-448 0c-13,0 -23,-10 -23,-23l0 -590c0,-13 10,-23 23,-23z"/>
 </g>
</svg>
