<?xml version="1.0" encoding="UTF-8"?>
<!DOCTYPE svg PUBLIC "-//W3C//DTD SVG 1.1//EN" "http://www.w3.org/Graphics/SVG/1.1/DTD/svg11.dtd">
<!-- Creator: CorelDRAW X6 -->
<svg xmlns="http://www.w3.org/2000/svg" xml:space="preserve" width="32.9425mm" height="32.9425mm" version="1.1" style="shape-rendering:geometricPrecision; text-rendering:geometricPrecision; image-rendering:optimizeQuality; fill-rule:evenodd; clip-rule:evenodd"
viewBox="0 0 1309 1309"
 xmlns:xlink="http://www.w3.org/1999/xlink">
 <defs>
  <style type="text/css">
   <![CDATA[
    .fil9 {fill:none}
    .fil0 {fill:#336699}
    .fil6 {fill:#484B54}
    .fil4 {fill:#66686D}
    .fil3 {fill:#92949B}
    .fil1 {fill:#989869}
    .fil8 {fill:#B5B6BA}
    .fil7 {fill:#D33333}
    .fil5 {fill:#EA3D3D}
    .fil2 {fill:#FCC938}
   ]]>
  </style>
 </defs>
 <g id="Layer_x0020_1">
  <metadata id="CorelCorpID_0Corel-Layer"/>
  <path class="fil0" d="M992 187l-14 954c-1,81 -68,146 -149,144l-504 -7 -100 -1c-81,-1 -146,-68 -145,-149l13 -953c2,-81 68,-146 149,-145l605 8c5,0 11,1 16,2 73,9 130,72 129,147z"/>
  <g id="_1068157616">
   <path class="fil1" d="M1108 187c-5,318 -9,636 -14,954 -1,81 -68,146 -149,144 -168,-2 -336,-4 -504,-7 -33,0 -67,-1 -100,-1 -81,-1 -146,-68 -145,-149 4,-318 9,-636 13,-953 1,-81 68,-146 149,-145 202,3 403,5 605,8 5,0 11,1 16,2 73,9 130,72 129,147z"/>
  </g>
  <path class="fil2" d="M1223 187l-13 954c-1,81 -68,146 -149,144l-504 -7 -100 -1c-82,-1 -146,-68 -145,-149l13 -953c1,-81 68,-146 149,-145l605 8c5,0 11,1 16,2 73,9 130,72 128,147z"/>
  <g id="_1068158544">
   <rect class="fil3" transform="matrix(-0.0477073 0.0859706 -0.0859706 -0.0477073 826.8 491.664)" width="2866" height="1108"/>
   <g>
    <rect class="fil4" transform="matrix(-0.0477073 0.0859706 -0.0859706 -0.0477073 760.463 454.854)" width="2866" height="337"/>
    <rect class="fil4" transform="matrix(-0.0477073 0.0859706 -0.0859706 -0.0477073 826.806 491.658)" width="644" height="1108"/>
   </g>
   <path class="fil5" d="M456 1051c-36,-19 -49,-64 -29,-99l163 -294c3,-6 11,-8 17,-5l4 3 26 14 0 0 69 39 5 2c6,3 8,11 5,17l-163 293c-19,34 -62,48 -97,30z"/>
   <g>
    <path class="fil6" d="M713 281c-73,-41 -168,-31 -230,33 77,11 173,59 215,99l19 -34 41 -73 0 0c-25,-14 -43,-24 -45,-25z"/>
    <path class="fil6" d="M934 373l-86 156 -3 11c14,-13 46,-23 67,-11 22,12 34,34 30,53l2 0 87 -155 -2 -2c-14,13 -39,14 -60,2 -22,-12 -30,-44 -26,-63l-9 9z"/>
   </g>
   <path class="fil7" d="M456 1051c-36,-19 -49,-64 -29,-99l163 -294c3,-6 11,-8 17,-5l4 3 26 14 0 0c0,0 -185,286 -181,381z"/>
   <path class="fil3" d="M1020 637l-81 -45c2,-3 3,-6 3,-10l47 -84 29 -53 11 -20c3,-2 6,-5 8,-9l80 45 -16 30 -29 53 -52 93z"/>
   <polygon class="fil8" points="1072,544 989,498 1018,445 1101,491 "/>
   <path class="fil3" d="M776 272l-18 34 -41 73 -19 34 -19 35 36 20 0 0 95 53 0 0 35 19c2,-3 96,-173 98,-176 0,0 -105,-58 -167,-92z"/>
   <g>
   </g>
   <g>
   </g>
   <g>
   </g>
   <g>
   </g>
   <g>
   </g>
   <g>
   </g>
   <g>
   </g>
   <g>
   </g>
   <g>
   </g>
   <g>
   </g>
   <g>
   </g>
   <g>
   </g>
   <g>
   </g>
   <g>
   </g>
   <g>
   </g>
  </g>
  <rect class="fil9" width="1309" height="1309"/>
 </g>
</svg>
