<?xml version="1.0" encoding="UTF-8"?>
<!DOCTYPE svg PUBLIC "-//W3C//DTD SVG 1.1//EN" "http://www.w3.org/Graphics/SVG/1.1/DTD/svg11.dtd">
<!-- Creator: CorelDRAW X6 -->
<svg xmlns="http://www.w3.org/2000/svg" xml:space="preserve" width="56.5816mm" height="62.1287mm" version="1.1" style="shape-rendering:geometricPrecision; text-rendering:geometricPrecision; image-rendering:optimizeQuality; fill-rule:evenodd; clip-rule:evenodd"
viewBox="0 0 26470 29065"
 xmlns:xlink="http://www.w3.org/1999/xlink">
 <defs>
  <style type="text/css">
   <![CDATA[
    .fil2 {fill:#00CCFF}
    .fil1 {fill:#1A99CC}
    .fil0 {fill:#336699}
    .fil6 {fill:#484B54}
    .fil4 {fill:#66686D}
    .fil3 {fill:#92949B}
    .fil8 {fill:#B5B6BA}
    .fil7 {fill:#D33333}
    .fil5 {fill:#EA3D3D}
   ]]>
  </style>
 </defs>
 <g id="Layer_x0020_1">
  <metadata id="CorelCorpID_0Corel-Layer"/>
  <path class="fil0" d="M21104 3650l-314 22060c-26,1879 -1571,3382 -3450,3355l-11664 -166 -2321 -33c-1880,-27 -3381,-1571 -3355,-3451l314 -22060c27,-1879 1571,-3381 3450,-3355l13985 199c128,3 255,11 379,28 1698,212 3000,1671 2976,3423z"/>
  <g id="_1073003360">
   <path class="fil1" d="M23787 3650c-105,7353 -209,14707 -313,22060 -27,1879 -1572,3382 -3451,3355 -3888,-55 -7776,-111 -11664,-166 -774,-11 -1547,-22 -2321,-33 -1880,-27 -3381,-1571 -3355,-3451 105,-7354 210,-14707 314,-22060 27,-1879 1571,-3381 3450,-3355 4662,67 9324,133 13985,199 128,3 255,11 379,28 1698,211 3000,1671 2976,3423z"/>
  </g>
  <path class="fil2" d="M26470 3650l-313 22060c-27,1879 -1572,3382 -3451,3355l-11664 -166 -2321 -33c-1880,-27 -3381,-1571 -3355,-3451l314 -22060c27,-1879 1571,-3381 3450,-3355l13985 199c128,3 255,11 379,28 1698,212 3000,1671 2976,3423z"/>
  <g id="_1073002688">
   <rect class="fil3" transform="matrix(-0.0937628 0.168965 -0.168965 -0.0937628 17288.6 10691.5)" width="33755" height="13054"/>
   <g>
    <rect class="fil4" transform="matrix(-0.0937628 0.168965 -0.168965 -0.0937628 15753.2 9839.51)" width="33755" height="3968"/>
    <rect class="fil4" transform="matrix(-0.0937628 0.168965 -0.168965 -0.0937628 17288.8 10691.3)" width="7589" height="13054"/>
   </g>
   <path class="fil5" d="M8713 23628c-830,-436 -1137,-1470 -684,-2286l3776 -6804c76,-137 249,-187 385,-111l108 60 599 332 0 1 1606 891 108 59c136,76 186,249 110,386l-3761 6777c-442,796 -1440,1118 -2247,695z"/>
   <g>
    <path class="fil6" d="M14654 5816c-1697,-942 -3894,-721 -5316,772 1766,247 3996,1351 4969,2291l437 -788 943 -1702 -1 -1c-571,-317 -987,-548 -1032,-572z"/>
    <path class="fil6" d="M19766 7948l-1996 3597 -63 273c329,-301 1058,-532 1561,-253 500,277 772,780 694,1216l48 8 1996 -3598 -34 -40c-331,290 -895,323 -1391,48 -503,-280 -692,-1024 -609,-1463l-206 212z"/>
   </g>
   <path class="fil7" d="M8713 23628c-830,-436 -1137,-1470 -684,-2286l3776 -6804c76,-137 249,-187 385,-111l108 60 599 332 0 1c0,0 -4275,6612 -4184,8808z"/>
   <path class="fil3" d="M21751 14063l-1872 -1039c41,-77 69,-159 84,-243l1077 -1946 677 -1224 255 -460c69,-59 127,-129 172,-210l1873 1040 -385 693 -679 1223 -1202 2166z"/>
   <polygon class="fil8" points="22953,11897 21040,10835 21717,9611 23632,10674 "/>
   <path class="fil3" d="M16123 5601l-436 788 -943 1702 -437 788 -447 805 843 468 1 -1 2205 1224 0 1 798 442c42,-73 2225,-4007 2265,-4082 0,0 -2415,-1340 -3849,-2135z"/>
   <g>
   </g>
   <g>
   </g>
   <g>
   </g>
   <g>
   </g>
   <g>
   </g>
   <g>
   </g>
   <g>
   </g>
   <g>
   </g>
   <g>
   </g>
   <g>
   </g>
   <g>
   </g>
   <g>
   </g>
   <g>
   </g>
   <g>
   </g>
   <g>
   </g>
  </g>
 </g>
</svg>
