<?xml version="1.0" encoding="UTF-8"?>
<!DOCTYPE svg PUBLIC "-//W3C//DTD SVG 1.1//EN" "http://www.w3.org/Graphics/SVG/1.1/DTD/svg11.dtd">
<!-- Creator: CorelDRAW X6 -->
<svg xmlns="http://www.w3.org/2000/svg" xml:space="preserve" width="39.2009mm" height="39.2009mm" version="1.1" style="shape-rendering:geometricPrecision; text-rendering:geometricPrecision; image-rendering:optimizeQuality; fill-rule:evenodd; clip-rule:evenodd"
viewBox="0 0 1804 1804"
 xmlns:xlink="http://www.w3.org/1999/xlink">
 <defs>
  <style type="text/css">
   <![CDATA[
    .fil1 {fill:none}
    .fil10 {fill:#0096E6}
    .fil0 {fill:#00ABD6}
    .fil6 {fill:#556080}
    .fil5 {fill:#AAB2BD}
    .fil4 {fill:#CCD1D9}
    .fil3 {fill:#E6E9ED}
    .fil7 {fill:#F0C419}
    .fil8 {fill:#F18D46}
    .fil9 {fill:#F29C1F}
    .fil2 {fill:#FCC938}
   ]]>
  </style>
 </defs>
 <g id="Layer_x0020_1">
  <metadata id="CorelCorpID_0Corel-Layer"/>
  <rect class="fil0" transform="matrix(1.16576 -0.234884 0.199429 0.989789 260.301 229.15)" width="901" height="1227" rx="88" ry="88"/>
  <rect class="fil1" width="1804" height="1804"/>
  <rect class="fil2" transform="matrix(1.16576 -0.234884 0.199429 0.989789 138.521 208.293)" width="901" height="1227" rx="88" ry="88"/>
  <polygon class="fil3" points="115,343 1162,132 1427,1447 380,1658 "/>
  <polygon class="fil4" points="1427,1447 1678,1568 631,1779 380,1658 "/>
  <polygon class="fil5" points="1413,253 1678,1568 1427,1447 1162,132 "/>
  <g id="_840286768">
   <g>
    <rect class="fil6" transform="matrix(0.0907717 -0.0183028 0.0246494 0.122248 705.638 668.287)" width="333" height="3998"/>
    <polygon class="fil6" points="1167,1084 1137,1090 1092,866 457,994 502,1218 472,1224 418,959 1114,819 "/>
    <rect class="fil7" transform="matrix(0.0907717 -0.0183028 0.0246494 0.122248 380.775 1242.44)" width="2332" height="2332"/>
    <rect class="fil8" transform="matrix(0.0907717 -0.0183028 0.0246494 0.122248 1046.15 1108.28)" width="2332" height="2332"/>
    <rect class="fil9" transform="matrix(0.0907717 -0.0183028 0.0246494 0.122248 713.461 1175.36)" width="2332" height="2332"/>
    <rect class="fil10" transform="matrix(0.0907717 -0.0183028 0.0246494 0.122248 557.415 401.461)" width="2332" height="2332"/>
   </g>
   <g>
   </g>
   <g>
   </g>
   <g>
   </g>
   <g>
   </g>
   <g>
   </g>
   <g>
   </g>
   <g>
   </g>
   <g>
   </g>
   <g>
   </g>
   <g>
   </g>
   <g>
   </g>
   <g>
   </g>
   <g>
   </g>
   <g>
   </g>
   <g>
   </g>
  </g>
 </g>
</svg>
