<svg height="512pt" viewBox="-27 0 512 512" width="512pt" xmlns="http://www.w3.org/2000/svg"><path d="m458.941406 365.855469v131.070312c0 8.320313-6.753906 15.074219-15.074218 15.074219h-428.792969c-8.320313 0-15.074219-6.753906-15.074219-15.074219v-131.070312c0-8.320313 6.753906-15.074219 15.074219-15.074219h428.792969c8.320312 0 15.074218 6.753906 15.074218 15.074219zm0 0" fill="#55696e"/><path d="m458.941406 365.855469v131.070312c0 8.320313-6.753906 15.074219-15.074218 15.074219h-214.398438v-161.21875h214.398438c8.320312 0 15.074218 6.753906 15.074218 15.074219zm0 0" fill="#425257"/><path d="m162.1875 377.632812h-54.472656c-8.324219 0-15.074219 6.746094-15.074219 15.070313s6.75 15.074219 15.074219 15.074219h12.164062v63.308594c0 8.324218 6.75 15.074218 15.074219 15.074218s15.074219-6.75 15.074219-15.074218v-63.308594h12.160156c8.324219 0 15.074219-6.75 15.074219-15.074219s-6.75-15.070313-15.074219-15.070313zm0 0" fill="#fff"/><path d="m351.226562 377.632812h-54.472656c-8.324218 0-15.074218 6.746094-15.074218 15.070313s6.75 15.074219 15.074218 15.074219h12.164063v63.308594c0 8.324218 6.746093 15.074218 15.070312 15.074218 8.328125 0 15.074219-6.75 15.074219-15.074218v-63.308594h12.164062c8.324219 0 15.074219-6.75 15.074219-15.074219s-6.75-15.070313-15.074219-15.070313zm0 0" fill="#e8f3ff"/><path d="m269.082031 462.488281c4.753907 6.832031 3.066407 16.230469-3.777343 20.972657-6.832032 4.753906-16.21875 3.066406-20.972657-3.769532l-14.863281-21.382812-14.859375 21.382812c-4.746094 6.835938-14.140625 8.53125-20.984375 3.769532-6.832031-4.742188-8.519531-14.140626-3.769531-20.972657l21.253906-30.589843-21.253906-30.589844c-4.75-6.84375-3.0625-16.226563 3.769531-20.980469 6.84375-4.753906 16.230469-3.066406 20.984375 3.777344l14.859375 21.375 14.863281-21.375c4.746094-6.84375 14.140625-8.53125 20.972657-3.777344 6.84375 4.753906 8.53125 14.136719 3.777343 20.980469l-21.25 30.589844zm0 0" fill="#fff"/><path d="m269.082031 462.488281c4.753907 6.832031 3.066407 16.230469-3.777343 20.972657-6.832032 4.753906-16.21875 3.066406-20.972657-3.769532l-14.863281-21.382812v-52.828125l14.863281-21.375c4.746094-6.84375 14.140625-8.53125 20.972657-3.777344 6.84375 4.753906 8.53125 14.136719 3.777343 20.980469l-21.25 30.589844zm0 0" fill="#e8f3ff"/><path d="m374.476562 102.914062v217.722657h-290.015624v-305.5625c0-8.320313 6.753906-15.074219 15.074218-15.074219h172.03125c2.171875 0 4.300782.472656 6.238282 1.355469 1.628906.746093 3.117187 1.769531 4.414062 3.054687l87.847656 87.851563c1.296875 1.285156 2.320313 2.78125 3.054688 4.410156.886718 1.941406 1.355468 4.070313 1.355468 6.242187zm0 0" fill="#e8f3ff"/><path d="m374.476562 102.914062v217.722657h-145.007812v-320.636719h42.097656c2.171875 0 4.300782.472656 6.238282 1.355469 1.628906.746093 3.117187 1.769531 4.414062 3.054687l87.847656 87.851563c1.296875 1.285156 2.320313 2.78125 3.054688 4.410156.886718 1.941406 1.355468 4.070313 1.355468 6.242187zm0 0" fill="#d1e9ff"/><path d="m373.121094 96.671875h-80.242188c-8.320312 0-15.074218-6.753906-15.074218-15.074219v-80.242187c1.628906.746093 3.117187 1.769531 4.414062 3.054687l87.847656 87.851563c1.296875 1.285156 2.320313 2.78125 3.054688 4.410156zm0 0" fill="#9ed0ff"/><path d="m318.65625 165.507812c0 8.332032-6.742188 15.074219-15.074219 15.074219h-148.222656c-8.332031 0-15.074219-6.742187-15.074219-15.074219 0-8.320312 6.742188-15.074218 15.074219-15.074218h148.222656c8.332031 0 15.074219 6.753906 15.074219 15.074218zm0 0" fill="#55696e"/><path d="m303.582031 180.582031h-74.113281v-30.148437h74.113281c8.332031 0 15.074219 6.753906 15.074219 15.074218 0 8.332032-6.742188 15.074219-15.074219 15.074219zm0 0" fill="#425257"/><path d="m318.65625 236.40625c0 8.320312-6.742188 15.070312-15.074219 15.070312h-148.222656c-8.332031 0-15.074219-6.75-15.074219-15.070312 0-8.324219 6.742188-15.074219 15.074219-15.074219h148.222656c8.332031 0 15.074219 6.75 15.074219 15.074219zm0 0" fill="#55696e"/><path d="m318.65625 236.40625c0 8.320312-6.742188 15.070312-15.074219 15.070312h-74.113281v-30.144531h74.113281c8.332031 0 15.074219 6.75 15.074219 15.074219zm0 0" fill="#425257"/></svg>