<svg height="512pt" viewBox="-27 0 512 512" width="512pt" xmlns="http://www.w3.org/2000/svg"><path d="m402.332031 15.058594v305.664062h-346.171875v-305.664062c0-8.324219 6.746094-15.058594 15.058594-15.058594h316.054688c8.3125 0 15.058593 6.734375 15.058593 15.058594zm0 0" fill="#e8f3ff"/><path d="m402.332031 15.058594v305.664062h-173.085937v-320.722656h158.027344c8.3125 0 15.058593 6.734375 15.058593 15.058594zm0 0" fill="#d1e9ff"/><path d="m458.492188 365.917969v131.011719c0 8.324218-6.746094 15.070312-15.058594 15.070312h-428.375c-8.3125 0-15.058594-6.746094-15.058594-15.070312v-131.011719c0-8.3125 6.746094-15.058594 15.058594-15.058594h428.375c8.3125 0 15.058594 6.746094 15.058594 15.058594zm0 0" fill="#006eff"/><path d="m458.492188 365.917969v131.011719c0 8.324218-6.746094 15.070312-15.058594 15.070312h-214.1875v-161.140625h214.1875c8.3125 0 15.058594 6.746094 15.058594 15.058594zm0 0" fill="#005fe4"/><path d="m169.511719 373.730469c-8.308594-.484375-15.429688 5.839843-15.921875 14.144531l-2.992188 50.523438-11.660156-12.359376c-5.945312-6.300781-15.96875-6.296874-21.910156 0l-11.660156 12.359376-2.992188-50.527344c-.488281-8.300782-7.605469-14.640625-15.921875-14.140625-8.300781.492187-14.632813 7.621093-14.140625 15.921875l5.050781 85.332031c.777344 13.148437 16.945313 19.023437 25.988281 9.445313l24.632813-26.117188 24.632813 26.117188c9.050781 9.59375 25.207031 3.707031 25.988281-9.445313l5.050781-85.332031c.488281-8.300782-5.839844-15.429688-14.144531-15.921875zm0 0" fill="#fff"/><path d="m243.84375 373.710938c-5.109375 0-10.019531.863281-14.597656 2.4375-17.507813 6.066406-30.117188 22.71875-30.117188 42.265624v55.6875c0 8.3125 6.746094 15.058594 15.058594 15.058594s15.058594-6.746094 15.058594-15.058594v-17.507812h29.183594v17.507812c0 8.3125 6.746093 15.058594 15.058593 15.058594 8.324219 0 15.058594-6.746094 15.058594-15.058594v-55.6875c0-24.65625-20.058594-44.703124-44.703125-44.703124zm14.585938 52.765624h-29.183594v-8.0625c0-8.042968 6.546875-14.585937 14.597656-14.585937 8.039062 0 14.585938 6.542969 14.585938 14.585937zm0 0" fill="#fff"/><path d="m288.546875 418.414062v55.6875c0 8.3125-6.734375 15.058594-15.058594 15.058594-8.3125 0-15.058593-6.746094-15.058593-15.058594v-17.507812h-29.183594v-30.117188h29.183594v-8.0625c0-8.042968-6.546876-14.585937-14.585938-14.585937-8.050781 0-14.597656 6.542969-14.597656 14.585937v-42.265624c4.578125-1.574219 9.488281-2.4375 14.597656-2.4375 24.644531 0 44.703125 20.046874 44.703125 44.703124zm0 0" fill="#d1e9ff"/><path d="m377.335938 374.539062c-7.851563-2.730468-16.4375 1.425782-19.164063 9.28125l-15.429687 44.398438-15.429688-44.398438c-2.730469-7.855468-11.3125-12.011718-19.164062-9.28125-7.859376 2.730469-12.011719 11.3125-9.285157 19.167969l29.652344 85.332031c4.667969 13.429688 23.769531 13.472657 28.449219 0l29.65625-85.332031c2.726562-7.855469-1.429688-16.4375-9.285156-19.167969zm0 0" fill="#d1e9ff"/><g fill="#ff6f44"><path d="m138.222656 200.738281c-8.316406 0-15.058594-6.742187-15.058594-15.058593v-37.476563c0-8.316406 6.742188-15.058594 15.058594-15.058594s15.058594 6.742188 15.058594 15.058594v37.476563c0 8.316406-6.742188 15.058593-15.058594 15.058593zm0 0"/><path d="m183.734375 237.550781c-8.316406 0-15.058594-6.742187-15.058594-15.058593v-111.101563c0-8.316406 6.742188-15.058594 15.058594-15.058594s15.058594 6.742188 15.058594 15.058594v111.101563c0 8.316406-6.742188 15.058593-15.058594 15.058593zm0 0"/><path d="m244.304688 148.199219v37.484375c0 8.3125-6.746094 15.0625-15.058594 15.0625s-15.058594-6.75-15.058594-15.0625v-37.484375c0-8.3125 6.746094-15.058594 15.058594-15.058594s15.058594 6.746094 15.058594 15.058594zm0 0"/></g><path d="m244.304688 148.199219v37.484375c0 8.3125-6.746094 15.0625-15.058594 15.0625v-67.605469c8.3125 0 15.058594 6.746094 15.058594 15.058594zm0 0" fill="#ff451b"/><path d="m274.757812 237.550781c-8.316406 0-15.058593-6.742187-15.058593-15.058593v-111.101563c0-8.316406 6.742187-15.058594 15.058593-15.058594 8.316407 0 15.058594 6.742188 15.058594 15.058594v111.101563c0 8.316406-6.742187 15.058593-15.058594 15.058593zm0 0" fill="#ff451b"/><path d="m320.269531 200.738281c-8.316406 0-15.058593-6.742187-15.058593-15.058593v-37.476563c0-8.316406 6.742187-15.058594 15.058593-15.058594 8.316407 0 15.058594 6.742188 15.058594 15.058594v37.476563c0 8.316406-6.742187 15.058593-15.058594 15.058593zm0 0" fill="#ff451b"/></svg>