<svg height="512pt" viewBox="-27 0 512 512" width="512pt" xmlns="http://www.w3.org/2000/svg"><path d="m32.789062 44.875h392.5v274.625h-392.5zm0 0" fill="#ffc43b"/><path d="m229.039062 44.875h196.25v274.625h-196.25zm0 0" fill="#ffa433"/><path d="m458.078125 366.050781v130.894531c0 8.3125-6.742187 15.054688-15.046875 15.054688h-427.984375c-8.304687 0-15.046875-6.742188-15.046875-15.054688v-130.894531c0-8.304687 6.742188-15.046875 15.046875-15.046875h427.984375c8.304688 0 15.046875 6.742188 15.046875 15.046875zm0 0" fill="#55696e"/><path d="m458.078125 366.050781v130.894531c0 8.3125-6.742187 15.054688-15.046875 15.054688h-213.992188v-160.996094h213.992188c8.304688 0 15.046875 6.742188 15.046875 15.046875zm0 0" fill="#425257"/><path d="m293.644531 214.375-64.605469 37.824219-27.210937 15.9375c-7.324219 4.292969-16.539063-.992188-16.539063-9.488281v-107.515626c0-8.484374 9.214844-13.769531 16.539063-9.476562l27.210937 15.925781 64.605469 37.824219c7.242188 4.253906 7.242188 14.726562 0 18.96875zm0 0" fill="#55696e"/><path d="m293.644531 214.375-64.605469 37.824219v-94.613281l64.605469 37.824218c7.242188 4.25 7.242188 14.722656 0 18.964844zm0 0" fill="#425257"/><path d="m425.289062 10.03125v79.71875h-65.5625l-35.433593-8.023438-36.195313 8.023438h-82.300781l-38.394531-8.023438-33.234375 8.023438h-101.378907v-79.71875c0-5.539062 4.484376-10.03125 10.03125-10.03125h55.53125l34.183594 8.023438 37.445313-8.023438h82.300781l36.09375 8.023438 35.535156-8.023438h91.347656c5.546876 0 10.03125 4.492188 10.03125 10.03125zm0 0" fill="#55696e"/><path d="m425.289062 10.03125v79.71875h-65.5625l-34.902343-8.023438-36.726563 8.023438h-59.058594v-89.75h23.242188l35.035156 8.023438 36.59375-8.023438h91.347656c5.546876 0 10.03125 4.492188 10.03125 10.03125zm0 0" fill="#425257"/><path d="m359.726562 89.75h-71.628906l-35.816406-89.75h71.628906zm0 0" fill="#e8f3ff"/><path d="m205.796875 89.75h-71.628906l-35.816407-89.75h71.628907zm0 0" fill="#fff"/><path d="m139.246094 378.824219-25.15625 27.992187-25.160156-27.992187c-9.183594-10.214844-26.234376-3.726563-26.234376 10.054687v85.257813c0 8.308593 6.734376 15.046875 15.042969 15.046875 8.308594 0 15.046875-6.738282 15.046875-15.046875v-46.007813l10.113282 11.253906c5.980468 6.652344 16.414062 6.640626 22.378906 0l10.117187-11.253906v46.007813c0 8.308593 6.734375 15.046875 15.042969 15.046875s15.046875-6.738282 15.046875-15.046875v-85.253907c0-13.742187-17.027344-20.304687-26.238281-10.058593zm0 0" fill="#fff"/><path d="m380.339844 426.558594h-4.363282v-37.152344c0-8.308594-6.734374-15.042969-15.046874-15.042969-8.308594 0-15.042969 6.734375-15.042969 15.042969v37.152344h-20.292969l8.21875-32.988282c2.007812-8.0625-2.898438-16.226562-10.960938-18.234374-8.0625-2.007813-16.226562 2.898437-18.238281 10.960937l-12.871093 51.671875c-2.367188 9.492188 4.832031 18.683594 14.597656 18.683594h39.546875v16.957031c0 8.308594 6.734375 15.046875 15.042969 15.046875 8.3125 0 15.046874-6.738281 15.046874-15.046875v-16.957031h4.363282c8.308594 0 15.042968-6.738282 15.042968-15.046875 0-8.308594-6.734374-15.046875-15.042968-15.046875zm0 0" fill="#e8f3ff"/><path d="m235.136719 373.835938h-32.886719c-8.316406 0-15.046875 6.742187-15.046875 15.046874v85.253907c0 8.304687 6.730469 15.046875 15.046875 15.046875 8.304688 0 15.042969-6.742188 15.042969-15.046875v-17.480469h17.84375c22.828125 0 41.40625-18.578125 41.40625-41.414062 0-22.828126-18.578125-41.40625-41.40625-41.40625zm0 52.726562h-17.84375v-22.636719h17.84375c6.238281 0 11.316406 5.074219 11.316406 11.3125 0 6.242188-5.078125 11.324219-11.316406 11.324219zm0 0" fill="#fff"/><path d="m276.542969 415.238281c0 22.839844-18.578125 41.417969-41.40625 41.417969h-6.097657v-30.09375h6.097657c6.238281 0 11.316406-5.082031 11.316406-11.324219 0-6.238281-5.078125-11.3125-11.316406-11.3125h-6.097657v-30.089843h6.097657c22.828125 0 41.40625 18.578124 41.40625 41.402343zm0 0" fill="#e8f3ff"/></svg>