<svg height="512pt" viewBox="-27 0 512 512" width="512pt" xmlns="http://www.w3.org/2000/svg"><path d="m458.941406 365.855469v131.070312c0 8.320313-6.753906 15.074219-15.074218 15.074219h-428.792969c-8.320313 0-15.074219-6.753906-15.074219-15.074219v-131.070312c0-8.320313 6.753906-15.074219 15.074219-15.074219h428.792969c8.320312 0 15.074218 6.753906 15.074218 15.074219zm0 0" fill="#ff6f44"/><path d="m458.941406 365.855469v131.070312c0 8.320313-6.753906 15.074219-15.074218 15.074219h-214.398438v-161.21875h214.398438c8.320312 0 15.074218 6.753906 15.074218 15.074219zm0 0" fill="#ff451b"/><path d="m128.644531 373.609375h-32.953125c-8.324218 0-15.070312 6.75-15.070312 15.074219v85.417968c0 8.324219 6.746094 15.070313 15.070312 15.070313 8.328125 0 15.074219-6.746094 15.074219-15.070313v-17.523437h17.878906c22.875 0 41.484375-18.609375 41.484375-41.484375s-18.609375-41.484375-41.484375-41.484375zm0 52.824219h-17.878906v-22.675782h17.878906c6.253907 0 11.339844 5.085938 11.339844 11.339844 0 6.25-5.085937 11.335938-11.339844 11.335938zm0 0" fill="#fff"/><path d="m230.566406 373.613281h-29.683594c-8.324218 0-15.074218 6.742188-15.074218 15.074219v85.417969c0 8.320312 6.75 15.074219 15.074218 15.074219h29.683594c24.679688 0 44.757813-20.078126 44.757813-44.757813v-26.058594c0-24.679687-20.078125-44.75-44.757813-44.75zm14.609375 70.808594c0 8.046875-6.5625 14.609375-14.609375 14.609375h-14.613281v-55.269531h14.613281c8.046875 0 14.609375 6.550781 14.609375 14.601562zm0 0" fill="#fff"/><g fill="#e8f3ff"><path d="m275.324219 418.363281v26.058594c0 24.679687-20.078125 44.757813-44.757813 44.757813h-1.097656v-30.148438h1.097656c8.046875 0 14.609375-6.5625 14.609375-14.609375v-26.058594c0-8.050781-6.5625-14.601562-14.609375-14.601562h-1.097656v-30.148438h1.097656c24.679688 0 44.757813 20.070313 44.757813 44.75zm0 0"/><path d="m363.246094 418.234375h-38.550782v-14.476563h38.550782c8.328125 0 15.074218-6.75 15.074218-15.074218 0-8.324219-6.746093-15.074219-15.074218-15.074219h-53.625c-8.324219 0-15.074219 6.75-15.074219 15.074219v85.417968c0 8.324219 6.75 15.070313 15.074219 15.070313 8.324218 0 15.074218-6.746094 15.074218-15.070313v-25.71875h38.550782c8.328125 0 15.074218-6.75 15.074218-15.074218 0-8.324219-6.746093-15.074219-15.074218-15.074219zm0 0"/><path d="m374.476562 102.914062v217.722657h-290.015624v-305.5625c0-8.320313 6.753906-15.074219 15.074218-15.074219h172.03125c2.171875 0 4.300782.472656 6.238282 1.355469 1.628906.746093 3.117187 1.769531 4.414062 3.054687l87.847656 87.851563c1.296875 1.285156 2.320313 2.78125 3.054688 4.410156.886718 1.941406 1.355468 4.070313 1.355468 6.242187zm0 0"/></g><path d="m374.476562 102.914062v217.722657h-145.007812v-320.636719h42.097656c2.171875 0 4.300782.472656 6.238282 1.355469 1.628906.746093 3.117187 1.769531 4.414062 3.054687l87.847656 87.851563c1.296875 1.285156 2.320313 2.78125 3.054688 4.410156.886718 1.941406 1.355468 4.070313 1.355468 6.242187zm0 0" fill="#d1e9ff"/><path d="m373.121094 96.671875h-80.242188c-8.320312 0-15.074218-6.753906-15.074218-15.074219v-80.242187c1.628906.746093 3.117187 1.769531 4.414062 3.054687l87.847656 87.851563c1.296875 1.285156 2.320313 2.78125 3.054688 4.410156zm0 0" fill="#9ed0ff"/><path d="m204.386719 191.167969h-72.941407c-5.550781 0-10.050781-4.5-10.050781-10.046875v-65.960938c0-5.550781 4.5-10.050781 10.050781-10.050781h72.941407c5.550781 0 10.050781 4.5 10.050781 10.050781v65.960938c0 5.546875-4.5 10.046875-10.050781 10.046875zm0 0" fill="#ff6f44"/><path d="m265.125 143.15625h57.347656c8.324219 0 15.074219-6.75 15.074219-15.074219s-6.75-15.070312-15.074219-15.070312h-57.347656c-8.324219 0-15.074219 6.746093-15.074219 15.070312s6.75 15.074219 15.074219 15.074219zm0 0" fill="#ff451b"/><path d="m322.472656 161.019531h-57.347656c-8.324219 0-15.074219 6.75-15.074219 15.074219s6.75 15.074219 15.074219 15.074219h57.347656c8.324219 0 15.074219-6.75 15.074219-15.074219s-6.75-15.074219-15.074219-15.074219zm0 0" fill="#ff451b"/><path d="m337.546875 224.105469c0 8.332031-6.75 15.074219-15.074219 15.074219h-186.007812c-8.320313 0-15.070313-6.742188-15.070313-15.074219 0-8.320313 6.75-15.074219 15.070313-15.074219h186.007812c8.324219 0 15.074219 6.753906 15.074219 15.074219zm0 0" fill="#ff6f44"/><path d="m322.472656 239.179688h-93.003906v-30.148438h93.003906c8.324219 0 15.074219 6.753906 15.074219 15.074219 0 8.332031-6.75 15.074219-15.074219 15.074219zm0 0" fill="#ff451b"/><path d="m337.546875 272.121094c0 8.320312-6.75 15.070312-15.074219 15.070312h-186.007812c-8.320313 0-15.070313-6.75-15.070313-15.070312 0-8.320313 6.75-15.074219 15.070313-15.074219h186.007812c8.324219 0 15.074219 6.753906 15.074219 15.074219zm0 0" fill="#ff6f44"/><path d="m337.546875 272.121094c0 8.320312-6.75 15.070312-15.074219 15.070312h-93.003906v-30.144531h93.003906c8.324219 0 15.074219 6.753906 15.074219 15.074219zm0 0" fill="#ff451b"/></svg>