<svg height="512pt" viewBox="-27 0 512 512" width="512pt" xmlns="http://www.w3.org/2000/svg"><path d="m374.476562 102.914062v217.722657h-290.015624v-305.5625c0-8.320313 6.753906-15.074219 15.074218-15.074219h172.03125c2.171875 0 4.300782.472656 6.238282 1.355469 1.628906.746093 3.117187 1.769531 4.414062 3.054687l87.847656 87.851563c1.296875 1.285156 2.320313 2.78125 3.054688 4.410156.886718 1.941406 1.355468 4.070313 1.355468 6.242187zm0 0" fill="#e8f3ff"/><path d="m374.476562 102.914062v217.722657h-145.007812v-320.636719h42.097656c2.171875 0 4.300782.472656 6.238282 1.355469 1.628906.746093 3.117187 1.769531 4.414062 3.054687l87.847656 87.851563c1.296875 1.285156 2.320313 2.78125 3.054688 4.410156.886718 1.941406 1.355468 4.070313 1.355468 6.242187zm0 0" fill="#d1e9ff"/><path d="m373.121094 96.671875h-80.242188c-8.320312 0-15.074218-6.753906-15.074218-15.074219v-80.242187c1.628906.746093 3.117187 1.769531 4.414062 3.054687l87.847656 87.851563c1.296875 1.285156 2.320313 2.78125 3.054688 4.410156zm0 0" fill="#9ed0ff"/><path d="m458.941406 365.855469v131.070312c0 8.320313-6.753906 15.074219-15.074218 15.074219h-428.792969c-8.320313 0-15.074219-6.753906-15.074219-15.074219v-131.070312c0-8.320313 6.753906-15.074219 15.074219-15.074219h428.792969c8.320312 0 15.074218 6.753906 15.074218 15.074219zm0 0" fill="#ff6f44"/><path d="m458.941406 365.855469v131.070312c0 8.320313-6.753906 15.074219-15.074218 15.074219h-214.398438v-161.21875h214.398438c8.320312 0 15.074218 6.753906 15.074218 15.074219zm0 0" fill="#ff451b"/><path d="m130.566406 377.632812h-30.238281c-8.324219 0-15.074219 6.746094-15.074219 15.070313v78.382813c0 8.324218 6.75 15.074218 15.074219 15.074218s15.074219-6.75 15.074219-15.074218v-14.835938h15.164062c21.675782 0 39.308594-17.632812 39.308594-39.308594 0-21.675781-17.632812-39.308594-39.308594-39.308594zm0 48.472657h-15.164062v-18.328125h15.164062c5.050782 0 9.160156 4.109375 9.160156 9.164062 0 5.050782-4.109374 9.164063-9.160156 9.164063zm0 0" fill="#fff"/><path d="m232.476562 377.632812h-30.238281c-8.332031 0-15.074219 6.742188-15.074219 15.074219v78.382813c0 8.320312 6.742188 15.074218 15.074219 15.074218 8.320313 0 15.074219-6.753906 15.074219-15.074218v-14.84375h15.164062c21.675782 0 39.300782-17.625 39.300782-39.300782 0-21.675781-17.625-39.3125-39.300782-39.3125zm0 48.46875h-15.164062v-18.320312h15.164062c5.042969 0 9.152344 4.109375 9.152344 9.164062 0 5.046876-4.109375 9.15625-9.152344 9.15625zm0 0" fill="#fff"/><path d="m271.777344 416.945312c0 21.675782-17.625 39.300782-39.300782 39.300782h-3.007812v-30.144532h3.007812c5.042969 0 9.152344-4.109374 9.152344-9.15625 0-5.054687-4.109375-9.164062-9.152344-9.164062h-3.007812v-30.148438h3.007812c21.675782 0 39.300782 17.636719 39.300782 39.3125zm0 0" fill="#e8f3ff"/><path d="m358.613281 377.632812h-54.472656c-8.328125 0-15.074219 6.746094-15.074219 15.070313s6.746094 15.074219 15.074219 15.074219h12.160156v63.308594c0 8.324218 6.75 15.074218 15.074219 15.074218s15.074219-6.75 15.074219-15.074218v-63.308594h12.164062c8.324219 0 15.074219-6.75 15.074219-15.074219s-6.75-15.070313-15.074219-15.070313zm0 0" fill="#e8f3ff"/><path d="m294.308594 208.074219c0 35.816406-29.023438 64.847656-64.839844 64.847656-35.8125 0-64.835938-29.03125-64.835938-64.847656 0-35.804688 29.023438-64.835938 64.835938-64.835938 35.816406 0 64.839844 29.03125 64.839844 64.835938zm0 0" fill="#ffc295"/><path d="m294.308594 208.074219c0 35.816406-29.023438 64.847656-64.839844 64.847656v-129.683594c35.816406 0 64.839844 29.03125 64.839844 64.835938zm0 0" fill="#ff986d"/><path d="m311.527344 208.078125h-77.03125c-2.777344 0-5.027344-2.25-5.027344-5.023437v-77.035157c0-2.917969 2.476562-5.191406 5.390625-5.015625 43.886719 2.675782 79.007813 37.800782 81.683594 81.6875.175781 2.910156-2.097657 5.386719-5.015625 5.386719zm0 0" fill="#ff451b"/></svg>