<svg id="Capa_1" enable-background="new 0 0 512 512" height="512" viewBox="0 0 512 512" width="512" xmlns="http://www.w3.org/2000/svg"><path d="m204.374 297.626h-167.317c-5.523 0-10-4.477-10-10v-63.252c0-5.523 4.477-10 10-10h167.317c5.523 0 10 4.477 10 10v63.252c0 5.523-4.477 10-10 10z" fill="#aad540"/><path d="m297.626 395.006h-38.062v-278.012h38.062c4.268 0 7.726-3.459 7.726-7.726s-3.459-7.726-7.726-7.726h-45.789c-4.268 0-7.726 3.459-7.726 7.726v139.006h-29.736c-4.268 0-7.726 3.459-7.726 7.726s3.459 7.726 7.726 7.726h29.736v139.006c0 4.267 3.459 7.726 7.726 7.726h45.789c4.268 0 7.726-3.459 7.726-7.726s-3.459-7.726-7.726-7.726z" fill="#665e66"/><path d="m474.943 218.537h-167.317c-5.523 0-10-4.477-10-10v-198.537c0-5.523 4.477-10 10-10h167.317c5.523 0 10 4.477 10 10v198.537c0 5.522-4.477 10-10 10z" fill="#e27a66"/><path d="m468.293 0v191.48c0 5.747-4.659 10.407-10.407 10.407h-160.26v6.349c0 5.69 4.612 10.302 10.302 10.302h166.713c5.69 0 10.302-4.612 10.302-10.302v-197.934c0-5.69-4.612-10.302-10.302-10.302z" fill="#dd544f"/><path d="m474.943 512h-167.317c-5.523 0-10-4.477-10-10v-198.537c0-5.523 4.477-10 10-10h167.317c5.523 0 10 4.477 10 10v198.537c0 5.523-4.477 10-10 10z" fill="#90d8f9"/><path d="m468.293 293.463v191.48c0 5.747-4.659 10.406-10.407 10.406h-160.26v6.349c0 5.69 4.612 10.302 10.302 10.302h166.713c5.69 0 10.302-4.612 10.302-10.302v-197.933c0-5.69-4.612-10.302-10.302-10.302z" fill="#75cef9"/><g fill="#665e66"><path d="m453.723 38.946h-65.56c-4.268 0-7.726-3.459-7.726-7.726s3.459-7.726 7.726-7.726h65.56c4.268 0 7.726 3.459 7.726 7.726s-3.458 7.726-7.726 7.726z"/><path d="m453.723 70.165h-65.56c-4.268 0-7.726-3.459-7.726-7.726s3.459-7.726 7.726-7.726h65.56c4.268 0 7.726 3.459 7.726 7.726s-3.458 7.726-7.726 7.726z"/><path d="m453.723 101.385h-124.878c-4.268 0-7.726-3.459-7.726-7.726s3.459-7.726 7.726-7.726h124.878c4.268 0 7.726 3.459 7.726 7.726.001 4.267-3.458 7.726-7.726 7.726z"/><path d="m453.723 132.605h-124.878c-4.268 0-7.726-3.459-7.726-7.726s3.459-7.726 7.726-7.726h124.878c4.268 0 7.726 3.459 7.726 7.726.001 4.266-3.458 7.726-7.726 7.726z"/><path d="m369.431 163.824h-40.586c-4.268 0-7.726-3.459-7.726-7.726s3.459-7.726 7.726-7.726h40.586c4.268 0 7.726 3.459 7.726 7.726s-3.459 7.726-7.726 7.726z"/></g><path d="m360.065 23.493h-31.22c-4.268 0-7.726 3.459-7.726 7.726v31.22c0 4.267 3.459 7.726 7.726 7.726h31.22c4.268 0 7.726-3.459 7.726-7.726v-31.22c.001-4.267-3.458-7.726-7.726-7.726z" fill="#f4dd45"/><path d="m453.723 394.848h-124.878c-4.268 0-7.726-3.459-7.726-7.726s3.459-7.726 7.726-7.726h124.878c4.268 0 7.726 3.459 7.726 7.726.001 4.267-3.458 7.726-7.726 7.726z" fill="#665e66"/><path d="m453.723 426.068h-124.878c-4.268 0-7.726-3.459-7.726-7.726s3.459-7.726 7.726-7.726h124.878c4.268 0 7.726 3.459 7.726 7.726.001 4.267-3.458 7.726-7.726 7.726z" fill="#665e66"/><path d="m369.431 457.287h-40.586c-4.268 0-7.726-3.459-7.726-7.726s3.459-7.726 7.726-7.726h40.586c4.268 0 7.726 3.459 7.726 7.726s-3.459 7.726-7.726 7.726z" fill="#665e66"/><path d="m453.723 316.957h-124.878c-4.268 0-7.726 3.459-7.726 7.726v31.219c0 4.267 3.459 7.726 7.726 7.726h124.878c4.268 0 7.726-3.459 7.726-7.726v-31.219c.001-4.267-3.458-7.726-7.726-7.726z" fill="#f4dd45"/><path d="m204.374 297.626h-167.317c-5.523 0-10-4.477-10-10v-63.252c0-5.523 4.477-10 10-10h167.317c5.523 0 10 4.477 10 10v63.252c0 5.523-4.477 10-10 10z" fill="#aad540"/><path d="m196.683 214.374v55.154c0 5.747-4.659 10.407-10.406 10.407h-159.22v7.389c0 5.69 4.612 10.302 10.302 10.302h166.713c5.69 0 10.302-4.612 10.302-10.302v-62.648c0-5.69-4.612-10.302-10.302-10.302z" fill="#9dc63d"/></svg>