<?xml version="1.0" encoding="UTF-8"?>
<!DOCTYPE svg PUBLIC "-//W3C//DTD SVG 1.1//EN" "http://www.w3.org/Graphics/SVG/1.1/DTD/svg11.dtd">
<!-- Creator: CorelDRAW X6 -->
<svg xmlns="http://www.w3.org/2000/svg" xml:space="preserve" width="36.8536mm" height="36.8536mm" version="1.1" style="shape-rendering:geometricPrecision; text-rendering:geometricPrecision; image-rendering:optimizeQuality; fill-rule:evenodd; clip-rule:evenodd"
viewBox="0 0 20704 20704"
 xmlns:xlink="http://www.w3.org/1999/xlink">
 <defs>
  <style type="text/css">
   <![CDATA[
    .fil2 {fill:none}
    .fil1 {fill:#00CCFF}
    .fil4 {fill:#1D83D4}
    .fil3 {fill:#2196F3}
    .fil0 {fill:#FCC938}
   ]]>
  </style>
 </defs>
 <g id="Layer_x0020_1">
  <metadata id="CorelCorpID_0Corel-Layer"/>
  <path class="fil0" d="M15812 17539l-9277 1977 -97 20c-1121,249 -2232,-457 -2481,-1578l-2928 -13158c-250,-1121 456,-2232 1577,-2481l8342 -1857c1121,-249 2232,457 2481,1578l383 1428 2249 8385 -249 5686z"/>
  <path class="fil1" d="M18875 4470l-890 13452c-76,1145 -1066,2013 -2212,1937l-7112 -471 -1415 -94c-1146,-75 -2013,-1065 -1938,-2212l891 -13450c76,-1146 1066,-2014 2211,-1938l8528 565c78,5 154,14 230,28 1029,184 1778,1116 1707,2183z"/>
  <rect class="fil2" width="20704" height="20704"/>
  <g id="_1076391888">
   <path class="fil3" d="M12418 13576l-3326 -3141c-111,-104 -173,-250 -173,-403 0,-153 62,-298 173,-403l3326 -3141c352,-331 935,-84 935,403l0 1663 3880 0c917,0 1663,-746 1663,-1663 0,-306 248,-554 554,-554 306,0 555,248 555,554l0 1109c0,1935 -1575,3510 -3511,3510l-3141 0 0 1663c0,487 -584,734 -935,403l0 0z"/>
   <path class="fil4" d="M19355 10032l-10436 0c0,153 62,299 173,403l3326 3141c111,105 245,152 376,152 285,0 559,-221 559,-555l0 -1663 3141 0c1179,0 2224,-583 2861,-1478l0 0z"/>
  </g>
 </g>
</svg>
