<?xml version="1.0" encoding="iso-8859-1"?>
<!-- Generator: Adobe Illustrator 19.0.0, SVG Export Plug-In . SVG Version: 6.00 Build 0)  -->
<svg version="1.1" id="Layer_1" xmlns="http://www.w3.org/2000/svg" xmlns:xlink="http://www.w3.org/1999/xlink" x="0px" y="0px"
	 viewBox="0 0 512 512" style="enable-background:new 0 0 512 512;" xml:space="preserve">
<g>
	<path style="fill:#E4EAF6;" d="M61.793,220.69c0,24.337,19.801,44.138,44.138,44.138s44.138-19.801,44.138-44.138
		c0-24.335-19.8-44.137-44.136-44.138c-0.889,0-1.778,0.034-2.663,0.087c-0.236,0.014-0.47,0.035-0.705,0.054
		c-0.676,0.052-1.352,0.117-2.024,0.2c-0.232,0.029-0.463,0.056-0.694,0.088c-0.775,0.107-1.545,0.234-2.312,0.382
		c-0.099,0.019-0.2,0.034-0.298,0.054c-0.865,0.173-1.725,0.375-2.577,0.599c-0.222,0.058-0.439,0.126-0.659,0.188
		c-0.591,0.166-1.18,0.344-1.763,0.533c-0.339,0.111-0.675,0.224-1.011,0.343c-0.439,0.154-0.874,0.322-1.308,0.491
		c-1.632,0.638-3.22,1.364-4.751,2.184c-0.131,0.071-0.264,0.139-0.395,0.211C71.092,189.471,61.793,204.014,61.793,220.69z
		 M97.103,211.862h17.655c4.875,0,8.828,3.953,8.828,8.828s-3.953,8.828-8.828,8.828H97.103c-4.875,0-8.828-3.953-8.828-8.828
		S92.228,211.862,97.103,211.862z"/>
	<path style="fill:#E4EAF6;" d="M211.862,220.69c0,24.337,19.801,44.138,44.138,44.138s44.138-19.801,44.138-44.138
		S280.337,176.552,256,176.552S211.862,196.353,211.862,220.69z M247.172,211.862h17.655c4.875,0,8.828,3.953,8.828,8.828
		s-3.953,8.828-8.828,8.828h-17.655c-4.875,0-8.828-3.953-8.828-8.828S242.297,211.862,247.172,211.862z"/>
	<path style="fill:#E4EAF6;" d="M406.069,176.552c-24.337,0-44.138,19.801-44.138,44.138s19.801,44.138,44.138,44.138
		s44.138-19.801,44.138-44.138c0-0.13-0.009-0.259-0.01-0.39c-0.007-0.803-0.038-1.603-0.087-2.401
		c-0.021-0.341-0.049-0.681-0.077-1.02c-0.059-0.679-0.134-1.355-0.223-2.028c-0.036-0.277-0.064-0.557-0.106-0.833
		c-0.129-0.849-0.289-1.689-0.467-2.526c-0.082-0.383-0.173-0.762-0.265-1.142c-0.127-0.527-0.266-1.05-0.412-1.572
		c-0.111-0.396-0.216-0.794-0.338-1.186c-0.227-0.733-0.479-1.458-0.744-2.177c-0.178-0.48-0.369-0.952-0.563-1.423
		c-0.138-0.337-0.281-0.67-0.427-1.003c-0.746-1.696-1.591-3.338-2.536-4.915c-0.116-0.193-0.235-0.385-0.353-0.577
		C435.809,184.938,421.902,176.552,406.069,176.552z M414.897,229.517h-17.655c-4.875,0-8.828-3.953-8.828-8.828
		s3.953-8.828,8.828-8.828h17.655c4.875,0,8.828,3.953,8.828,8.828S419.772,229.517,414.897,229.517z"/>
	<path style="fill:#E4EAF6;" d="M494.345,123.586H17.655C7.904,123.586,0,131.491,0,141.241v229.517
		c0,9.75,7.904,17.655,17.655,17.655h476.69c9.751,0,17.655-7.905,17.655-17.655V141.241
		C512,131.491,504.096,123.586,494.345,123.586z M123.586,353.103h-35.31c-4.875,0-8.828-3.953-8.828-8.828
		c0-4.875,3.953-8.828,8.828-8.828h35.31c4.875,0,8.828,3.953,8.828,8.828C132.414,349.151,128.461,353.103,123.586,353.103z
		 M141.241,317.793H70.621c-4.875,0-8.828-3.953-8.828-8.828s3.953-8.828,8.828-8.828h70.621c4.875,0,8.828,3.953,8.828,8.828
		S146.116,317.793,141.241,317.793z M105.935,282.483C105.934,282.483,105.934,282.483,105.935,282.483c-0.002,0-0.003,0-0.004,0
		c-34.073,0-61.793-27.724-61.793-61.793c0-22.569,12.171-42.344,30.289-53.129c0.195-0.135,0.391-0.267,0.599-0.388
		c3.065-1.773,6.276-3.267,9.587-4.483c0.095-0.034,0.191-0.067,0.286-0.102c0.77-0.278,1.547-0.542,2.328-0.79
		c0.175-0.056,0.349-0.114,0.524-0.168c0.81-0.248,1.624-0.48,2.443-0.695c0.291-0.077,0.585-0.148,0.878-0.22
		c0.594-0.147,1.19-0.285,1.788-0.414c0.3-0.065,0.598-0.134,0.9-0.194c0.789-0.158,1.582-0.298,2.378-0.426
		c0.323-0.052,0.649-0.098,0.973-0.145c0.66-0.095,1.321-0.179,1.984-0.253c0.232-0.025,0.461-0.057,0.694-0.081
		c0.872-0.087,1.746-0.15,2.621-0.2c0.246-0.013,0.492-0.025,0.738-0.036c0.924-0.042,1.849-0.07,2.776-0.071
		c0.002,0,0.006,0,0.008,0c0,0,0.001,0,0.002,0h0.002c34.073,0,61.793,27.724,61.793,61.793S140.009,282.483,105.935,282.483z
		 M273.655,353.103h-35.31c-4.875,0-8.828-3.953-8.828-8.828c0-4.875,3.953-8.828,8.828-8.828h35.31
		c4.875,0,8.828,3.953,8.828,8.828C282.483,349.151,278.53,353.103,273.655,353.103z M291.31,317.793H220.69
		c-4.875,0-8.828-3.953-8.828-8.828s3.953-8.828,8.828-8.828h70.621c4.875,0,8.828,3.953,8.828,8.828
		S296.185,317.793,291.31,317.793z M256,282.483c-34.073,0-61.793-27.724-61.793-61.793s27.72-61.793,61.793-61.793
		s61.793,27.724,61.793,61.793S290.073,282.483,256,282.483z M423.724,353.103h-35.31c-4.875,0-8.828-3.953-8.828-8.828
		c0-4.875,3.953-8.828,8.828-8.828h35.31c4.875,0,8.828,3.953,8.828,8.828C432.552,349.151,428.599,353.103,423.724,353.103z
		 M441.379,317.793h-70.621c-4.875,0-8.828-3.953-8.828-8.828s3.953-8.828,8.828-8.828h70.621c4.875,0,8.828,3.953,8.828,8.828
		S446.254,317.793,441.379,317.793z M406.073,282.483C406.072,282.483,406.072,282.483,406.073,282.483c-0.002,0-0.003,0-0.004,0
		c-34.073,0-61.793-27.724-61.793-61.793s27.72-61.793,61.793-61.793c21.204,0,39.941,10.739,51.075,27.059
		c0.143,0.182,0.285,0.365,0.416,0.562c4.396,6.611,7.432,13.94,9.018,21.624c0.017,0.078,0.032,0.157,0.047,0.234
		c0.396,1.958,0.702,3.937,0.907,5.935c0.008,0.078,0.013,0.157,0.021,0.234c0.089,0.9,0.157,1.804,0.206,2.71
		c0.008,0.15,0.018,0.299,0.024,0.449c0.047,0.992,0.081,1.987,0.081,2.986C467.866,254.759,440.147,282.483,406.073,282.483z"/>
</g>
<g>
	<path style="fill:#BEC8DC;" d="M247.172,273.655c0-4.879,3.953-8.828,8.828-8.828c-24.337,0-44.138-19.801-44.138-44.138
		s19.801-44.138,44.138-44.138c-4.875,0-8.828-3.948-8.828-8.828s3.953-8.828,8.828-8.828c-34.073,0-61.793,27.724-61.793,61.793
		s27.72,61.793,61.793,61.793C251.125,282.483,247.172,278.535,247.172,273.655z"/>
	<path style="fill:#BEC8DC;" d="M92.858,160.301c0.3-0.065,0.599-0.135,0.9-0.194C93.457,160.168,93.159,160.236,92.858,160.301z"/>
	<path style="fill:#BEC8DC;" d="M90.193,160.935c0.292-0.077,0.586-0.148,0.878-0.22C90.778,160.788,90.485,160.857,90.193,160.935z
		"/>
	<path style="fill:#BEC8DC;" d="M96.137,159.681c0.323-0.052,0.649-0.098,0.973-0.145C96.785,159.583,96.46,159.629,96.137,159.681z
		"/>
	<path style="fill:#BEC8DC;" d="M102.409,159.004c0.246-0.014,0.492-0.025,0.738-0.036
		C102.901,158.978,102.654,158.989,102.409,159.004z"/>
	<path style="fill:#BEC8DC;" d="M97.108,273.655c0-4.879,3.953-8.828,8.828-8.828c24.337,0,44.138-19.801,44.138-44.138
		s-19.801-44.138-44.138-44.138c-0.001,0-0.001,0-0.002,0c24.335,0.001,44.136,19.802,44.136,44.138
		c0,24.337-19.801,44.138-44.138,44.138s-44.138-19.801-44.138-44.138c0-16.675,9.299-31.219,22.982-38.724
		c-0.3,0.164-0.608,0.312-0.904,0.483c-4.22,2.449-9.621,1.009-12.065-3.215c-2.319-4.015-1.128-9.085,2.621-11.672
		c-18.118,10.785-30.289,30.56-30.289,53.129c0,34.069,27.72,61.793,61.793,61.793c0.001,0,0.002,0,0.003,0
		C101.059,282.482,97.108,278.534,97.108,273.655z"/>
	<path style="fill:#BEC8DC;" d="M84.612,162.69c0.095-0.034,0.191-0.067,0.286-0.102C84.803,162.622,84.707,162.655,84.612,162.69z"
		/>
	<path style="fill:#BEC8DC;" d="M87.226,161.799c0.174-0.055,0.349-0.115,0.524-0.168C87.574,161.684,87.401,161.742,87.226,161.799
		z"/>
	<path style="fill:#BEC8DC;" d="M99.093,159.284c0.232-0.025,0.462-0.057,0.694-0.081C99.555,159.226,99.325,159.258,99.093,159.284
		z"/>
	<path style="fill:#BEC8DC;" d="M97.239,177.416c0.098-0.02,0.2-0.034,0.298-0.054C97.438,177.382,97.337,177.396,97.239,177.416z"
		/>
	<path style="fill:#BEC8DC;" d="M99.849,176.981c0.231-0.032,0.462-0.06,0.694-0.088C100.311,176.92,100.079,176.949,99.849,176.981
		z"/>
	<path style="fill:#BEC8DC;" d="M94.003,178.204c0.22-0.062,0.438-0.129,0.659-0.188C94.441,178.073,94.223,178.142,94.003,178.204z
		"/>
	<polygon style="fill:#BEC8DC;" points="105.931,158.897 105.923,158.897 105.933,158.897 	"/>
	<path style="fill:#BEC8DC;" d="M91.229,179.08c0.334-0.118,0.672-0.232,1.011-0.343C91.901,178.847,91.564,178.962,91.229,179.08z"
		/>
	<path style="fill:#BEC8DC;" d="M102.567,176.693c0.235-0.018,0.469-0.04,0.705-0.054
		C103.036,176.653,102.802,176.675,102.567,176.693z"/>
	<path style="fill:#BEC8DC;" d="M85.17,181.753c1.532-0.82,3.119-1.546,4.751-2.184C88.296,180.202,86.711,180.931,85.17,181.753z"
		/>
	<path style="fill:#BEC8DC;" d="M466.579,208.141c0.017,0.078,0.032,0.157,0.047,0.234
		C466.611,208.298,466.595,208.22,466.579,208.141z"/>
	<path style="fill:#BEC8DC;" d="M443.953,198.073c0.945,1.577,1.79,3.219,2.536,4.915
		C445.75,201.303,444.904,199.663,443.953,198.073z"/>
	<path style="fill:#BEC8DC;" d="M448.223,207.592c0.122,0.392,0.226,0.79,0.338,1.186
		C448.449,208.383,448.344,207.985,448.223,207.592z"/>
	<path style="fill:#BEC8DC;" d="M467.762,217.256c0.008,0.15,0.018,0.299,0.024,0.449
		C467.779,217.555,467.77,217.405,467.762,217.256z"/>
	<path style="fill:#BEC8DC;" d="M450.031,216.879c0.029,0.339,0.056,0.679,0.077,1.02
		C450.088,217.559,450.061,217.219,450.031,216.879z"/>
	<path style="fill:#BEC8DC;" d="M397.246,273.655c0-4.879,3.953-8.828,8.828-8.828c24.337,0,44.138-19.801,44.138-44.138
		c0-0.13-0.013-0.259-0.014-0.39c0.001,0.13,0.01,0.258,0.01,0.39c0,24.337-19.801,44.138-44.138,44.138
		s-44.138-19.801-44.138-44.138s19.801-44.138,44.138-44.138c15.833,0,29.74,8.386,37.53,20.945
		c-0.248-0.401-0.476-0.81-0.737-1.203c-2.702-4.061-1.599-9.543,2.461-12.242c3.876-2.568,9.012-1.678,11.821,1.905
		c-11.134-16.321-29.871-27.06-51.075-27.06c-34.073,0-61.793,27.724-61.793,61.793s27.72,61.793,61.793,61.793
		c0.001,0,0.002,0,0.003,0C401.197,282.482,397.246,278.534,397.246,273.655z"/>
	<path style="fill:#BEC8DC;" d="M449.703,214.018c0.042,0.276,0.07,0.556,0.106,0.833
		C449.772,214.574,449.745,214.295,449.703,214.018z"/>
	<path style="fill:#BEC8DC;" d="M446.916,203.991c0.193,0.471,0.385,0.945,0.563,1.423
		C447.302,204.936,447.109,204.463,446.916,203.991z"/>
	<path style="fill:#BEC8DC;" d="M467.533,214.312c0.008,0.078,0.013,0.157,0.021,0.234
		C467.548,214.467,467.542,214.389,467.533,214.312z"/>
	<path style="fill:#BEC8DC;" d="M448.972,210.35c0.092,0.38,0.183,0.759,0.265,1.142C449.155,211.11,449.063,210.731,448.972,210.35
		z"/>
</g>
<path style="fill:#6EAADC;" d="M467.762,217.256c-0.05-0.906-0.118-1.81-0.206-2.71c-0.008-0.078-0.013-0.157-0.021-0.234
	c-0.205-1.998-0.511-3.978-0.907-5.935c-0.015-0.078-0.032-0.157-0.047-0.234c-1.587-7.684-4.622-15.014-9.018-21.624
	c-0.13-0.196-0.273-0.38-0.416-0.562c-2.81-3.583-7.946-4.471-11.821-1.905c-4.061,2.698-5.164,8.181-2.461,12.242
	c0.262,0.393,0.49,0.803,0.737,1.203c0.119,0.192,0.238,0.384,0.353,0.577c0.951,1.59,1.798,3.23,2.536,4.915
	c0.146,0.333,0.29,0.666,0.427,1.003c0.193,0.472,0.386,0.945,0.563,1.423c0.266,0.719,0.516,1.444,0.744,2.177
	c0.121,0.393,0.227,0.79,0.338,1.186c0.146,0.522,0.285,1.045,0.412,1.572c0.092,0.38,0.183,0.759,0.265,1.142
	c0.178,0.836,0.338,1.678,0.467,2.526c0.042,0.277,0.069,0.555,0.106,0.833c0.089,0.673,0.164,1.35,0.223,2.028
	c0.029,0.34,0.056,0.679,0.077,1.02c0.05,0.798,0.081,1.598,0.087,2.401c0.001,0.13,0.014,0.258,0.014,0.39
	c0,24.337-19.801,44.138-44.138,44.138c-4.875,0-8.828,3.948-8.828,8.828c0,4.878,3.951,8.826,8.826,8.828h0.001
	c34.073,0,61.793-27.724,61.793-61.793c0-0.999-0.033-1.993-0.081-2.986C467.779,217.555,467.77,217.405,467.762,217.256z"/>
<path style="fill:#FF6469;" d="M105.935,158.897c-0.001,0-0.002,0-0.002,0c-0.004,0-0.008,0-0.011,0
	c-0.927,0-1.853,0.029-2.776,0.071c-0.246,0.011-0.492,0.022-0.738,0.036c-0.876,0.05-1.75,0.114-2.621,0.2
	c-0.232,0.023-0.462,0.054-0.694,0.081c-0.663,0.074-1.324,0.158-1.984,0.253c-0.324,0.046-0.65,0.093-0.973,0.145
	c-0.796,0.127-1.589,0.267-2.378,0.426c-0.301,0.061-0.6,0.129-0.9,0.194c-0.598,0.129-1.194,0.267-1.788,0.414
	c-0.294,0.073-0.587,0.143-0.878,0.22c-0.819,0.215-1.634,0.447-2.443,0.695c-0.175,0.054-0.349,0.113-0.524,0.168
	c-0.781,0.247-1.557,0.511-2.328,0.79c-0.095,0.034-0.191,0.067-0.286,0.102c-3.31,1.215-6.52,2.709-9.587,4.483
	c-0.209,0.12-0.405,0.254-0.599,0.388c-3.747,2.588-4.939,7.657-2.621,11.672c2.444,4.224,7.844,5.664,12.065,3.215
	c0.296-0.171,0.604-0.319,0.904-0.483c0.131-0.072,0.264-0.141,0.395-0.211c1.542-0.822,3.126-1.553,4.751-2.184
	c0.434-0.169,0.868-0.337,1.308-0.491c0.335-0.118,0.672-0.233,1.011-0.343c0.584-0.19,1.172-0.367,1.763-0.533
	c0.22-0.062,0.438-0.129,0.659-0.188c0.853-0.224,1.711-0.427,2.577-0.599c0.099-0.02,0.199-0.034,0.298-0.054
	c0.766-0.148,1.537-0.274,2.312-0.382c0.231-0.032,0.462-0.06,0.694-0.088c0.672-0.083,1.347-0.148,2.024-0.2
	c0.235-0.018,0.469-0.04,0.705-0.054c0.885-0.053,1.773-0.087,2.663-0.087c0.001,0,0.001,0,0.002,0
	c24.337,0,44.138,19.801,44.138,44.138s-19.801,44.138-44.138,44.138c-4.875,0-8.828,3.948-8.828,8.828
	c0,4.878,3.951,8.826,8.826,8.828h0.001c34.073,0,61.793-27.724,61.793-61.793S140.009,158.897,105.935,158.897z"/>
<path style="fill:#FFCD73;" d="M256,158.897c-4.875,0-8.828,3.948-8.828,8.828s3.953,8.828,8.828,8.828
	c24.337,0,44.138,19.801,44.138,44.138S280.337,264.828,256,264.828c-4.875,0-8.828,3.948-8.828,8.828
	c0,4.879,3.953,8.828,8.828,8.828c34.073,0,61.793-27.724,61.793-61.793S290.073,158.897,256,158.897z"/>
<g>
	<path style="fill:#707384;" d="M97.103,229.517h17.655c4.875,0,8.828-3.953,8.828-8.828s-3.953-8.828-8.828-8.828H97.103
		c-4.875,0-8.828,3.953-8.828,8.828S92.228,229.517,97.103,229.517z"/>
	<path style="fill:#707384;" d="M414.897,211.862h-17.655c-4.875,0-8.828,3.953-8.828,8.828s3.953,8.828,8.828,8.828h17.655
		c4.875,0,8.828-3.953,8.828-8.828S419.772,211.862,414.897,211.862z"/>
	<path style="fill:#707384;" d="M247.172,229.517h17.655c4.875,0,8.828-3.953,8.828-8.828s-3.953-8.828-8.828-8.828h-17.655
		c-4.875,0-8.828,3.953-8.828,8.828S242.297,229.517,247.172,229.517z"/>
</g>
<g>
	<path style="fill:#AFBBD0;" d="M141.241,300.138H70.621c-4.875,0-8.828,3.953-8.828,8.828s3.953,8.828,8.828,8.828h70.621
		c4.875,0,8.828-3.953,8.828-8.828S146.116,300.138,141.241,300.138z"/>
	<path style="fill:#AFBBD0;" d="M291.31,300.138H220.69c-4.875,0-8.828,3.953-8.828,8.828s3.953,8.828,8.828,8.828h70.621
		c4.875,0,8.828-3.953,8.828-8.828S296.185,300.138,291.31,300.138z"/>
	<path style="fill:#AFBBD0;" d="M441.379,300.138h-70.621c-4.875,0-8.828,3.953-8.828,8.828s3.953,8.828,8.828,8.828h70.621
		c4.875,0,8.828-3.953,8.828-8.828S446.254,300.138,441.379,300.138z"/>
	<path style="fill:#AFBBD0;" d="M273.655,335.448h-35.31c-4.875,0-8.828,3.953-8.828,8.828c0,4.875,3.953,8.828,8.828,8.828h35.31
		c4.875,0,8.828-3.953,8.828-8.828C282.483,339.401,278.53,335.448,273.655,335.448z"/>
	<path style="fill:#AFBBD0;" d="M123.586,335.448h-35.31c-4.875,0-8.828,3.953-8.828,8.828c0,4.875,3.953,8.828,8.828,8.828h35.31
		c4.875,0,8.828-3.953,8.828-8.828C132.414,339.401,128.461,335.448,123.586,335.448z"/>
	<path style="fill:#AFBBD0;" d="M423.724,335.448h-35.31c-4.875,0-8.828,3.953-8.828,8.828c0,4.875,3.953,8.828,8.828,8.828h35.31
		c4.875,0,8.828-3.953,8.828-8.828C432.552,339.401,428.599,335.448,423.724,335.448z"/>
</g>
<g>
</g>
<g>
</g>
<g>
</g>
<g>
</g>
<g>
</g>
<g>
</g>
<g>
</g>
<g>
</g>
<g>
</g>
<g>
</g>
<g>
</g>
<g>
</g>
<g>
</g>
<g>
</g>
<g>
</g>
</svg>
