<?xml version="1.0" encoding="iso-8859-1"?>
<!-- Generator: Adobe Illustrator 19.0.0, SVG Export Plug-In . SVG Version: 6.00 Build 0)  -->
<svg version="1.1" id="Capa_1" xmlns="http://www.w3.org/2000/svg" xmlns:xlink="http://www.w3.org/1999/xlink" x="0px" y="0px"
	 viewBox="0 0 480.192 480.192" style="enable-background:new 0 0 480.192 480.192;" xml:space="preserve">
<g>
	<g>
		<path d="M472.096,416.192h-16v-280c0-4.418-3.582-8-8-8h-51.2C379.311,41.593,294.854-14.353,208.256,3.231
			c-62.965,12.786-112.175,61.995-124.96,124.96h-51.2c-4.418,0-8,3.582-8,8v280h-16c-4.418,0-8,3.582-8,8v16
			c0.026,22.08,17.92,39.974,40,40h400c22.08-0.026,39.974-17.92,40-40v-16C480.096,419.773,476.514,416.192,472.096,416.192z
			 M240.096,16.192c79.529,0,144,64.471,144,144s-64.471,144-144,144s-144-64.471-144-144
			C96.188,80.701,160.605,16.284,240.096,16.192z M247.77,320.126c82.22-3.949,147.985-69.715,151.934-151.934h16.392v224h-352v-224
			h16.408C84.737,256.336,159.625,324.36,247.77,320.126z M40.096,144.192h40.8c-0.264,2.632-0.272,5.336-0.4,8h-24.4
			c-4.418,0-8,3.582-8,8v240c0,4.418,3.582,8,8,8h368c4.418,0,8-3.582,8-8v-240c0-4.418-3.582-8-8-8h-24.408
			c-0.128-2.664-0.136-5.368-0.4-8h40.808v272h-400V144.192z M296.096,432.192c0,4.418-3.582,8-8,8h-96c-4.418,0-8-3.582-8-8
			H296.096z M464.096,440.192c0,13.255-10.745,24-24,24h-400c-13.255,0-24-10.745-24-24v-8h152c0,13.255,10.745,24,24,24h96
			c13.255,0,24-10.745,24-24h152V440.192z"/>
	</g>
</g>
<g>
	<g>
		<path d="M316.411,88.197c-13.255-42.148-58.167-65.57-100.315-52.315c-33.326,10.481-55.998,41.375-56,76.31c0,4.418,3.582,8,8,8
			h32c4.418,0,8-3.582,8-8c0-17.673,14.327-32,32-32c17.673,0,32,14.327,32,32s-14.327,32-32,32h-16c-4.418,0-8,3.582-8,8v80
			c0,4.418,3.582,8,8,8h32c4.418,0,8-3.582,8-8v-43.68C306.244,175.257,329.666,130.344,316.411,88.197z M254.312,174.592
			c-3.635,0.831-6.213,4.064-6.216,7.792v41.808h-16v-64h8c26.51-0.004,47.997-21.498,47.993-48.007
			c-0.004-26.51-21.498-47.997-48.007-47.993c-23.42,0.004-43.418,16.908-47.321,40h-16.168c4.079-31.977,31.268-55.953,63.504-56
			c35.346,0.003,63.998,28.659,63.995,64.005C304.088,142.062,283.431,167.956,254.312,174.592z"/>
	</g>
</g>
<g>
	<g>
		<path d="M256.096,248.192h-32c-4.418,0-8,3.582-8,8v24c0,4.418,3.582,8,8,8h32c4.418,0,8-3.582,8-8v-24
			C264.096,251.773,260.514,248.192,256.096,248.192z M248.096,272.192h-16v-8h16V272.192z"/>
	</g>
</g>
<g>
</g>
<g>
</g>
<g>
</g>
<g>
</g>
<g>
</g>
<g>
</g>
<g>
</g>
<g>
</g>
<g>
</g>
<g>
</g>
<g>
</g>
<g>
</g>
<g>
</g>
<g>
</g>
<g>
</g>
</svg>
