<svg id="Capa_1" enable-background="new 0 0 512 512" height="512" viewBox="0 0 512 512" width="512" xmlns="http://www.w3.org/2000/svg"><g><path d="m301 474.972c-14.502 0-27.979-2.534-38.994-7.354l-6.006-2.607-6.006 2.607c-11.016 4.819-24.492 7.354-38.994 7.354-31.348 0-52.002-11.528-57.92-22.251l-4.277-7.749h-12.803c-24.814 0-45-20.186-45-45 0-16.084 8.789-31.04 22.91-39.009l8.848-4.995-1.377-10.063c-3.895-28.995 21.688-54.551 50.42-50.537l10.137 1.436 5.039-8.906c7.646-13.564 23.496-22.324 40.313-22.324 7.617 0 14.941 1.904 21.152 5.537l7.559 4.424 7.588-4.424c6.182-3.633 13.477-5.537 21.123-5.537 16.582 0 32.783 8.965 40.313 22.31l5.01 8.906 10.137-1.421c28.585-3.993 54.359 21.429 50.449 50.537l-1.377 10.063 8.848 4.995c14.121 7.969 22.91 22.925 22.91 39.009 0 24.814-20.186 45-45 45h-12.803l-4.277 7.749c-5.92 10.722-26.574 22.25-57.922 22.25z" fill="#ffb3b3"/><path d="m262.006 467.619c11.016 4.819 24.492 7.354 38.994 7.354 31.348 0 52.002-11.528 57.92-22.251l4.277-7.749h12.803c24.814 0 45-20.186 45-45 0-16.084-8.789-31.04-22.91-39.009l-8.848-4.995 1.377-10.063c3.909-29.108-21.865-54.531-50.449-50.537l-10.137 1.421-5.01-8.906c-7.529-13.345-23.73-22.31-40.313-22.31-7.646 0-14.941 1.904-21.123 5.537l-7.587 4.423v189.478z" fill="#ff8080"/><g><path d="m120 260.578 21.211-21.211-55.606-55.606-30 30-34.394-34.394-21.211 21.211 55.605 55.605 30-30z" fill="#fd3"/><path d="m159.438 142.746 22.324 66.972 28.476-9.492-37.675-113.027-30 30-22.325-66.973-28.476 9.492 37.676 113.028z" fill="#fd3"/><path d="m490.789 179.367-34.394 34.394-30-30-55.606 55.606 21.211 21.211 34.395-34.395 30 30 55.605-55.605z" fill="#fb3"/><path d="m405.473 347.897c5.264-39.26-29.392-72.698-67.383-67.383-15.498-27.466-54.17-38.701-82.09-22.354-27.949-16.348-66.563-5.112-82.09 22.354-38.072-5.385-72.639 28.184-67.383 67.383-18.486 10.444-30.527 30.22-30.527 52.075 0 11.31 7.36 60 63.955 60 9.844 17.827 37.148 30 71.045 30 16.553 0 32.197-3.018 45-8.599 12.803 5.581 28.447 8.599 45 8.599 33.896 0 61.201-12.173 71.045-30 56.596 0 63.955-48.691 63.955-60 0-21.855-12.041-41.631-30.527-52.075zm-239.473 97.075c0-.527 1.611-3.97 9.258-7.793l-13.359-26.836c-10.345 5.154-17.413 11.959-21.597 19.629h-4.302c-16.553 0-30-13.462-30-30 0-16.764 14.171-30 30-30 7.998 0 15.527 3.12 21.211 8.789l21.211-21.211c-11.47-11.47-25.459-18.06-42.415-17.538 0-.013-.007-.027-.007-.04.029-20.244 21.211-35.698 41.133-27.788l.031.013-.002.002c7.412 2.959 13.418 8.818 16.465 16.084l27.656-11.66c-4.036-9.571-10.765-17.717-18.984-24.007 8.888-11.274 25.829-15.405 38.701-8.148v169.918c-8.6 3.3-18.715 5.587-30 5.587-29.033-.001-45-11.265-45-15.001zm210-15h-4.301c-4.184-7.67-11.252-14.474-21.597-19.629l-13.359 26.836c7.646 3.823 9.258 7.266 9.258 7.793 0 3.735-15.967 15-45 15-11.285 0-21.4-2.287-30-5.587v-169.918c12.841-7.24 29.714-3.146 38.63 8.071-2.095 1.595-4.217 3.162-6.081 5.026l.029.029c-5.449 5.435-9.844 11.895-12.861 19.028l27.656 11.66c2.921-6.974 8.342-12.605 16.494-16.099 19.892-7.967 41.132 7.531 41.132 27.79 0 .016-.009.029-.009.046-16.965-.524-30.941 6.061-42.413 17.532l21.211 21.211c7.178-7.159 17.487-10.677 29.022-7.579 13.055 3.55 22.189 15.394 22.189 28.79 0 16.538-13.447 30-30 30z" fill="#fcc"/><path d="m196 354.972v15c0 8.276-6.738 15-15 15v30c24.814 0 45-20.186 45-45v-15z" fill="#fcc"/><path d="m316 369.972v-15h-30v15c0 24.814 20.186 45 45 45v-30c-8.262 0-15-6.723-15-15z" fill="#ffb3b3"/><path d="m352.563 142.746 30 30 37.675-113.028-28.476-9.492-22.324 66.973-30-30-37.676 113.027 28.476 9.492z" fill="#fb3"/><path d="m241.293 202.028 29.414 5.889 16.582-82.881-30-30 13.418-67.119-29.414-5.889-16.582 82.881 30 30z" fill="#fd3"/></g><path d="m287.289 125.036-30-30 13.418-67.119-14.707-2.945v180l14.707 2.945z" fill="#fb3"/><path d="m301 489.972c33.896 0 61.201-12.173 71.045-30 56.596 0 63.955-48.691 63.955-60 0-21.855-12.041-41.631-30.527-52.075 5.264-39.26-29.392-72.698-67.383-67.383-15.498-27.466-54.17-38.701-82.09-22.354v223.213c12.803 5.582 28.447 8.599 45 8.599zm-30-205.505c12.841-7.24 29.714-3.146 38.63 8.071-2.095 1.595-4.217 3.162-6.081 5.026l.029.029c-5.449 5.435-9.844 11.895-12.861 19.028l27.656 11.66c2.921-6.974 8.342-12.605 16.494-16.099 19.893-7.967 41.133 7.531 41.133 27.79 0 .016-.009.029-.009.046-16.965-.524-30.941 6.061-42.413 17.532l21.211 21.211c7.178-7.159 17.487-10.677 29.022-7.579 13.055 3.55 22.189 15.394 22.189 28.79 0 16.538-13.447 30-30 30h-4.301c-4.184-7.67-11.252-14.474-21.597-19.629l-13.359 26.836c7.646 3.823 9.258 7.266 9.258 7.793 0 3.735-15.967 15-45 15-11.285 0-21.4-2.287-30-5.587v-169.918z" fill="#ffb3b3"/></g></svg>