<svg height="512pt" viewBox="-49 0 512 512" width="512pt" xmlns="http://www.w3.org/2000/svg"><path d="m106.226562 0h-46.035156l-23.019531 84.886719 23.019531 39.867187h46.035156l23.015626-39.867187zm0 0" fill="#e6e6e6"/><path d="m83.210938 124.75h-23.023438l-23.011719-39.863281 23.011719-84.886719h16.015625l-17.917969 83.609375zm0 0" fill="#ccc"/><path d="m106.226562 283.144531-46.035156-33.316406v-125.074219h46.035156zm0 0" fill="#e6e6e6"/><path d="m83.207031 289.507812-23.015625-39.679687v-125.074219h23.015625zm0 0" fill="#ccc"/><path d="m161.855469 390.839844c0 66.902344-35.207031 121.160156-78.640625 121.160156-43.441406 0-78.660156-54.257812-78.660156-121.160156 0-35.3125 9.8125-67.101563 25.449218-89.246094 3.140625-4.433594 6.496094-8.472656 10.0625-12.09375l.710938-25.0625.097656-3.261719 9.851562 3.261719 75.628907 25.0625c4.222656 4.289062 8.179687 9.183594 11.777343 14.613281 14.632813 22.007813 23.722657 52.730469 23.722657 86.726563zm0 0" fill="#ff4a4a"/><g fill="#e53333"><path d="m83.207031 511.996094c-43.441406 0-78.648437-54.246094-78.648437-121.160156 0-42.386719 14.121094-79.675782 35.511718-101.328126h25.167969c-8.914062 21.652344-14.800781 58.941407-14.800781 101.328126 0 66.914062 14.675781 121.160156 32.769531 121.160156zm0 0"/><path d="m166.421875 269.664062c0 5.480469-2.21875 10.441407-5.816406 14.039063-3.585938 3.585937-8.546875 5.804687-14.027344 5.804687h-126.746094c-10.953125 0-19.832031-8.882812-19.832031-19.84375 0-5.480468 2.21875-10.4375 5.804688-14.027343 3.589843-3.585938 8.546874-5.804688 14.027343-5.804688h126.746094c10.960937 0 19.84375 8.878907 19.84375 19.832031zm0 0"/><path d="m138.132812 304.113281h-98.460937c-3.503906 0-6.800781-.910156-9.667969-2.519531 3.140625-4.433594 6.496094-8.472656 10.0625-12.09375l.710938-25.0625h9.949218l75.628907 25.0625c4.222656 4.289062 8.179687 9.183594 11.777343 14.613281zm0 0"/></g><path d="m166.421875 269.664062c0 5.480469-2.21875 10.441407-5.816406 14.039063-3.585938 3.585937-8.546875 5.804687-14.027344 5.804687h-73.398437c-10.960938 0-19.84375-8.882812-19.84375-19.84375 0-5.480468 2.21875-10.4375 5.804687-14.027343 3.597656-3.585938 8.558594-5.804688 14.039063-5.804688h73.398437c10.960937 0 19.84375 8.878907 19.84375 19.832031zm0 0" fill="#ff4a4a"/><path d="m286.285156 511.996094c22.03125 0 39.890625-17.859375 39.890625-39.890625v-190.300781c0-42.113282 18.511719-82.429688 51.417969-108.714844 22.34375-17.851563 36.652344-45.375 36.53125-76.257813.011719-2.019531-.058594-4.054687-.1875-6.097656-1.207031-18.585937-7.734375-35.800781-18.066406-50.15625l-18.335938 34.984375-9.933594 18.941406c-2.078124 3.949219-4.667968 7.4375-7.671874 10.4375-12.933594 12.933594-33.257813 16.589844-50.332032 7.652344-20.996094-11.019531-29.109375-36.984375-18.089844-58.003906l3.132813-5.972656 25.46875-48.5664068c-35.375-1.1132812-66.679687 16.6914068-84.558594 44.0742188-9.964843 15.238281-15.746093 33.460938-15.757812 53.027344 0 15.9375 3.851562 30.972656 10.664062 44.238281 10.332031 20.148437 15.9375 42.375 15.925781 65.015625l.007813 265.699219c.003906 22.03125 17.863281 39.890625 39.894531 39.890625zm0 0" fill="#42444c"/></svg>