<?xml version="1.0" encoding="iso-8859-1"?>
<!-- Generator: Adobe Illustrator 19.0.0, SVG Export Plug-In . SVG Version: 6.00 Build 0)  -->
<svg version="1.1" id="Layer_1" xmlns="http://www.w3.org/2000/svg" xmlns:xlink="http://www.w3.org/1999/xlink" x="0px" y="0px"
	 viewBox="0 0 512 512" style="enable-background:new 0 0 512 512;" xml:space="preserve">
<path style="fill:#72D9E8;" d="M407.54,413.721c-2.089,0-4.179-0.797-5.773-2.391l-69.762-69.762c-3.188-3.188-3.188-8.357,0-11.544
	c3.189-3.188,8.357-3.188,11.546,0l69.762,69.762c3.188,3.188,3.188,8.357,0,11.544C411.719,412.923,409.629,413.721,407.54,413.721
	z"/>
<path style="fill:#006375;" d="M486.175,256.898H373.841c-4.51,0-8.164-3.655-8.164-8.164s3.654-8.164,8.164-8.164h112.333
	c4.51,0,8.164,3.655,8.164,8.164C494.338,253.243,490.683,256.898,486.175,256.898z"/>
<path style="fill:#72D9E8;" d="M250.718,133.775c-4.51,0-8.164-3.655-8.164-8.164V41.375c0-4.508,3.654-8.164,8.164-8.164
	s8.164,3.655,8.164,8.164v84.237C258.882,130.12,255.228,133.775,250.718,133.775z"/>
<path style="fill:#00B7CF;" d="M250.718,494.576c-4.51,0-8.164-3.655-8.164-8.164V371.857c0-4.508,3.654-8.164,8.164-8.164
	s8.164,3.655,8.164,8.164v114.555C258.882,490.921,255.228,494.576,250.718,494.576z"/>
<path style="fill:#006375;" d="M163.658,169.837c-2.089,0-4.179-0.797-5.773-2.391L68.193,77.754c-3.188-3.188-3.188-8.357,0-11.544
	c3.189-3.188,8.357-3.188,11.546,0l89.691,89.691c3.188,3.188,3.188,8.357,0,11.544C167.837,169.04,165.747,169.837,163.658,169.837
	z"/>
<path style="fill:#00B7CF;" d="M250.718,380.021c-72.392,0-131.286-58.895-131.286-131.286s58.895-131.286,131.286-131.286
	s131.286,58.895,131.286,131.286S323.11,380.021,250.718,380.021z M250.718,133.775c-63.389,0-114.959,51.57-114.959,114.959
	s51.57,114.959,114.959,114.959s114.959-51.57,114.959-114.959S314.107,133.775,250.718,133.775z"/>
<rect x="207.216" y="236.828" transform="matrix(-0.7071 -0.7071 0.7071 -0.7071 240.5269 606.6813)" style="fill:#FFC545;" width="77.39" height="33.395"/>
<rect x="213.623" y="239.473" transform="matrix(-0.7071 -0.7071 0.7071 -0.7071 255.9898 600.2849)" style="opacity:0.15;enable-background:new    ;" width="77.39" height="15.304"/>
<path style="fill:#006375;" d="M497.049,24.084L475.371,2.407c-2.482-2.482-6.264-3.113-9.416-1.573l-41.774,20.412
	c-3.023,1.477-5.447,3.945-6.872,6.992l-19.778,42.325c-1.68,3.594-3.973,6.867-6.778,9.672L276.193,194.797l28.465,28.465
	l114.562-114.56c2.805-2.805,6.078-5.1,9.672-6.778l42.325-19.777c3.048-1.424,5.515-3.849,6.991-6.872l20.412-41.774
	C500.162,30.348,499.529,26.565,497.049,24.084z"/>
<g>
	<path style="fill:#DC6C84;" d="M327.482,246.086l-74.118-74.118c-4.625-4.625-12.122-4.625-16.747,0l-15.948,15.95
		c-4.625,4.625-4.625,12.122,0,16.747l74.118,74.118c4.625,4.625,12.124,4.625,16.747,0l15.95-15.95
		C332.106,258.208,332.106,250.711,327.482,246.086z"/>
	<path style="fill:#DC6C84;" d="M268.877,300.103l-69.531-69.531c-4.43-4.43-11.613-4.43-16.042,0L11.68,402.194
		c-15.254,15.254-15.254,39.985,0,55.239l30.334,30.334c15.254,15.254,39.985,15.254,55.239,0l171.622-171.622
		C273.307,311.716,273.307,304.533,268.877,300.103z"/>
</g>
<g style="opacity:0.2;">
	<path d="M53.849,420.95c-2.089,0-4.179-0.797-5.773-2.391c-3.188-3.188-3.188-8.357,0-11.544l120.447-120.447
		c3.189-3.188,8.357-3.188,11.546,0c3.188,3.188,3.188,8.357,0,11.544L59.623,418.558C58.028,420.153,55.938,420.95,53.849,420.95z"
		/>
	<path d="M86.662,453.763c-2.089,0-4.179-0.797-5.773-2.391c-3.188-3.188-3.188-8.357,0-11.544L201.336,319.38
		c3.189-3.188,8.357-3.188,11.546,0c3.188,3.188,3.188,8.357,0,11.544L92.435,451.372C90.84,452.967,88.751,453.763,86.662,453.763z
		"/>
</g>
<circle style="fill:#FFC545;" cx="407.54" cy="405.559" r="25.588"/>
<path style="opacity:0.08;enable-background:new    ;" d="M411.428,427.259c-14.132,0-25.588-11.456-25.588-25.588
	c0-6.076,2.121-11.653,5.659-16.042c-5.819,4.69-9.546,11.873-9.546,19.929c0,14.132,11.456,25.588,25.588,25.588
	c8.056,0,15.239-3.726,19.929-9.546C423.082,425.136,417.504,427.259,411.428,427.259z"/>
<circle style="fill:#FFC545;" cx="250.712" cy="41.374" r="25.588"/>
<path style="opacity:0.08;enable-background:new    ;" d="M254.602,63.076c-14.132,0-25.588-11.456-25.588-25.588
	c0-6.076,2.121-11.653,5.659-16.042c-5.819,4.69-9.546,11.873-9.546,19.929c0,14.132,11.456,25.588,25.588,25.588
	c8.056,0,15.239-3.727,19.929-9.546C266.255,60.954,260.678,63.076,254.602,63.076z"/>
<circle style="fill:#FFC545;" cx="250.712" cy="486.411" r="25.588"/>
<path style="opacity:0.08;enable-background:new    ;" d="M254.602,508.113c-14.132,0-25.588-11.456-25.588-25.588
	c0-6.076,2.121-11.653,5.659-16.042c-5.819,4.69-9.546,11.873-9.546,19.929c0,14.132,11.456,25.588,25.588,25.588
	c8.056,0,15.239-3.726,19.929-9.546C266.255,505.992,260.678,508.113,254.602,508.113z"/>
<circle style="fill:#FFC545;" cx="486.172" cy="248.73" r="25.588"/>
<path style="opacity:0.08;enable-background:new    ;" d="M490.062,270.435c-14.132,0-25.588-11.456-25.588-25.588
	c0-6.076,2.121-11.653,5.659-16.042c-5.819,4.69-9.546,11.873-9.546,19.929c0,14.132,11.456,25.588,25.588,25.588
	c8.056,0,15.239-3.727,19.929-9.546C501.715,268.314,496.137,270.435,490.062,270.435z"/>
<circle style="fill:#FFC545;" cx="73.966" cy="71.982" r="25.588"/>
<path style="opacity:0.08;enable-background:new    ;" d="M77.854,93.683c-14.132,0-25.588-11.456-25.588-25.588
	c0-6.076,2.121-11.653,5.659-16.042c-5.819,4.69-9.546,11.873-9.546,19.929c0,14.132,11.456,25.588,25.588,25.588
	c8.056,0,15.239-3.727,19.929-9.546C89.506,91.562,83.929,93.683,77.854,93.683z"/>
<g>
</g>
<g>
</g>
<g>
</g>
<g>
</g>
<g>
</g>
<g>
</g>
<g>
</g>
<g>
</g>
<g>
</g>
<g>
</g>
<g>
</g>
<g>
</g>
<g>
</g>
<g>
</g>
<g>
</g>
</svg>
