<svg id="Layer_1" enable-background="new 0 0 497 497" height="512" viewBox="0 0 497 497" width="512" xmlns="http://www.w3.org/2000/svg"><g><g><g><path d="m0 0h301.383v358.568h-301.383z" fill="#d7effa"/><path d="m28.474 27.024h244.435v244.435h-244.435z" fill="#91edff"/></g><path d="m28.474 240.194v-94.36l244.705-17.049v111.409z" fill="#fff"/><path d="m273.179 124.59c-80.73-16.244-163.887-16.243-244.617 0l.001 42.458c32.116-8.409 54.259 4.662 82.636 12.565 46.184 12.862 61.647 11.24 93.822-6.114 21-11.326 45.802-19 68.159-7z" fill="#fceecf"/><path d="m114.912 218.94c-72.371-16.634-86.351-2.811-86.351-2.811v115.666h244.617v-128.269c-102.332-9.894-100.682 28.649-158.266 15.414-72.371-16.634-86.351-2.811-86.351-2.811" fill="#7191f0"/></g><g><g><path d="m139.143 94.848h301.383v358.568h-301.383z" fill="#ebf9ff" transform="matrix(.926 .377 -.377 .926 124.746 -89.046)"/><path d="m471.215 154.398-.33.952-134.812 331.174 25.736 10.476 135.191-332.105z" fill="#d7effa"/><path d="m168.463 122.038h244.435v300.028h-244.435z" fill="#7191f0" transform="matrix(.926 .377 -.377 .926 124.024 -89.519)"/></g><g fill="#ffe940"><path d="m331.866 286.731c-8.61 24.507-36 36.427-59.681 26.335-21.483-9.155-32.376-33.794-24.636-55.826 8.61-24.507 36-36.427 59.681-26.335 21.483 9.155 32.377 33.794 24.636 55.826z"/><g><path d="m330.282 175.298c-3.833-1.564-8.213.268-9.782 4.101l-7.321 17.89c-1.568 3.834.268 8.213 4.101 9.782.93.38 1.892.561 2.838.561 2.955 0 5.756-1.758 6.944-4.661l7.321-17.89c1.568-3.834-.268-8.213-4.101-9.783z"/><path d="m285.044 174.882c-.558-4.105-4.343-6.983-8.441-6.422-4.104.558-6.979 4.337-6.422 8.441l2.603 19.153c.511 3.762 3.729 6.491 7.422 6.491.337 0 .677-.022 1.02-.069 4.104-.558 6.979-4.337 6.422-8.441z"/><path d="m249.046 206.004-11.831-15.286c-2.535-3.274-7.247-3.876-10.522-1.34-3.275 2.535-3.875 7.246-1.34 10.521l11.832 15.286c1.478 1.909 3.695 2.909 5.936 2.909 1.604 0 3.22-.512 4.586-1.569 3.274-2.534 3.874-7.245 1.339-10.521z"/><path d="m198.03 242.232 17.889 7.322c.93.38 1.892.561 2.838.561 2.955 0 5.755-1.758 6.944-4.661 1.569-3.833-.267-8.213-4.1-9.782l-17.889-7.322c-3.833-1.565-8.212.268-9.782 4.101-1.569 3.832.267 8.212 4.1 9.781z"/><path d="m221.108 281.508c-.558-4.104-4.332-6.981-8.442-6.422l-19.153 2.604c-4.104.558-6.979 4.338-6.421 8.441.511 3.762 3.729 6.491 7.422 6.491.336 0 .677-.022 1.02-.069l19.153-2.604c4.104-.557 6.979-4.337 6.421-8.441z"/><path d="m224.635 313.688-15.285 11.831c-3.276 2.535-3.876 7.246-1.341 10.521 1.478 1.909 3.695 2.909 5.937 2.909 1.604 0 3.219-.512 4.585-1.569l15.286-11.831c3.275-2.535 3.875-7.246 1.34-10.521s-7.246-3.876-10.522-1.34z"/><path d="m264.084 337.033c-3.831-1.565-8.213.269-9.782 4.101l-7.322 17.89c-1.568 3.833.267 8.213 4.101 9.782.93.38 1.892.561 2.838.561 2.955 0 5.756-1.758 6.944-4.661l7.322-17.89c1.568-3.834-.267-8.214-4.101-9.783z"/><path d="m308.579 348.048c-.559-4.106-4.356-6.987-8.441-6.422-4.104.558-6.979 4.338-6.422 8.441l2.604 19.153c.512 3.763 3.729 6.491 7.422 6.491.337 0 .678-.022 1.02-.069 4.104-.558 6.979-4.338 6.422-8.441z"/><path d="m344.178 328.918c-2.535-3.275-7.246-3.875-10.521-1.34s-3.876 7.245-1.34 10.521l11.831 15.286c1.478 1.909 3.694 2.909 5.936 2.909 1.604 0 3.22-.512 4.586-1.569 3.275-2.535 3.875-7.245 1.34-10.521z"/><path d="m383.332 301.872-17.889-7.322c-3.831-1.564-8.213.268-9.782 4.101-1.568 3.833.267 8.213 4.101 9.782l17.889 7.322c.93.38 1.892.561 2.838.561 2.955 0 5.756-1.758 6.944-4.661 1.568-3.834-.267-8.214-4.101-9.783z"/><path d="m394.27 257.972c-.559-4.104-4.355-6.991-8.441-6.422l-19.152 2.604c-4.104.558-6.979 4.338-6.422 8.441.512 3.762 3.729 6.491 7.422 6.491.337 0 .678-.022 1.02-.069l19.152-2.604c4.104-.557 6.979-4.337 6.421-8.441z"/><path d="m352.141 231.985c1.604 0 3.22-.512 4.586-1.569l15.285-11.831c3.275-2.535 3.875-7.246 1.34-10.521-2.534-3.275-7.246-3.876-10.521-1.34l-15.285 11.831c-3.275 2.535-3.875 7.246-1.34 10.521 1.477 1.909 3.694 2.909 5.935 2.909z"/></g></g></g></g></svg>