<?xml version="1.0" encoding="UTF-8"?>
<!DOCTYPE svg PUBLIC "-//W3C//DTD SVG 1.1//EN" "http://www.w3.org/Graphics/SVG/1.1/DTD/svg11.dtd">
<!-- Creator: CorelDRAW X6 -->
<svg xmlns="http://www.w3.org/2000/svg" xml:space="preserve" width="32.9425mm" height="32.9425mm" version="1.1" style="shape-rendering:geometricPrecision; text-rendering:geometricPrecision; image-rendering:optimizeQuality; fill-rule:evenodd; clip-rule:evenodd"
viewBox="0 0 1260 1260"
 xmlns:xlink="http://www.w3.org/1999/xlink">
 <defs>
  <style type="text/css">
   <![CDATA[
    .fil0 {fill:none}
    .fil3 {fill:#0F9390}
    .fil9 {fill:#1E99D6}
    .fil8 {fill:#52BBEF}
    .fil2 {fill:#5DC1D8}
    .fil1 {fill:#91E0E8}
    .fil7 {fill:#B7092B}
    .fil5 {fill:#D9EAFC}
    .fil11 {fill:#DB722C}
    .fil10 {fill:#EF8318}
    .fil6 {fill:#FE3745}
    .fil4 {fill:white}
   ]]>
  </style>
 </defs>
 <g id="Layer_x0020_1">
  <metadata id="CorelCorpID_0Corel-Layer"/>
  <rect class="fil0" width="1260" height="1260"/>
  <g id="_874452416">
   <path class="fil1" d="M1241 333l-587 0 0 227c0,7 -5,12 -12,12l-80 0 0 221c0,9 8,17 17,17l662 0c9,0 16,-8 16,-17l0 -443c0,-9 -7,-17 -16,-17z"/>
   <path class="fil2" d="M611 793l0 -221 -49 0 0 221c0,9 8,17 17,17l49 0c-9,0 -17,-8 -17,-17z"/>
   <path class="fil3" d="M1098 592c-5,-7 -15,-7 -21,0l-86 102c-6,7 -15,7 -21,0l-162 -192c-6,-7 -16,-7 -22,0l-224 265 0 26c0,9 8,17 17,17l662 0c9,0 16,-8 16,-17l0 -12 -159 -189z"/>
   <circle class="fil4" cx="1141" cy="456" r="62"/>
   <path class="fil5" d="M1113 456c0,-28 19,-52 45,-59 -5,-2 -11,-3 -17,-3 -34,0 -62,28 -62,62 0,35 28,63 62,63 6,0 12,-1 17,-3 -26,-7 -45,-31 -45,-60z"/>
   <path class="fil6" d="M657 563c0,6 -6,12 -12,12l-630 0c-7,0 -12,-6 -12,-12l0 -481c0,-6 5,-12 12,-12l630 0c6,0 12,6 12,12l0 481z"/>
   <path class="fil4" d="M205 203c0,-14 9,-19 21,-13l207 120c12,7 12,18 0,25l-207 120c-12,6 -21,1 -21,-13l0 -239z"/>
   <path class="fil5" d="M253 206l-27 -16c-12,-6 -21,-1 -21,13l0 239c0,14 9,19 21,13l27 -16c0,0 0,-233 0,-233z"/>
   <g>
    <path class="fil7" d="M619 164c0,5 -3,8 -8,8l-51 0c-4,0 -7,-3 -7,-8l0 -51c0,-4 3,-7 7,-7l51 0c5,0 8,3 8,7l0 51 0 0z"/>
    <path class="fil7" d="M619 256c0,4 -3,8 -8,8l-51 0c-4,0 -7,-4 -7,-8l0 -51c0,-4 3,-7 7,-7l51 0c5,0 8,3 8,7l0 51 0 0z"/>
    <path class="fil7" d="M619 348c0,4 -3,8 -8,8l-51 0c-4,0 -7,-4 -7,-8l0 -51c0,-4 3,-8 7,-8l51 0c5,0 8,4 8,8l0 51 0 0z"/>
    <path class="fil7" d="M619 440c0,4 -3,7 -8,7l-51 0c-4,0 -7,-3 -7,-7l0 -51c0,-4 3,-8 7,-8l51 0c5,0 8,4 8,8l0 51 0 0z"/>
    <path class="fil7" d="M619 532c0,4 -3,7 -8,7l-51 0c-4,0 -7,-3 -7,-7l0 -51c0,-5 3,-8 7,-8l51 0c5,0 8,3 8,8l0 51 0 0z"/>
    <path class="fil7" d="M107 164c0,5 -4,8 -8,8l-51 0c-4,0 -7,-3 -7,-8l0 -51c0,-4 3,-7 7,-7l51 0c4,0 8,3 8,7l0 51z"/>
    <path class="fil7" d="M107 256c0,4 -4,8 -8,8l-51 0c-4,0 -7,-4 -7,-8l0 -51c0,-4 3,-7 7,-7l51 0c4,0 8,3 8,7l0 51z"/>
    <path class="fil7" d="M107 348c0,4 -4,8 -8,8l-51 0c-4,0 -7,-4 -7,-8l0 -51c0,-4 3,-8 7,-8l51 0c4,0 8,4 8,8l0 51z"/>
    <path class="fil7" d="M107 440c0,4 -4,7 -8,7l-51 0c-4,0 -7,-3 -7,-7l0 -51c0,-4 3,-8 7,-8l51 0c4,0 8,4 8,8l0 51z"/>
    <path class="fil7" d="M107 532c0,4 -4,7 -8,7l-51 0c-4,0 -7,-3 -7,-7l0 -51c0,-5 3,-8 7,-8l51 0c4,0 8,3 8,8l0 51z"/>
   </g>
   <path class="fil8" d="M507 634l-426 0c-7,0 -12,5 -12,12l0 162c17,57 42,110 74,159l154 0 100 100c5,4 9,3 9,-4l0 -96 101 0c7,0 12,-6 12,-13l0 -308c0,-7 -5,-12 -12,-12z"/>
   <path class="fil9" d="M117 646c0,-7 6,-12 13,-12l-49 0c-7,0 -12,5 -12,12l0 162c12,41 28,80 48,116l0 -278z"/>
   <g>
    <path class="fil4" d="M416 755l-243 0c-11,0 -19,-8 -19,-18 0,-10 8,-18 19,-18l243 0c10,0 18,8 18,18 0,10 -8,18 -18,18z"/>
    <path class="fil4" d="M416 819l-243 0c-11,0 -19,-8 -19,-18 0,-10 8,-18 19,-18l243 0c10,0 18,8 18,18 0,10 -8,18 -18,18z"/>
    <path class="fil4" d="M295 883l-122 0c-11,0 -19,-8 -19,-18 0,-10 8,-18 19,-18l122 0c10,0 18,8 18,18 0,10 -8,18 -18,18z"/>
   </g>
   <path class="fil10" d="M962 873l-386 0c-7,0 -12,5 -12,12l0 292c0,7 5,13 12,13l301 0c34,-15 67,-32 97,-53l0 -252c0,-7 -5,-12 -12,-12z"/>
   <path class="fil11" d="M612 1177l0 -292c0,-7 6,-12 13,-12l-49 0c-7,0 -12,5 -12,12l0 292c0,7 5,13 12,13l49 0c-7,0 -13,-6 -13,-13z"/>
   <path class="fil4" d="M701 965c0,-13 10,-19 21,-12l115 66c11,7 11,18 0,24l-115 66c-11,7 -21,2 -21,-12l0 -132z"/>
   <g>
   </g>
   <g>
   </g>
   <g>
   </g>
   <g>
   </g>
   <g>
   </g>
   <g>
   </g>
   <g>
   </g>
   <g>
   </g>
   <g>
   </g>
   <g>
   </g>
   <g>
   </g>
   <g>
   </g>
   <g>
   </g>
   <g>
   </g>
   <g>
   </g>
  </g>
 </g>
</svg>
