<?xml version="1.0" encoding="UTF-8"?>
<!DOCTYPE svg PUBLIC "-//W3C//DTD SVG 1.1//EN" "http://www.w3.org/Graphics/SVG/1.1/DTD/svg11.dtd">
<!-- Creator: CorelDRAW X6 -->
<svg xmlns="http://www.w3.org/2000/svg" xml:space="preserve" width="39.0812mm" height="39.0807mm" version="1.1" style="shape-rendering:geometricPrecision; text-rendering:geometricPrecision; image-rendering:optimizeQuality; fill-rule:evenodd; clip-rule:evenodd"
viewBox="0 0 1099 1099"
 xmlns:xlink="http://www.w3.org/1999/xlink">
 <defs>
  <style type="text/css">
   <![CDATA[
    .fil8 {fill:none}
    .fil4 {fill:#082947}
    .fil5 {fill:#185F8D}
    .fil3 {fill:#6DA8D6}
    .fil6 {fill:#98D9D5}
    .fil12 {fill:#D22DF7}
    .fil11 {fill:#E46EFF}
    .fil10 {fill:#EDC4A2}
    .fil1 {fill:#F2484B}
    .fil2 {fill:#F2EBD9}
    .fil0 {fill:#FFCC75}
    .fil9 {fill:#FFD4B0}
    .fil7 {fill:white}
   ]]>
  </style>
 </defs>
 <g id="Layer_x0020_1">
  <metadata id="CorelCorpID_0Corel-Layer"/>
  <g id="_1079869152">
   <g>
    <polygon class="fil0" points="0,366 0,594 592,594 592,366 296,340 "/>
    <rect class="fil1" y="314" width="592.336" height="52.0735"/>
    <polygon class="fil2" points="143,235 143,594 208,594 296,568 384,594 449,594 449,235 296,209 "/>
    <rect class="fil3" x="296" y="2" width="104.798" height="55.979"/>
    <rect class="fil4" x="286" y="2" width="19.5275" height="137.995"/>
    <polygon class="fil3" points="296,414 309,568 208,555 208,414 "/>
    <polygon class="fil5" points="384,414 384,555 296,568 296,414 "/>
    <polygon class="fil0" points="384,555 384,594 208,594 208,555 296,555 "/>
    <path class="fil6" d="M296 287c21,0 38,17 38,37 0,21 -17,38 -38,38 -21,0 -37,-17 -37,-38 0,-20 16,-37 37,-37z"/>
    <polygon class="fil1" points="306,122 286,122 143,235 449,235 "/>
    <path class="fil7" d="M48 463c-6,0 -10,-4 -10,-10l0 -39c0,-5 4,-10 10,-10 5,0 9,5 9,10l0 39c0,6 -4,10 -9,10z"/>
    <path class="fil7" d="M95 463c-5,0 -9,-4 -9,-10l0 -39c0,-5 4,-10 9,-10 6,0 10,5 10,10l0 39c0,6 -4,10 -10,10z"/>
    <path class="fil7" d="M545 463c-6,0 -10,-4 -10,-10l0 -39c0,-5 4,-10 10,-10 5,0 9,5 9,10l0 39c0,6 -4,10 -9,10z"/>
    <path class="fil7" d="M497 463c-6,0 -10,-4 -10,-10l0 -39c0,-5 4,-10 10,-10 5,0 10,5 10,10l0 39c0,6 -5,10 -10,10z"/>
   </g>
  </g>
  <rect class="fil8" width="1099" height="1099"/>
  <g id="_1079871968">
   <circle class="fil9" cx="804" cy="369" r="181"/>
   <path class="fil10" d="M912 224c60,80 45,193 -34,253 -65,49 -154,49 -218,0 59,80 172,96 252,37 80,-60 97,-173 38,-253 -11,-14 -24,-26 -38,-37z"/>
   <path class="fil11" d="M515 1020l0 -217c0,-80 65,-145 144,-145l0 0c92,46 199,46 290,0l0 0c80,0 145,65 145,145l0 217c0,40 -33,72 -73,72l-434 0c-40,0 -72,-32 -72,-72z"/>
   <path class="fil12" d="M515 1020c0,40 32,72 72,72l434 0c40,0 73,-32 73,-72l0 -217c0,-25 -7,-50 -20,-72 -129,181 -337,289 -559,289z"/>
  </g>
 </g>
</svg>
