<?xml version="1.0" encoding="iso-8859-1"?>
<!-- Generator: Adobe Illustrator 19.0.0, SVG Export Plug-In . SVG Version: 6.00 Build 0)  -->
<svg xmlns="http://www.w3.org/2000/svg" xmlns:xlink="http://www.w3.org/1999/xlink" version="1.1" id="Capa_1" x="0px" y="0px" viewBox="0 0 455.002 455.002" style="enable-background:new 0 0 455.002 455.002;" xml:space="preserve" width="512" height="512">
<g>
	<polygon style="fill:#FFCC75;" points="0.001,280.002 0.001,455.002 455.001,455.002 455.001,280.002 227.501,260.002  "/>
	<rect x="0.001" y="240.002" style="fill:#F2484B;" width="455" height="40"/>
	<polygon style="fill:#F2EBD9;" points="110.001,179.002 110.001,455.002 160.001,455.002 227.501,435.002 295.001,455.002    345.001,455.002 345.001,179.002 227.501,159.002  "/>
	<rect x="227.501" y="0.002" style="fill:#6DA8D6;" width="80.5" height="43"/>
	<rect x="220.001" style="fill:#082947;" width="15" height="106"/>
	<polygon style="fill:#6DA8D6;" points="227.501,316.662 237.501,435.002 160.001,425.002 160.001,316.662  "/>
	<polygon style="fill:#185F8D;" points="295.001,316.662 295.001,425.002 227.501,435.002 227.501,316.662  "/>
	<polygon style="fill:#FFCC75;" points="295.001,425.002 295.001,455.002 160.001,455.002 160.001,425.002 227.501,425.002  "/>
	<path style="fill:#98D9D5;" d="M227.501,219.002c15.92,0,28.83,12.91,28.83,28.83c0,15.93-12.91,28.84-28.83,28.84   s-28.83-12.91-28.83-28.84C198.671,231.912,211.581,219.002,227.501,219.002z"/>
	<polygon style="fill:#F2484B;" points="235.001,91.938 220.001,91.938 110.001,179.002 345.001,179.002  "/>
	<path style="fill:#FFFFFF;" d="M36.667,354.167c-4.142,0-7.5-3.358-7.5-7.5v-30c0-4.142,3.358-7.5,7.5-7.5s7.5,3.358,7.5,7.5v30   C44.167,350.809,40.81,354.167,36.667,354.167z"/>
	<path style="fill:#FFFFFF;" d="M73.334,354.167c-4.142,0-7.5-3.358-7.5-7.5v-30c0-4.142,3.358-7.5,7.5-7.5s7.5,3.358,7.5,7.5v30   C80.834,350.809,77.477,354.167,73.334,354.167z"/>
	<path style="fill:#FFFFFF;" d="M418.334,354.167c-4.142,0-7.5-3.358-7.5-7.5v-30c0-4.142,3.358-7.5,7.5-7.5s7.5,3.358,7.5,7.5v30   C425.834,350.809,422.477,354.167,418.334,354.167z"/>
	<path style="fill:#FFFFFF;" d="M381.667,354.167c-4.142,0-7.5-3.358-7.5-7.5v-30c0-4.142,3.358-7.5,7.5-7.5s7.5,3.358,7.5,7.5v30   C389.167,350.809,385.81,354.167,381.667,354.167z"/>
</g>















</svg>
