<?xml version="1.0" encoding="iso-8859-1"?>
<!-- Generator: Adobe Illustrator 19.0.0, SVG Export Plug-In . SVG Version: 6.00 Build 0)  -->
<svg version="1.1" id="Capa_1" xmlns="http://www.w3.org/2000/svg" xmlns:xlink="http://www.w3.org/1999/xlink" x="0px" y="0px"
	 viewBox="0 0 512 512" style="enable-background:new 0 0 512 512;" xml:space="preserve">
<g>
	<polygon style="fill:#DE4C3C;" points="414.897,203.035 97.103,203.035 0,203.035 0,256 512,256 512,203.035 	"/>
	<path style="fill:#DE4C3C;" d="M26.483,256l47.139,227.84c3.39,16.41,17.849,28.169,34.604,28.16h295.548
		c16.755,0.009,31.214-11.75,34.604-28.16L485.517,256H26.483z M141.241,441.379c0,9.754-7.901,17.655-17.655,17.655
		s-17.655-7.901-17.655-17.655V308.966c0-9.754,7.901-17.655,17.655-17.655s17.655,7.901,17.655,17.655V441.379z M229.517,441.379
		c0,9.754-7.901,17.655-17.655,17.655c-9.754,0-17.655-7.901-17.655-17.655V308.966c0-9.754,7.901-17.655,17.655-17.655
		c9.754,0,17.655,7.901,17.655,17.655V441.379z M317.793,441.379c0,9.754-7.901,17.655-17.655,17.655
		c-9.754,0-17.655-7.901-17.655-17.655V308.966c0-9.754,7.901-17.655,17.655-17.655c9.754,0,17.655,7.901,17.655,17.655V441.379z
		 M406.069,441.379c0,9.754-7.901,17.655-17.655,17.655s-17.655-7.901-17.655-17.655V308.966c0-9.754,7.901-17.655,17.655-17.655
		s17.655,7.901,17.655,17.655V441.379z"/>
</g>
<polygon style="fill:#87CED9;" points="317.793,61.793 317.793,0 194.207,0 194.207,61.793 158.897,61.793 256,150.069 
	353.103,61.793 "/>
<polygon style="fill:#C74436;" points="480.044,282.483 485.517,256 26.483,256 31.956,282.483 "/>
<g>
	<path style="fill:#4398D1;" d="M55.349,17.655L55.349,17.655c-13.171-7.327-29.784-2.631-37.164,10.505l-0.53,1.677
		c-4.555,8.236-4.555,18.247,0,26.483l98.339,185.379c2.463,4.581,6.162,8.369,10.681,10.946l0,0
		c13.153,7.345,29.767,2.639,37.12-10.505c0.018-0.026,0.035-0.053,0.044-0.088l0.971-1.589c4.555-8.236,4.555-18.247,0-26.483
		L66.472,28.601C63.903,23.949,60.036,20.145,55.349,17.655z"/>
	<path style="fill:#4398D1;" d="M456.651,17.655L456.651,17.655c13.171-7.327,29.784-2.631,37.164,10.505l0.883,1.677
		c4.555,8.236,4.555,18.247,0,26.483l-98.339,185.379c-2.463,4.581-6.162,8.369-10.681,10.946l0,0
		c-13.153,7.345-29.767,2.639-37.12-10.505c-0.018-0.026-0.035-0.053-0.044-0.088l-0.971-1.589c-4.555-8.236-4.555-18.247,0-26.483
		l98.339-185.379C448.353,24.002,452.087,20.198,456.651,17.655z"/>
</g>
<g>
</g>
<g>
</g>
<g>
</g>
<g>
</g>
<g>
</g>
<g>
</g>
<g>
</g>
<g>
</g>
<g>
</g>
<g>
</g>
<g>
</g>
<g>
</g>
<g>
</g>
<g>
</g>
<g>
</g>
</svg>
