<?xml version="1.0" encoding="iso-8859-1"?>
<!-- Generator: Adobe Illustrator 19.0.0, SVG Export Plug-In . SVG Version: 6.00 Build 0)  -->
<svg version="1.1" id="Capa_1" xmlns="http://www.w3.org/2000/svg" xmlns:xlink="http://www.w3.org/1999/xlink" x="0px" y="0px"
	 viewBox="0 0 512 512" style="enable-background:new 0 0 512 512;" xml:space="preserve">
<path style="fill:#D1D1D1;" d="M495.404,167.724L79.448,115.818V69.12c-0.009-7.018-2.798-13.753-7.768-18.714L59.233,37.87
	L46.698,50.406l12.535,12.447c1.651,1.668,2.578,3.919,2.56,6.268v336.949c0,24.373,19.765,44.138,44.138,44.138h335.448
	c4.873,0,8.828,3.955,8.828,8.828v17.655h17.655v-17.655c0-14.627-11.855-26.483-26.483-26.483H105.931
	c-14.627,0-26.483-11.855-26.483-26.483v-35.31c7.618,5.773,16.922,8.881,26.483,8.828h353.103
	c24.373,0,44.138-19.765,44.138-44.138V176.552C503.208,172.058,499.862,168.263,495.404,167.724z M485.517,247.172h-35.31v-67.266
	l35.31,4.414V247.172z M326.621,247.172h-35.31v-87.128l35.31,4.414V247.172z M344.276,166.665l35.31,4.414v76.094h-35.31V166.665z
	 M273.655,247.172h-35.31v-93.749l35.31,4.414V247.172z M220.69,247.172h-35.31v-100.37l35.31,4.414V247.172z M167.724,247.172
	h-35.31v-106.99l35.31,4.414V247.172z M167.724,264.828v97.103h-35.31v-97.103H167.724z M185.379,264.828h35.31v97.103h-35.31
	V264.828z M238.345,264.828h35.31v97.103h-35.31V264.828z M291.31,264.828h35.31v97.103h-35.31V264.828z M344.276,264.828h35.31
	v97.103h-35.31V264.828z M397.241,264.828h35.31v97.103h-35.31V264.828z M397.241,247.172v-73.887l35.31,4.414v69.473H397.241z
	 M114.758,137.975v109.197h-35.31V133.561L114.758,137.975z M79.448,335.448v-70.621h35.31v97.103h-8.828
	C91.304,361.931,79.448,350.076,79.448,335.448z M459.034,361.931h-8.828v-97.103h35.31v70.621
	C485.517,350.076,473.662,361.931,459.034,361.931z"/>
<g>
	<circle style="fill:#4398D1;" cx="141.241" cy="476.69" r="35.31"/>
	<circle style="fill:#4398D1;" cx="461.947" cy="476.69" r="35.31"/>
</g>
<circle style="fill:#DE4C3C;" cx="35.31" cy="26.483" r="26.483"/>
<g>
</g>
<g>
</g>
<g>
</g>
<g>
</g>
<g>
</g>
<g>
</g>
<g>
</g>
<g>
</g>
<g>
</g>
<g>
</g>
<g>
</g>
<g>
</g>
<g>
</g>
<g>
</g>
<g>
</g>
</svg>
