<?xml version="1.0" encoding="UTF-8"?>
<!DOCTYPE svg PUBLIC "-//W3C//DTD SVG 1.1//EN" "http://www.w3.org/Graphics/SVG/1.1/DTD/svg11.dtd">
<!-- Creator: CorelDRAW X6 -->
<svg xmlns="http://www.w3.org/2000/svg" xml:space="preserve" width="34.5017mm" height="34.5017mm" version="1.1" style="shape-rendering:geometricPrecision; text-rendering:geometricPrecision; image-rendering:optimizeQuality; fill-rule:evenodd; clip-rule:evenodd"
viewBox="0 0 648 648"
 xmlns:xlink="http://www.w3.org/1999/xlink"
 enable-background="new 0 0 497 497">
 <defs>
  <style type="text/css">
   <![CDATA[
    .fil7 {fill:none}
    .fil1 {fill:#4398D1}
    .fil5 {fill:#628CA9}
    .fil9 {fill:#83A3AB}
    .fil10 {fill:#93B7C0}
    .fil4 {fill:darkgray}
    .fil8 {fill:#ACD5DF}
    .fil6 {fill:#AF665E}
    .fil3 {fill:#BFBFBF}
    .fil0 {fill:#D1D1D1}
    .fil2 {fill:#DE4C3C}
   ]]>
  </style>
    <clipPath id="id0">
     <path d="M593 495l0 -53c0,-2 -2,-4 -5,-5l-32 -5c-3,-11 -7,-22 -13,-31l19 -27c2,-2 2,-5 0,-6l-37 -37c-2,-2 -5,-2 -7,-1l-26 19c-10,-6 -20,-10 -31,-13l-6 -32c0,-2 -2,-4 -5,-4l-52 0c-3,0 -5,2 -5,4l-6 32c-11,3 -21,7 -31,13l-26 -19c-2,-1 -5,-1 -7,1l-37 37c-2,1 -2,4 0,6l18 27c-5,9 -9,20 -13,31l-31 5c-3,1 -5,3 -5,5l0 53c0,2 2,4 5,5l31 5c4,11 8,21 13,31l-18 26c-2,3 -2,5 0,7l37 37c2,2 5,2 7,1l26 -19c10,5 20,10 31,13l6 32c0,2 2,4 5,4l52 0c3,0 5,-2 5,-4l6 -32c11,-3 21,-8 31,-13l26 19c2,1 5,1 7,-1l37 -37c2,-2 2,-4 0,-7l-19 -26c6,-10 10,-20 13,-31l32 -5c3,-1 5,-3 5,-5l0 0zm-169 40c-37,0 -66,-30 -66,-67 0,-36 29,-66 66,-66 37,0 66,30 66,66 0,37 -29,67 -66,67z"/>
    </clipPath>
 </defs>
 <g id="Layer_x0020_1">
  <metadata id="CorelCorpID_0Corel-Layer"/>
  <g id="_953962960">
   <path class="fil0" d="M517 181l-435 -55 0 -49c0,-7 -3,-14 -8,-19l-13 -13 -13 13 13 13c2,2 3,4 2,6l0 353c0,26 21,46 47,46l351 0c5,0 9,5 9,10l0 18 19 0 0 -18c0,-16 -13,-28 -28,-28l-351 0c-16,0 -28,-12 -28,-28l0 -37c8,6 18,10 28,10l369 0c26,0 47,-21 47,-47l0 -166c0,-5 -4,-9 -9,-9zm-10 83l-37 0 0 -71 37 5 0 66zm-166 0l-37 0 0 -91 37 4 0 87zm18 -84l37 4 0 80 -37 0 0 -84zm-74 84l-37 0 0 -98 37 4 0 94zm-55 0l-37 0 0 -105 37 4 0 101zm-56 0l-37 0 0 -112 37 5 0 107zm0 18l0 102 -37 0 0 -102 37 0zm19 0l37 0 0 102 -37 0 0 -102zm55 0l37 0 0 102 -37 0 0 -102zm56 0l37 0 0 102 -37 0 0 -102zm55 0l37 0 0 102 -37 0 0 -102zm56 0l37 0 0 102 -37 0 0 -102zm0 -18l0 -77 37 4 0 73 -37 0zm-296 -114l0 114 -37 0 0 -119 37 5zm-37 206l0 -74 37 0 0 102 -9 0c-16,0 -28,-12 -28,-28zm397 28l-9 0 0 -102 37 0 0 74c0,16 -12,28 -28,28z"/>
   <g>
    <circle class="fil1" cx="147" cy="504" r="37"/>
    <circle class="fil1" cx="482" cy="504" r="37"/>
   </g>
   <circle class="fil2" cx="36" cy="33" r="28"/>
   <g>
   </g>
   <g>
   </g>
   <g>
   </g>
   <g>
   </g>
   <g>
   </g>
   <g>
   </g>
   <g>
   </g>
   <g>
   </g>
   <g>
   </g>
   <g>
   </g>
   <g>
   </g>
   <g>
   </g>
   <g>
   </g>
   <g>
   </g>
   <g>
   </g>
  </g>
  <g id="_953967184">
   <g style="clip-path:url(#id0)">
    <polygon class="fil3" points="-222,-178 1070,-178 1070,1114 -222,1114 "/>
    <g id="Layer_x0020_1_0">
     <metadata id="CorelCorpID_1Corel-Layer"/>
     <g>
      <path id="1" class="fil4" d="M517 181l-435 -55 0 -49c0,-7 -3,-14 -8,-19l-13 -13 -13 13 13 13c2,2 3,4 2,6l0 353c0,26 21,46 47,46l351 0c5,0 9,5 9,10l0 18 19 0 0 -18c0,-16 -13,-28 -28,-28l-351 0c-16,0 -28,-12 -28,-28l0 -37c8,6 18,10 28,10l369 0c26,0 47,-21 47,-47l0 -166c0,-5 -4,-9 -9,-9zm-10 83l-37 0 0 -71 37 5 0 66zm-166 0l-37 0 0 -91 37 4 0 87zm18 -84l37 4 0 80 -37 0 0 -84zm-74 84l-37 0 0 -98 37 4 0 94zm-55 0l-37 0 0 -105 37 4 0 101zm-56 0l-37 0 0 -112 37 5 0 107zm0 18l0 102 -37 0 0 -102 37 0zm19 0l37 0 0 102 -37 0 0 -102zm55 0l37 0 0 102 -37 0 0 -102zm56 0l37 0 0 102 -37 0 0 -102zm55 0l37 0 0 102 -37 0 0 -102zm56 0l37 0 0 102 -37 0 0 -102zm0 -18l0 -77 37 4 0 73 -37 0zm-296 -114l0 114 -37 0 0 -119 37 5zm-37 206l0 -74 37 0 0 102 -9 0c-16,0 -28,-12 -28,-28zm397 28l-9 0 0 -102 37 0 0 74c0,16 -12,28 -28,28z"/>
      <g>
       <path class="fil5" d="M184 504c0,-20 -17,-37 -37,-37 -21,0 -37,17 -37,37 0,21 16,37 37,37 20,0 37,-16 37,-37z"/>
       <path class="fil5" d="M519 504c0,-20 -16,-37 -37,-37 -20,0 -37,17 -37,37 0,21 17,37 37,37 21,0 37,-16 37,-37z"/>
      </g>
      <path class="fil6" d="M63 33c0,-15 -12,-28 -27,-28 -16,0 -28,13 -28,28 0,15 12,28 28,28 15,0 27,-13 27,-28z"/>
      <g>
      </g>
      <g>
      </g>
      <g>
      </g>
      <g>
      </g>
      <g>
      </g>
      <g>
      </g>
      <g>
      </g>
      <g>
      </g>
      <g>
      </g>
      <g>
      </g>
      <g>
      </g>
      <g>
      </g>
      <g>
      </g>
      <g>
      </g>
      <g>
      </g>
     </g>
     <g>
     </g>
    </g>
   </g>
   <path class="fil7" d="M593 495l0 -53c0,-2 -2,-4 -5,-5l-32 -5c-3,-11 -7,-22 -13,-31l19 -27c2,-2 2,-5 0,-6l-37 -37c-2,-2 -5,-2 -7,-1l-26 19c-10,-6 -20,-10 -31,-13l-6 -32c0,-2 -2,-4 -5,-4l-52 0c-3,0 -5,2 -5,4l-6 32c-11,3 -21,7 -31,13l-26 -19c-2,-1 -5,-1 -7,1l-37 37c-2,1 -2,4 0,6l18 27c-5,9 -9,20 -13,31l-31 5c-3,1 -5,3 -5,5l0 53c0,2 2,4 5,5l31 5c4,11 8,21 13,31l-18 26c-2,3 -2,5 0,7l37 37c2,2 5,2 7,1l26 -19c10,5 20,10 31,13l6 32c0,2 2,4 5,4l52 0c3,0 5,-2 5,-4l6 -32c11,-3 21,-8 31,-13l26 19c2,1 5,1 7,-1l37 -37c2,-2 2,-4 0,-7l-19 -26c6,-10 10,-20 13,-31l32 -5c3,-1 5,-3 5,-5l0 0zm-169 40c-37,0 -66,-30 -66,-67 0,-36 29,-66 66,-66 37,0 66,30 66,66 0,37 -29,67 -66,67z"/>
  </g>
  <g id="_953968688">
   <path class="fil8" d="M622 492l0 -52c0,-3 -2,-5 -4,-5l-32 -6c-3,-11 -8,-21 -13,-31l19 -26c1,-2 1,-5 -1,-7l-37 -37c-2,-2 -4,-2 -6,0l-27 18c-10,-5 -20,-9 -31,-12l-5 -32c-1,-3 -3,-5 -5,-5l-53 0c-2,0 -4,2 -5,5l-5 32c-11,3 -22,7 -31,12l-27 -18c-2,-2 -5,-2 -6,0l-37 37c-2,2 -2,5 -1,7l19 26c-6,10 -10,20 -13,31l-32 6c-2,0 -4,2 -4,5l0 52c0,3 2,5 4,5l32 6c3,11 7,21 13,31l-19 26c-1,2 -1,5 1,7l37 37c1,2 4,2 6,0l27 -18c9,5 20,9 31,12l5 32c1,3 3,5 5,5l53 0c2,0 4,-2 5,-5l5 -32c11,-3 21,-7 31,-12l27 18c2,2 4,2 6,0l37 -37c2,-2 2,-5 1,-7l-19 -26c5,-10 10,-20 13,-31l32 -6c2,0 4,-2 4,-5l0 0zm-169 40c-36,0 -66,-29 -66,-66 0,-37 30,-66 66,-66 37,0 67,29 67,66 0,37 -30,66 -67,66z"/>
   <path class="fil9" d="M455 349c64,1 115,53 115,117 0,64 -51,116 -115,117l75 -117 -75 -117z"/>
   <path class="fil10" d="M455 349c52,1 95,53 95,117 0,64 -43,116 -95,117 -1,0 -1,0 -2,0 -64,0 -117,-52 -117,-117 0,-65 53,-117 117,-117 1,0 1,0 2,0zm54 117c0,-31 -25,-56 -56,-56 -31,0 -56,25 -56,56 0,31 25,56 56,56 31,0 56,-25 56,-56z"/>
   <path class="fil8" d="M453 400c-36,0 -66,29 -66,66 0,37 30,66 66,66 37,0 67,-29 67,-66 0,-37 -30,-66 -67,-66zm0 112c-25,0 -45,-21 -45,-46 0,-25 20,-46 45,-46 26,0 46,21 46,46 0,25 -20,46 -46,46z"/>
  </g>
  <rect class="fil7" width="648" height="648"/>
 </g>
</svg>
