<?xml version="1.0" encoding="UTF-8"?>
<!DOCTYPE svg PUBLIC "-//W3C//DTD SVG 1.1//EN" "http://www.w3.org/Graphics/SVG/1.1/DTD/svg11.dtd">
<!-- Creator: CorelDRAW X6 -->
<svg xmlns="http://www.w3.org/2000/svg" xml:space="preserve" width="34.5017mm" height="34.5017mm" version="1.1" style="shape-rendering:geometricPrecision; text-rendering:geometricPrecision; image-rendering:optimizeQuality; fill-rule:evenodd; clip-rule:evenodd"
viewBox="0 0 2910 2910"
 xmlns:xlink="http://www.w3.org/1999/xlink"
 enable-background="new 0 0 504.5 504.5">
 <defs>
  <style type="text/css">
   <![CDATA[
    .fil0 {fill:none}
    .fil11 {fill:#464F5D}
    .fil9 {fill:#95A5A5}
    .fil8 {fill:#BDC3C7}
    .fil10 {fill:#F0C419}
    .fil7 {fill:#F251A1}
    .fil6 {fill:#F76C57}
    .fil4 {fill:#FA9084}
    .fil2 {fill:#FCC645}
    .fil5 {fill:#FF6CB5}
    .fil3 {fill:#FFAD8C}
    .fil1 {fill:#FFD36C}
   ]]>
  </style>
 </defs>
 <g id="Layer_x0020_1">
  <metadata id="CorelCorpID_0Corel-Layer"/>
  <rect class="fil0" width="2910" height="2910"/>
  <g id="_820529424">
   <polygon class="fil1" points="1637,2210 70,2210 208,1815 208,731 1637,731 "/>
   <polygon class="fil2" points="1468,731 1637,731 1637,2210 1468,2210 "/>
   <polygon class="fil2" points="208,1815 70,2210 1637,2210 1637,1815 "/>
   <path class="fil3" d="M1254 986c-17,0 -30,-13 -30,-30l0 -435c0,-166 -136,-301 -302,-301 -166,0 -301,135 -301,301l0 435c0,39 -61,39 -61,0l0 -435c0,-199 162,-362 362,-362 200,0 363,163 363,362l0 435c0,17 -14,30 -31,30z"/>
   <polygon class="fil4" points="1999,2035 2095,2210 1146,2210 1242,2035 1242,1391 1999,1391 "/>
   <polygon class="fil5" points="1999,2035 1999,1391 1830,1391 1830,2035 1925,2210 2095,2210 "/>
   <path class="fil6" d="M1784 1526c-17,0 -31,-13 -31,-30l0 -176c0,-73 -59,-132 -133,-132 -73,0 -132,59 -132,132l0 176c0,39 -61,39 -61,0l0 -176c0,-106 87,-193 193,-193 107,0 194,87 194,193l0 176c0,17 -14,30 -30,30z"/>
   <polygon class="fil6" points="1242,2035 1146,2210 2095,2210 1999,2035 "/>
   <polygon class="fil7" points="1999,2035 1830,2035 1925,2210 2095,2210 "/>
  </g>
  <path id="Shape" class="fil8" d="M2363 921l0 570 0 260 0 441 240 0 0 -441 0 -260 0 -570m-240 0l0 0 0 0z"/>
  <path id="Shape_0" class="fil9" d="M2747 345l-528 0c-53,0 -95,43 -96,96l0 248c0,26 11,50 29,68l211 212 240 0 212 -212c18,-18 28,-42 28,-68l0 -248c0,-53 -43,-96 -96,-96zm-96 304l-128 128 -80 0 -128 -128 0 -112 336 0 0 112z"/>
  <path id="Shape_1" class="fil10" d="M2675 1736l-456 0 -254 719c-20,58 -74,96 -135,96l-1625 0c-79,0 -144,-64 -144,-144 0,-79 65,-143 144,-143l1487 0 298 -681c23,-53 74,-87 132,-87l553 0c32,0 62,13 85,35 22,23 35,53 35,85 0,66 -54,120 -120,120l0 0z"/>
  <path id="Shape_2" class="fil11" d="M253 2551c0,106 86,192 192,192 106,0 192,-86 192,-192m-384 0l0 0 0 0z"/>
  <circle id="Oval" class="fil11" cx="2483" cy="2431" r="312"/>
  <circle id="Oval_3" class="fil8" cx="2483" cy="2431" r="120"/>
  <path id="Shape_4" class="fil9" d="M2843 2839l-2782 0c-26,0 -48,-21 -48,-48 0,-26 22,-48 48,-48l2782 0c26,0 48,22 48,48 0,27 -22,48 -48,48l0 0z"/>
 </g>
</svg>
