<svg id="Capa_1" enable-background="new 0 0 512 512" height="512" viewBox="0 0 512 512" width="512" xmlns="http://www.w3.org/2000/svg"><g><path d="m441.589 195c-3.197-9.889-7.191-19.513-11.946-28.79l49.096-49.096-84.853-84.853-49.096 49.096c-9.277-4.755-18.901-8.749-28.79-11.946v-69.411c-14.518 0-105.387 0-120 0v69.411c-9.889 3.197-19.513 7.191-28.79 11.946l-49.096-49.096-84.853 84.853 49.096 49.096c-4.755 9.277-8.749 18.901-11.946 28.79h-70.411v90.071h181l40-10 35 10c2.022 0 43.334-10 43.334-10l31.666 10h181v-90.071z" fill="#2b4ca1"/><g><path d="m151 465h-76v-30h46v-150h30z" fill="#e4f3ff"/><path d="m241 285.071h30v104.929h-30z" fill="#e4f3ff"/><path d="m256 285.071h15v104.929h-15z" fill="#c3dafd"/><path d="m437 482h-76v-197h30v167h46z" fill="#c3dafd"/><path d="m211 375h90v90h-90z" fill="#dc4c69"/><path d="m256 375h45v90h-45z" fill="#c21d75"/><path d="m422 422h90v90h-90z" fill="#c21d75"/><path d="m0 405h90v90h-90z" fill="#dc4c69"/></g><path d="m441.589 195c-3.197-9.889-7.191-19.513-11.946-28.79l49.096-49.096-84.853-84.853-49.096 49.096c-9.277-4.755-18.901-8.749-28.79-11.946v-69.411h-60v285.071c2.698 0 27.5-10 27.5-10l47.5 10h181v-90.071z" fill="#213b82"/><path d="m181 255v30.071h75v-105.071c-41.356 0-75 33.645-75 75z" fill="#ecc443"/><path d="m256 180v105.071h75v-30.071c0-41.355-33.645-75-75-75z" fill="#e39069"/></g></svg>