<?xml version="1.0" encoding="UTF-8"?>
<!DOCTYPE svg PUBLIC "-//W3C//DTD SVG 1.1//EN" "http://www.w3.org/Graphics/SVG/1.1/DTD/svg11.dtd">
<!-- Creator: CorelDRAW X6 -->
<svg xmlns="http://www.w3.org/2000/svg" xml:space="preserve" width="39.2009mm" height="39.2009mm" version="1.1" style="shape-rendering:geometricPrecision; text-rendering:geometricPrecision; image-rendering:optimizeQuality; fill-rule:evenodd; clip-rule:evenodd"
viewBox="0 0 813 813"
 xmlns:xlink="http://www.w3.org/1999/xlink">
 <defs>
  <style type="text/css">
   <![CDATA[
    .fil0 {fill:none}
    .fil1 {fill:#00ABD6}
    .fil12 {fill:#235087}
    .fil7 {fill:#3596D8}
    .fil6 {fill:#4DB5FF}
    .fil4 {fill:#AAB2BD}
    .fil13 {fill:#B20D24}
    .fil5 {fill:#CCD1D9}
    .fil3 {fill:#E6E9ED}
    .fil15 {fill:#EDC4A2}
    .fil9 {fill:#EF2648}
    .fil14 {fill:#F08015}
    .fil2 {fill:#FCC938}
    .fil10 {fill:#FFA511}
    .fil8 {fill:#FFD4B0}
    .fil11 {fill:#FFDC13}
   ]]>
  </style>
 </defs>
 <g id="Layer_x0020_1">
  <metadata id="CorelCorpID_0Corel-Layer"/>
  <rect class="fil0" width="813" height="813"/>
  <g id="_830420464">
   <rect class="fil1" transform="matrix(1.15375 -0.232465 0.197375 0.979596 138.696 110.435)" width="406" height="553" rx="39" ry="39"/>
   <rect class="fil2" transform="matrix(1.15375 -0.232465 0.197375 0.979596 76.1849 101.134)" width="406" height="553" rx="39" ry="39"/>
   <polygon class="fil3" points="66,161 533,67 651,653 184,748 "/>
   <polygon class="fil4" points="645,121 763,707 651,653 533,67 "/>
   <polygon class="fil5" points="651,653 763,707 296,801 184,748 "/>
  </g>
  <g id="_830423568">
   <path class="fil6" d="M497 566l-12 -62c-1,-9 4,-17 13,-19l31 -6 18 13 13 -19 31 -6c8,-1 17,4 18,13l12 62c2,8 -4,17 -12,18l-93 18c-9,2 -17,-3 -19,-12z"/>
   <path class="fil7" d="M597 467c-10,50 -50,89 -100,99 2,9 10,14 19,12l93 -18c8,-1 14,-10 12,-18l-12 -62c-1,-7 -6,-11 -12,-13z"/>
   <path class="fil6" d="M334 598l-12 -62c-1,-9 4,-17 13,-19l31 -6 18 12 13 -18 31 -6c8,-2 17,4 18,12l12 62c2,9 -3,17 -12,19l-93 18c-9,2 -17,-4 -19,-12z"/>
   <path class="fil7" d="M434 499c-10,50 -50,89 -100,99 2,8 10,14 19,12l93 -18c9,-2 14,-10 12,-19l-12 -62c-1,-6 -6,-11 -12,-12z"/>
   <path class="fil6" d="M171 629l-12 -62c-1,-8 4,-17 13,-18l31 -6 18 12 13 -18 31 -6c8,-2 17,4 18,12l13 62c1,9 -4,17 -13,19l-93 18c-9,1 -17,-4 -19,-13z"/>
   <circle class="fil8" transform="matrix(0.103372 -0.0200935 0.0200935 0.103372 319.46 189.823)" r="375"/>
   <path class="fil9" d="M285 261l93 -18c9,-2 17,4 19,12l12 62c1,9 -4,17 -13,19l-93 18c-9,2 -17,-4 -18,-12l-13 -63c-1,-8 4,-16 13,-18z"/>
   <polygon class="fil10" points="359,311 344,274 355,247 308,256 328,277 328,317 347,329 "/>
   <g>
    <path class="fil11" d="M532 374l-15 3 -5 -23 -310 60 5 23 -16 3 -6 -31c-1,-4 2,-8 6,-9l326 -63c4,-1 9,2 9,6l6 31 0 0z"/>
    <rect class="fil11" transform="matrix(0.103372 -0.0200935 0.0200935 0.103372 341.865 346.515)" width="150" height="600"/>
   </g>
   <g>
    <polygon class="fil12" points="234,577 228,546 221,555 212,549 218,580 "/>
    <polygon class="fil12" points="397,545 391,514 384,523 375,517 381,548 "/>
    <polygon class="fil12" points="560,514 554,483 547,492 538,486 544,517 "/>
   </g>
   <path class="fil13" d="M356 304l3 7 -12 18 -12 -8c-16,10 -33,17 -50,21 1,8 9,14 18,12l93 -18c9,-2 14,-10 13,-19l-12 -62c-1,-3 -3,-6 -5,-8 -7,22 -19,41 -36,57z"/>
   <path class="fil14" d="M347 329l12 -18 -3 -7c-6,7 -14,12 -21,17l12 8z"/>
   <path class="fil15" d="M337 154c16,15 17,40 3,56 -12,13 -31,17 -47,9 16,15 41,14 56,-3 14,-16 13,-41 -3,-55 -3,-3 -6,-5 -9,-7z"/>
   <circle class="fil8" transform="matrix(0.103372 -0.0200935 0.0200935 0.103372 369.231 445.875)" r="375"/>
   <path class="fil15" d="M386 410c17,15 18,40 3,56 -11,13 -30,17 -46,9 16,15 41,14 55,-2 15,-17 14,-41 -2,-56 -3,-3 -6,-5 -10,-7z"/>
   <circle class="fil8" transform="matrix(0.103372 -0.0200935 0.0200935 0.103372 532.174 414.203)" r="375"/>
   <path class="fil15" d="M549 379c17,14 18,39 3,55 -11,13 -30,17 -46,9 16,15 41,14 55,-2 15,-16 14,-41 -2,-56 -3,-2 -6,-5 -10,-6z"/>
   <circle class="fil8" transform="matrix(0.103372 -0.0200935 0.0200935 0.103372 206.289 477.548)" r="375"/>
   <path class="fil15" d="M223 442c17,15 18,39 4,56 -12,13 -31,17 -47,9 16,14 41,13 56,-3 14,-16 13,-41 -3,-55 -3,-3 -6,-5 -10,-7z"/>
   <path class="fil7" d="M271 531c-10,50 -50,89 -100,98 2,9 10,14 19,13l93 -18c9,-2 14,-10 13,-19l-13 -62c-1,-6 -6,-11 -12,-12z"/>
   <g>
   </g>
   <g>
   </g>
   <g>
   </g>
   <g>
   </g>
   <g>
   </g>
   <g>
   </g>
   <g>
   </g>
   <g>
   </g>
   <g>
   </g>
   <g>
   </g>
   <g>
   </g>
   <g>
   </g>
   <g>
   </g>
   <g>
   </g>
   <g>
   </g>
  </g>
 </g>
</svg>
