<?xml version="1.0" encoding="UTF-8"?>
<!DOCTYPE svg PUBLIC "-//W3C//DTD SVG 1.1//EN" "http://www.w3.org/Graphics/SVG/1.1/DTD/svg11.dtd">
<!-- Creator: CorelDRAW X6 -->
<svg xmlns="http://www.w3.org/2000/svg" xml:space="preserve" width="71.555mm" height="71.555mm" version="1.1" style="shape-rendering:geometricPrecision; text-rendering:geometricPrecision; image-rendering:optimizeQuality; fill-rule:evenodd; clip-rule:evenodd"
viewBox="0 0 2329444 2329444"
 xmlns:xlink="http://www.w3.org/1999/xlink">
 <defs>
  <style type="text/css">
   <![CDATA[
    .fil10 {fill:none}
    .fil9 {fill:#3596D8}
    .fil8 {fill:#4DB5FF}
    .fil3 {fill:#B20D24}
    .fil7 {fill:#D22DF7}
    .fil6 {fill:#E46EFF}
    .fil2 {fill:#EDC4A2}
    .fil0 {fill:#EF2648}
    .fil5 {fill:#F08015}
    .fil4 {fill:#FFA511}
    .fil1 {fill:#FFD4B0}
   ]]>
  </style>
 </defs>
 <g id="Layer_x0020_1">
  <metadata id="CorelCorpID_0Corel-Layer"/>
  <g id="_1063469024">
   <g>
    <path class="fil0" d="M1320340 2143469l0 -232185c0,-85482 69305,-154788 154787,-154788l0 0c97439,48721 212139,48721 309578,0l0 0c85482,0 154787,69306 154787,154788l0 232185c0,42758 -34635,77392 -77395,77392l-464362 0c-42761,4 -77395,-34631 -77395,-77392z"/>
    <circle class="fil1" cx="1629918" cy="1446922" r="193486"/>
    <path class="fil2" d="M1745545 1292600c64311,84785 47712,205637 -37034,269949 -68840,52240 -164075,52240 -232915,0 63579,85521 184428,103322 269949,39782 85521,-63540 103325,-184429 39782,-269950 -11261,-15131 -24654,-28560 -39782,-39781z"/>
    <path class="fil3" d="M1320340 2143469c0,42758 34634,77392 77395,77392l464362 0c42760,0 77395,-34634 77395,-77392l0 -232185c-156,-26933 -7393,-53322 -21011,-76543 -137644,193680 -360539,308728 -598141,308728z"/>
   </g>
   <g>
    <circle class="fil1" cx="1629917" cy="302071" r="193486"/>
    <path class="fil2" d="M1745545 147749c64311,84785 47712,205638 -37034,269949 -68840,52241 -164075,52241 -232915,0 63579,85521 184428,103325 269949,39782 85521,-63579 103322,-184428 39782,-269949 -11268,-15132 -24654,-28560 -39782,-39782z"/>
    <path class="fil4" d="M1320340 998622l0 -232186c0,-85479 69305,-154787 154787,-154787l0 0c97439,48721 212139,48721 309578,0l0 0c85478,0 154784,69308 154784,154787l0 232186c0,42757 -34635,77392 -77392,77392l-464365 0c-42758,0 -77392,-34635 -77392,-77392z"/>
    <path class="fil5" d="M1320340 998622c0,42757 34634,77392 77392,77392l464365 0c42760,0 77395,-34635 77395,-77392l0 -232186c-153,-26932 -7390,-53321 -21011,-76542 -137647,193677 -360542,308728 -598141,308728z"/>
   </g>
   <g>
    <circle class="fil1" cx="699532" cy="1446919" r="193486"/>
    <path class="fil2" d="M815161 1292596c64311,84786 47712,205638 -37035,269950 -68840,52240 -164075,52240 -232915,0 63579,85521 184429,103325 269950,39781 85520,-63579 103321,-184428 39781,-269949 -11267,-15131 -24653,-28560 -39781,-39782z"/>
    <path class="fil6" d="M389955 2143469l0 -232185c0,-85479 69306,-154788 154788,-154788l0 0c97439,48721 212135,48721 309577,0l0 0c85479,0 154785,69309 154785,154788l0 232185c0,42758 -34635,77392 -77392,77392l-464366 0c-42757,0 -77392,-34634 -77392,-77392z"/>
    <path class="fil7" d="M389955 2143469c0,42758 34635,77392 77392,77392l464366 0c42760,0 77395,-34634 77395,-77392l0 -232185c-156,-26933 -7393,-53322 -21011,-76543 -137647,193677 -360545,308728 -598142,308728z"/>
   </g>
   <g>
    <circle class="fil1" cx="699531" cy="302071" r="193486"/>
    <path class="fil2" d="M815157 147749c64312,84785 47712,205638 -37034,269949 -68840,52241 -164075,52241 -232915,0 63579,85521 184428,103325 269949,39782 85521,-63540 103322,-184428 39782,-269949 -11261,-15132 -24650,-28560 -39782,-39782z"/>
    <path class="fil8" d="M389955 998622l0 -232186c0,-85479 69306,-154787 154788,-154787l0 0c97439,48721 212138,48721 309577,0l0 0c85482,0 154788,69308 154788,154787l0 232186c0,42757 -34635,77392 -77395,77392l-464362 0c-42764,0 -77396,-34635 -77396,-77392z"/>
    <path class="fil9" d="M389955 998622c0,42757 34635,77392 77396,77392l464365 0c42757,0 77392,-34635 77392,-77392l0 -232186c-153,-26932 -7390,-53321 -21011,-76542 -137647,193677 -360542,308728 -598142,308728z"/>
   </g>
  </g>
  <rect class="fil10" width="2329444" height="2329444"/>
 </g>
</svg>
