<?xml version="1.0" encoding="UTF-8"?>
<!DOCTYPE svg PUBLIC "-//W3C//DTD SVG 1.1//EN" "http://www.w3.org/Graphics/SVG/1.1/DTD/svg11.dtd">
<!-- Creator: CorelDRAW X6 -->
<svg xmlns="http://www.w3.org/2000/svg" xml:space="preserve" width="39.3371mm" height="39.3371mm" version="1.1" style="shape-rendering:geometricPrecision; text-rendering:geometricPrecision; image-rendering:optimizeQuality; fill-rule:evenodd; clip-rule:evenodd"
viewBox="0 0 1782 1782"
 xmlns:xlink="http://www.w3.org/1999/xlink">
 <defs>
  <style type="text/css">
   <![CDATA[
    .fil8 {fill:none}
    .fil7 {fill:#3596D8}
    .fil6 {fill:#4DB5FF}
    .fil5 {fill:#D22DF7}
    .fil4 {fill:#E46EFF}
    .fil1 {fill:#EDC4A2}
    .fil3 {fill:#F08015}
    .fil2 {fill:#FFA511}
    .fil0 {fill:#FFD4B0}
   ]]>
  </style>
 </defs>
 <g id="Layer_x0020_1">
  <metadata id="CorelCorpID_0Corel-Layer"/>
  <g id="_1068195728">
   <g>
    <circle class="fil0" cx="1228" cy="519" r="239"/>
    <path class="fil1" d="M1371 328c79,105 59,254 -46,334 -85,64 -203,64 -288,0 78,106 228,128 334,49 105,-79 127,-228 49,-334 -14,-19 -31,-35 -49,-49z"/>
    <path class="fil2" d="M844 1381l0 -288c0,-105 86,-191 192,-191l0 0c121,60 262,60 383,0l0 0c106,0 192,86 192,191l0 288c0,53 -43,95 -96,95l-575 0c-53,0 -96,-42 -96,-95z"/>
    <path class="fil3" d="M844 1381c0,53 43,95 96,95l575 0c53,0 96,-42 96,-95l0 -288c-1,-33 -10,-66 -26,-94 -171,239 -447,382 -741,382z"/>
   </g>
   <g>
    <circle class="fil0" cx="414" cy="1112" r="152"/>
    <path class="fil1" d="M505 991c50,67 37,161 -29,212 -54,41 -129,41 -183,0 50,67 145,81 212,31 67,-50 81,-145 31,-212 -9,-12 -19,-22 -31,-31z"/>
    <path class="fil4" d="M171 1659l0 -183c0,-67 54,-121 122,-121l0 0c76,38 166,38 242,0l0 0c67,0 122,54 122,121l0 183c0,33 -27,60 -61,60l-364 0c-34,0 -61,-27 -61,-60z"/>
    <path class="fil5" d="M171 1659c0,33 27,60 61,60l364 0c34,0 61,-27 61,-60l0 -183c0,-21 -6,-41 -17,-60 -108,152 -283,243 -469,243z"/>
   </g>
   <g>
    <circle class="fil0" cx="414" cy="214" r="152"/>
    <path class="fil1" d="M505 93c50,67 37,161 -29,212 -54,41 -129,41 -183,0 50,67 145,81 212,31 67,-50 81,-145 31,-212 -9,-11 -19,-22 -31,-31z"/>
    <path class="fil6" d="M171 761l0 -183c0,-67 54,-121 122,-121l0 0c76,38 166,38 242,0l0 0c67,0 122,54 122,121l0 183c0,33 -27,60 -61,60l-364 0c-34,0 -61,-27 -61,-60z"/>
    <path class="fil7" d="M171 761c0,33 27,60 61,60l364 0c34,0 61,-27 61,-60l0 -183c0,-21 -6,-41 -17,-60 -108,152 -283,243 -469,243z"/>
   </g>
  </g>
  <rect class="fil8" width="1782" height="1782"/>
 </g>
</svg>
